<svg
		width="355"
		height="500"
		viewBox="0 0 355 500"
		version="1.1"
		preserveAspectRatio="xMidYMid"
		id="svg9"
		xmlns="http://www.w3.org/2000/svg"
>
	<defs
			id="defs9"/>
	<g
			id="g9"
			transform="matrix(1.3885498,0,0,1.3885498,-0.23437219,2.2935409e-6)">
		<path
				d="M 127.84387,360.08791 23.661714,331.16624 0.44518681,70.765714 H 255.55481 L 232.31367,331.12545 Z"
				fill="#264de4"
				id="path1"/>
		<path
				d="M 212.4167,314.54664 232.2778,92.057319 H 128 V 337.95024 Z"
				fill="#2965f1"
				id="path2"/>
		<path
				d="m 53.668571,188.63613 2.862418,31.9367 H 128 v -31.9367 z"
				fill="#ebebeb"
				id="path3"/>
		<path
				d="m 47.917011,123.99473 2.903209,31.9374 H 128 v -31.9374 z"
				fill="#ebebeb"
				id="path4"/>
		<path
				d="m 128,271.58013 -0.13996,0.0373 -35.568524,-9.60422 -2.273758,-25.4713 H 57.957978 L 62.432352,286.68767 127.85301,304.8489 128,304.8081 v -33.22796 z"
				fill="#ebebeb"
				id="path5"/>
		<path
				d="M 60.483516,0 H 99.164835 V 16.175824 H 76.659341 V 32.351648 H 99.164835 V 48.527473 H 60.483516 Z"
				fill="#000000"
				id="path6"/>
		<path
				d="m 106.9011,0 h 38.68132 v 14.065934 h -22.5055 v 2.813187 h 22.5055 V 49.230769 H 106.9011 v -14.76923 h 22.50549 V 31.648352 H 106.9011 Z"
				fill="#000000"
				id="path7"/>
		<path
				d="M 153.31868,0 H 192 v 14.065934 h -22.5055 v 2.813187 H 192 v 32.351648 h -38.68132 v -14.76923 h 22.5055 v -2.813187 h -22.5055 z"
				fill="#000000"
				id="path8"/>
		<path
				d="m 202.12677,188.63613 5.76563,-64.6414 h -80.00282 v 31.9374 h 45.00255 l -2.90602,32.704 h -42.09653 v 31.9367 h 39.32695 l -3.70708,41.41996 -35.61987,9.61407 v 33.22655 l 65.47271,-18.14576 0.48035,-5.39569 7.50488,-84.07983 z"
				fill="#ffffff"
				id="path9"/>
	</g>
</svg>
