<svg
		width="500"
		height="298"
		viewBox="0 0 51.2 30.518072"
		preserveAspectRatio="xMidYMid"
		version="1.1"
		id="svg2"
		xmlns="http://www.w3.org/2000/svg"
>
	<defs
			id="defs2"/>
	<path
			d="M 4.7497956,0.019088 H 46.429357 c 2.63785,0 4.773053,2.1352029 4.773053,4.7730536 V 20.701853 c 0,2.637851 -2.135203,4.773054 -4.773053,4.773054 H 31.482536 l 2.051595,5.024077 -9.022657,-5.024077 H 4.7705976 c -2.6376507,0 -4.7728535,-2.135203 -4.7728535,-4.773054 V 4.7921416 C -0.0232579,2.1752929 2.1117449,0.019088 4.7497956,0.019088 Z"
			fill="#9b5c8f"
			id="path1"
			style="stroke-width:0.200019"/>
	<path
			d="M 2.9134211,4.3695014 C 3.2048488,3.9738638 3.6418903,3.765844 4.2247457,3.7242401 5.2864466,3.6408322 5.890104,4.1402796 6.0357178,5.2227825 6.6809791,9.5731959 7.3886464,13.257546 8.1379176,16.275633 L 12.696351,7.595808 c 0.41644,-0.7910752 0.936889,-1.2073148 1.561349,-1.2489187 0.915887,-0.062406 1.47774,0.5202494 1.706762,1.7483661 0.520449,2.7682626 1.186513,5.1204866 1.977388,7.1186766 0.541251,-5.2869025 1.457138,-9.0960645 2.747661,-11.448088 0.312029,-0.5828554 0.770073,-0.874283 1.37373,-0.916087 0.478846,-0.041404 0.915887,0.1042099 1.311325,0.4164396 0.395437,0.3122296 0.603657,0.7076672 0.645261,1.1865127 0.0208,0.3746356 -0.0416,0.6868653 -0.20802,0.9990949 -0.811877,1.4987425 -1.47814,4.0173818 -2.019191,7.5141138 -0.52025,3.392923 -0.707668,6.036574 -0.582856,7.930754 0.0418,0.520049 -0.0416,0.978093 -0.249624,1.37373 -0.250023,0.457844 -0.624459,0.707668 -1.103304,0.749272 -0.541252,0.0416 -1.103105,-0.20802 -1.644357,-0.770074 -1.935784,-1.977587 -3.47613,-4.933268 -4.600037,-8.867242 -1.353128,2.664253 -2.352223,4.662443 -2.997485,5.994569 C 9.3868362,21.729151 8.3461373,22.936466 7.4718543,22.998872 6.9098009,23.040476 6.4311554,22.56163 6.0149158,21.562735 4.953415,18.835876 3.8085062,13.569576 2.5805895,5.7640339 2.4971816,5.2227825 2.6219934,4.743937 2.9134211,4.3695014 Z M 47.644872,7.6374119 C 46.895601,6.3260873 45.792296,5.5352122 44.314556,5.2227825 43.918918,5.1395746 43.544483,5.0979706 43.190449,5.0979706 c -1.99819,0 -3.621744,1.0406989 -4.891465,3.1222967 -1.082503,1.7691681 -1.623554,3.7257537 -1.623554,5.8697577 0,1.602752 0.333031,2.976483 0.999095,4.121392 0.749271,1.311324 1.852576,2.102199 3.330316,2.414429 0.395438,0.08341 0.770073,0.125012 1.124107,0.125012 2.018992,0 3.642546,-1.040699 4.891465,-3.122297 1.082303,-1.79017 1.623554,-3.746756 1.623554,-5.890559 0.0208,-1.623555 -0.333032,-2.9766833 -0.999095,-4.1005901 z M 45.022223,13.40316 c -0.291428,1.37373 -0.811877,2.393627 -1.58215,3.080493 -0.603458,0.541251 -1.165511,0.770073 -1.685761,0.666063 -0.499647,-0.10401 -0.916087,-0.541052 -1.228116,-1.352929 -0.250024,-0.645261 -0.374636,-1.290522 -0.374636,-1.89418 0,-0.520249 0.0416,-1.040699 0.145614,-1.519344 0.187418,-0.853481 0.541251,-1.68616 1.103105,-2.4770355 0.687065,-1.0200969 1.415534,-1.4361365 2.164805,-1.2905226 0.499648,0.1040099 0.916088,0.5412514 1.228117,1.3529285 0.249824,0.6452616 0.374636,1.2905226 0.374636,1.8941796 0,0.541252 -0.0416,1.061501 -0.145614,1.540147 z M 34.614634,7.6374119 C 33.865363,6.3260873 32.741256,5.5352122 31.284318,5.2227825 30.88888,5.1395746 30.514244,5.0979706 30.160211,5.0979706 c -1.99819,0 -3.621744,1.0406989 -4.891465,3.1222967 -1.082303,1.7691681 -1.623554,3.7257537 -1.623554,5.8697577 0,1.602752 0.333031,2.976483 0.999095,4.121392 0.749271,1.311324 1.852576,2.102199 3.330316,2.414429 0.395638,0.08341 0.770073,0.125012 1.124107,0.125012 2.018992,0 3.642546,-1.040699 4.891465,-3.122297 1.082502,-1.79017 1.623554,-3.746756 1.623554,-5.890559 0,-1.623555 -0.333032,-2.9766833 -0.999095,-4.1005901 z M 31.971183,13.40316 c -0.291428,1.37373 -0.811877,2.393627 -1.581951,3.080493 -0.603657,0.541251 -1.16571,0.770073 -1.68616,0.666063 -0.499447,-0.10401 -0.915687,-0.541052 -1.228116,-1.352929 -0.249624,-0.645261 -0.374436,-1.290522 -0.374436,-1.89418 0,-0.520249 0.0416,-1.040699 0.145614,-1.519344 0.187418,-0.853481 0.541251,-1.68616 1.103305,-2.4770355 0.686865,-1.0200969 1.415334,-1.4361365 2.164605,-1.2905226 0.499648,0.1040099 0.916087,0.5412514 1.228117,1.3529285 0.250024,0.6452616 0.374636,1.2905226 0.374636,1.8941796 0.021,0.541252 -0.0416,1.061501 -0.145614,1.540147 z"
			fill="#ffffff"
			id="path2"
			style="stroke-width:0.200019"/>
</svg>
