<svg
		width="500"
		height="500"
		viewBox="8.399 8.4 10.24 10.24"
		version="1.1"
		id="svg1"
		xmlns="http://www.w3.org/2000/svg"
>
	<title>Wordpress</title>
	<defs
			id="defs1"/>
	<path
			fill="#21759b"
			d="m 13.519074,18.639926 c -2.837359,0 -5.141326,-2.261367 -5.1199263,-5.119926 0.0214,-2.858559 2.1759683,-5.119926 5.1199263,-5.119926 2.944157,0 5.119926,2.303967 5.119926,5.119926 0,2.815959 -2.282567,5.119926 -5.119926,5.119926 z m 1.514578,-0.789388 -1.450579,-3.903944 -1.365381,3.989342 c 1.002786,0.234797 1.685376,0.298596 2.81596,-0.0854 z M 11.492503,17.637341 9.3165344,11.685427 C 9.0177387,12.325417 8.9539397,12.85881 8.9111403,13.52 c 0.0214,1.749175 1.0025855,3.349152 2.5813627,4.117341 z M 18.105807,13.52 c 0.0212,-1.130584 -0.490593,-2.026571 -0.533392,-2.154569 0.0428,0.874788 -0.0854,1.322581 -0.234597,1.813374 L 15.84444,17.466743 C 17.721813,16.335959 18.084208,14.650584 18.127007,13.52 Z m -4.735931,-0.191997 -0.72539,-1.983972 -0.533392,-0.0426 c -0.213197,-0.149398 -0.0854,-0.383994 0.064,-0.383994 0.959986,0.064 1.493178,0.064 2.453365,0 0.234796,0 0.298595,0.341395 0.0212,0.383994 l -0.511992,0.0426 1.663776,4.90653 0.789188,-2.687962 c 0.0428,-1.173183 -0.277396,-1.301181 -0.70399,-2.154568 -0.341395,-0.661391 0.0214,-1.301382 0.68279,-1.322581 -0.533592,-0.5119929 -1.621376,-1.1519837 -3.050755,-1.1733834 -1.42938,-0.0214 -2.943958,0.7039898 -3.8399448,2.0693704 l 1.5787768,-0.0426 c 0.191997,0.0854 0.106599,0.362595 0,0.383995 l -0.554592,0.0426 1.663976,4.991928 z"
			id="path1"
			style="stroke-width:0.199997"/>
</svg>
