<svg width="80" height="80" viewBox="0 0 80 80" fill="none" xmlns="http://www.w3.org/2000/svg">
	<path d="M0 10C0 4.47715 4.47715 0 10 0H70C75.5228 0 80 4.47715 80 10V70C80 75.5228 75.5228 80 70 80H10C4.47715 80 0 75.5228 0 70V10Z"
		  fill="#10A9D6"/>
	<path fill-rule="evenodd" clip-rule="evenodd"
		  d="M69.1899 17.669C70.1274 17.6112 70.6622 18.8303 70.0393 19.6052L64.4947 26.5031C63.8454 27.3109 62.6353 26.7945 62.6481 25.715L62.681 22.9163C62.6854 22.5496 62.5329 22.2021 62.2695 21.9782L60.2594 20.2699C59.4841 19.611 59.8679 18.244 60.8451 18.1837L69.1899 17.669ZM25.0719 35.7833C25.0719 42.3911 19.6705 47.7457 13.0144 47.7457C11.3465 47.7457 10 46.4014 10 44.7532C10 43.1051 11.3465 41.7683 13.0144 41.7683C16.3425 41.7683 19.0432 39.0872 19.0432 35.7833V26.8133C19.0432 25.1576 20.3897 23.8208 22.0575 23.8208C23.7254 23.8208 25.0719 25.1576 25.0719 26.8133V35.7833ZM57.5722 35.7833C57.5722 39.0872 60.2729 41.7683 63.601 41.7683C65.2689 41.7683 66.6154 43.0975 66.6154 44.7532C66.6154 46.409 65.2689 47.7457 63.601 47.7457C56.9449 47.7457 51.5435 42.3911 51.5435 35.7833V26.8133C51.5435 25.1576 52.89 23.8208 54.5578 23.8208C56.2257 23.8208 57.5722 25.1652 57.5722 26.8133V29.4945H59.9669C61.6348 29.4945 62.9889 30.8388 62.9889 32.4946C62.9889 34.1503 61.6348 35.4947 59.9669 35.4947H57.5722V35.7833ZM49.8145 31.5908C49.8221 31.5832 49.8298 31.5832 49.8298 31.5832C48.8811 29.1072 47.1061 26.9349 44.6273 25.507C38.8739 22.1955 31.5292 24.1551 28.2165 29.8819C24.896 35.6011 26.8699 42.9152 32.6156 46.2192C36.8465 48.6496 41.9419 48.2243 45.6601 45.5508L45.6372 45.5204C46.494 44.9963 47.0602 44.0545 47.0602 42.9836C47.0602 41.3354 45.7137 39.9987 44.0535 39.9987C43.2501 39.9987 42.5157 40.3101 41.9801 40.8266C40.1745 42.0342 37.7722 42.2241 35.7448 41.1152L47.8865 35.5175C48.5903 35.3048 49.2177 34.8339 49.6079 34.1504C50.0822 33.3377 50.1281 32.4035 49.8145 31.5908ZM41.6205 30.6794C41.9801 30.8844 42.3014 31.1199 42.5998 31.3781L32.608 35.9732C32.585 34.9175 32.8451 33.8466 33.4113 32.8668C35.0715 30.011 38.7439 29.0312 41.6205 30.6794Z"
		  fill="white"/>
	<path d="M9.11684 60.0724C8.47684 60.0724 7.90084 59.9284 7.38884 59.6404C6.88484 59.3444 6.48484 58.9444 6.18884 58.4404C5.90084 57.9284 5.75684 57.3564 5.75684 56.7244C5.75684 56.0844 5.90084 55.5124 6.18884 55.0084C6.48484 54.4964 6.88484 54.0964 7.38884 53.8084C7.90084 53.5124 8.47684 53.3644 9.11684 53.3644C9.75684 53.3644 10.3288 53.5124 10.8328 53.8084C11.3368 54.0964 11.7328 54.4964 12.0208 55.0084C12.3168 55.5124 12.4648 56.0844 12.4648 56.7244L12.1648 57.2044C12.1648 57.7484 12.0288 58.2364 11.7568 58.6684C11.4928 59.1004 11.1328 59.4444 10.6768 59.7004C10.2208 59.9484 9.70084 60.0724 9.11684 60.0724ZM9.11684 59.4004C9.62084 59.4004 10.0688 59.2844 10.4608 59.0524C10.8608 58.8124 11.1728 58.4924 11.3968 58.0924C11.6288 57.6844 11.7448 57.2284 11.7448 56.7244C11.7448 56.2124 11.6288 55.7564 11.3968 55.3564C11.1728 54.9484 10.8608 54.6284 10.4608 54.3964C10.0688 54.1564 9.62084 54.0364 9.11684 54.0364C8.62084 54.0364 8.17284 54.1564 7.77284 54.3964C7.37284 54.6284 7.05684 54.9484 6.82484 55.3564C6.59284 55.7564 6.47684 56.2124 6.47684 56.7244C6.47684 57.2284 6.59284 57.6844 6.82484 58.0924C7.05684 58.4924 7.37284 58.8124 7.77284 59.0524C8.17284 59.2844 8.62084 59.4004 9.11684 59.4004ZM12.1048 60.0004C12.0008 60.0004 11.9128 59.9684 11.8408 59.9044C11.7768 59.8324 11.7448 59.7444 11.7448 59.6404V57.4444L11.9728 56.7244H12.4648V59.6404C12.4648 59.7444 12.4328 59.8324 12.3688 59.9044C12.3048 59.9684 12.2168 60.0004 12.1048 60.0004Z"
		  fill="white"/>
	<path d="M13.9014 62.8084C13.7974 62.8084 13.7094 62.7724 13.6374 62.7004C13.5734 62.6364 13.5414 62.5524 13.5414 62.4484V56.6524C13.5574 56.0204 13.7094 55.4604 13.9974 54.9724C14.2934 54.4764 14.6934 54.0844 15.1974 53.7964C15.7014 53.5084 16.2654 53.3644 16.8894 53.3644C17.5294 53.3644 18.1014 53.5124 18.6054 53.8084C19.1174 54.0964 19.5174 54.4964 19.8054 55.0084C20.1014 55.5124 20.2494 56.0844 20.2494 56.7244C20.2494 57.3564 20.1014 57.9284 19.8054 58.4404C19.5174 58.9444 19.1174 59.3444 18.6054 59.6404C18.1014 59.9284 17.5294 60.0724 16.8894 60.0724C16.3134 60.0724 15.7934 59.9484 15.3294 59.7004C14.8734 59.4524 14.5174 59.1204 14.2614 58.7044V62.4484C14.2614 62.5524 14.2294 62.6364 14.1654 62.7004C14.1014 62.7724 14.0134 62.8084 13.9014 62.8084ZM16.8894 59.4004C17.3934 59.4004 17.8414 59.2844 18.2334 59.0524C18.6334 58.8124 18.9494 58.4924 19.1814 58.0924C19.4134 57.6844 19.5294 57.2284 19.5294 56.7244C19.5294 56.2124 19.4134 55.7564 19.1814 55.3564C18.9494 54.9484 18.6334 54.6284 18.2334 54.3964C17.8414 54.1564 17.3934 54.0364 16.8894 54.0364C16.3934 54.0364 15.9454 54.1564 15.5454 54.3964C15.1454 54.6284 14.8294 54.9484 14.5974 55.3564C14.3734 55.7564 14.2614 56.2124 14.2614 56.7244C14.2614 57.2284 14.3734 57.6844 14.5974 58.0924C14.8294 58.4924 15.1454 58.8124 15.5454 59.0524C15.9454 59.2844 16.3934 59.4004 16.8894 59.4004Z"
		  fill="white"/>
	<path d="M21.6892 62.8084C21.5852 62.8084 21.4972 62.7724 21.4252 62.7004C21.3612 62.6364 21.3292 62.5524 21.3292 62.4484V56.6524C21.3452 56.0204 21.4972 55.4604 21.7852 54.9724C22.0812 54.4764 22.4812 54.0844 22.9852 53.7964C23.4892 53.5084 24.0532 53.3644 24.6772 53.3644C25.3172 53.3644 25.8892 53.5124 26.3932 53.8084C26.9052 54.0964 27.3052 54.4964 27.5932 55.0084C27.8892 55.5124 28.0372 56.0844 28.0372 56.7244C28.0372 57.3564 27.8892 57.9284 27.5932 58.4404C27.3052 58.9444 26.9052 59.3444 26.3932 59.6404C25.8892 59.9284 25.3172 60.0724 24.6772 60.0724C24.1012 60.0724 23.5812 59.9484 23.1172 59.7004C22.6612 59.4524 22.3052 59.1204 22.0492 58.7044V62.4484C22.0492 62.5524 22.0172 62.6364 21.9532 62.7004C21.8892 62.7724 21.8012 62.8084 21.6892 62.8084ZM24.6772 59.4004C25.1812 59.4004 25.6292 59.2844 26.0212 59.0524C26.4212 58.8124 26.7372 58.4924 26.9692 58.0924C27.2012 57.6844 27.3172 57.2284 27.3172 56.7244C27.3172 56.2124 27.2012 55.7564 26.9692 55.3564C26.7372 54.9484 26.4212 54.6284 26.0212 54.3964C25.6292 54.1564 25.1812 54.0364 24.6772 54.0364C24.1812 54.0364 23.7332 54.1564 23.3332 54.3964C22.9332 54.6284 22.6172 54.9484 22.3852 55.3564C22.1612 55.7564 22.0492 56.2124 22.0492 56.7244C22.0492 57.2284 22.1612 57.6844 22.3852 58.0924C22.6172 58.4924 22.9332 58.8124 23.3332 59.0524C23.7332 59.2844 24.1812 59.4004 24.6772 59.4004Z"
		  fill="white"/>
	<path d="M32.117 60.0724C31.477 60.0724 30.901 59.9284 30.389 59.6404C29.885 59.3444 29.485 58.9444 29.189 58.4404C28.901 57.9284 28.757 57.3564 28.757 56.7244C28.757 56.0844 28.901 55.5124 29.189 55.0084C29.485 54.4964 29.885 54.0964 30.389 53.8084C30.901 53.5124 31.477 53.3644 32.117 53.3644C32.757 53.3644 33.329 53.5124 33.833 53.8084C34.337 54.0964 34.733 54.4964 35.021 55.0084C35.317 55.5124 35.465 56.0844 35.465 56.7244C35.465 57.3564 35.317 57.9284 35.021 58.4404C34.733 58.9444 34.337 59.3444 33.833 59.6404C33.329 59.9284 32.757 60.0724 32.117 60.0724ZM32.117 59.4004C32.621 59.4004 33.069 59.2844 33.461 59.0524C33.861 58.8124 34.173 58.4924 34.397 58.0924C34.629 57.6844 34.745 57.2244 34.745 56.7124C34.745 56.2084 34.629 55.7564 34.397 55.3564C34.173 54.9484 33.861 54.6284 33.461 54.3964C33.069 54.1564 32.621 54.0364 32.117 54.0364C31.621 54.0364 31.173 54.1564 30.773 54.3964C30.373 54.6284 30.057 54.9484 29.825 55.3564C29.593 55.7564 29.477 56.2124 29.477 56.7244C29.477 57.2284 29.593 57.6844 29.825 58.0924C30.057 58.4924 30.373 58.8124 30.773 59.0524C31.173 59.2844 31.621 59.4004 32.117 59.4004Z"
		  fill="white"/>
	<path d="M37.1415 60.0004C37.0375 60.0004 36.9495 59.9684 36.8775 59.9044C36.8135 59.8324 36.7815 59.7444 36.7815 59.6404V53.7964C36.7815 53.6844 36.8135 53.5964 36.8775 53.5324C36.9495 53.4684 37.0375 53.4364 37.1415 53.4364C37.2535 53.4364 37.3415 53.4684 37.4055 53.5324C37.4695 53.5964 37.5015 53.6844 37.5015 53.7964V59.6404C37.5015 59.7444 37.4695 59.8324 37.4055 59.9044C37.3415 59.9684 37.2535 60.0004 37.1415 60.0004ZM37.1295 52.0564C36.9775 52.0564 36.8455 52.0044 36.7335 51.9004C36.6295 51.7884 36.5775 51.6524 36.5775 51.4924C36.5775 51.3084 36.6335 51.1724 36.7455 51.0844C36.8655 50.9884 36.9975 50.9404 37.1415 50.9404C37.2775 50.9404 37.4015 50.9884 37.5135 51.0844C37.6335 51.1724 37.6935 51.3084 37.6935 51.4924C37.6935 51.6524 37.6375 51.7884 37.5255 51.9004C37.4215 52.0044 37.2895 52.0564 37.1295 52.0564Z"
		  fill="white"/>
	<path d="M44.8608 60.0004C44.7568 60.0004 44.6688 59.9684 44.5968 59.9044C44.5328 59.8324 44.5008 59.7444 44.5008 59.6404V56.4124C44.5008 55.8844 44.3968 55.4484 44.1888 55.1044C43.9888 54.7604 43.7128 54.5044 43.3608 54.3364C43.0168 54.1604 42.6248 54.0724 42.1848 54.0724C41.7528 54.0724 41.3648 54.1564 41.0208 54.3244C40.6768 54.4844 40.4048 54.7084 40.2048 54.9964C40.0048 55.2844 39.9048 55.6084 39.9048 55.9684H39.3048C39.3368 55.4724 39.4848 55.0284 39.7488 54.6364C40.0128 54.2364 40.3568 53.9244 40.7808 53.7004C41.2048 53.4684 41.6728 53.3524 42.1848 53.3524C42.7608 53.3524 43.2768 53.4724 43.7328 53.7124C44.1968 53.9444 44.5608 54.2884 44.8248 54.7444C45.0888 55.1924 45.2208 55.7484 45.2208 56.4124V59.6404C45.2208 59.7444 45.1848 59.8324 45.1128 59.9044C45.0488 59.9684 44.9648 60.0004 44.8608 60.0004ZM39.5448 60.0004C39.4408 60.0004 39.3528 59.9684 39.2808 59.9044C39.2168 59.8324 39.1848 59.7444 39.1848 59.6404V53.7964C39.1848 53.6844 39.2168 53.5964 39.2808 53.5324C39.3528 53.4684 39.4408 53.4364 39.5448 53.4364C39.6568 53.4364 39.7448 53.4684 39.8088 53.5324C39.8728 53.5964 39.9048 53.6844 39.9048 53.7964V59.6404C39.9048 59.7444 39.8728 59.8324 39.8088 59.9044C39.7448 59.9684 39.6568 60.0004 39.5448 60.0004Z"
		  fill="white"/>
	<path d="M55.575 60.0004C55.471 60.0004 55.383 59.9684 55.311 59.9044C55.247 59.8324 55.215 59.7444 55.215 59.6404V56.1724C55.215 55.5564 55.051 55.0524 54.723 54.6604C54.403 54.2684 53.983 54.0724 53.463 54.0724C52.911 54.0724 52.459 54.2564 52.107 54.6244C51.763 54.9844 51.599 55.4724 51.615 56.0884H50.895C50.911 55.5364 51.031 55.0564 51.255 54.6484C51.479 54.2404 51.783 53.9244 52.167 53.7004C52.551 53.4684 52.983 53.3524 53.463 53.3524C53.951 53.3524 54.379 53.4724 54.747 53.7124C55.115 53.9524 55.403 54.2844 55.611 54.7084C55.827 55.1324 55.935 55.6204 55.935 56.1724V59.6404C55.935 59.7444 55.903 59.8324 55.839 59.9044C55.775 59.9684 55.687 60.0004 55.575 60.0004ZM46.899 60.0004C46.795 60.0004 46.707 59.9684 46.635 59.9044C46.571 59.8324 46.539 59.7444 46.539 59.6404V53.7964C46.539 53.6844 46.571 53.5964 46.635 53.5324C46.707 53.4684 46.795 53.4364 46.899 53.4364C47.011 53.4364 47.099 53.4684 47.163 53.5324C47.227 53.5964 47.259 53.6844 47.259 53.7964V59.6404C47.259 59.7444 47.227 59.8324 47.163 59.9044C47.099 59.9684 47.011 60.0004 46.899 60.0004ZM51.255 60.0004C51.151 60.0004 51.063 59.9684 50.991 59.9044C50.927 59.8324 50.895 59.7444 50.895 59.6404V56.1724C50.895 55.5564 50.731 55.0524 50.403 54.6604C50.083 54.2684 49.663 54.0724 49.143 54.0724C48.591 54.0724 48.139 54.2484 47.787 54.6004C47.435 54.9524 47.259 55.4084 47.259 55.9684H46.659C46.683 55.4564 46.803 55.0044 47.019 54.6124C47.243 54.2204 47.539 53.9124 47.907 53.6884C48.275 53.4644 48.687 53.3524 49.143 53.3524C49.631 53.3524 50.059 53.4724 50.427 53.7124C50.795 53.9524 51.083 54.2844 51.291 54.7084C51.507 55.1324 51.615 55.6204 51.615 56.1724V59.6404C51.615 59.7444 51.583 59.8324 51.519 59.9044C51.455 59.9684 51.367 60.0004 51.255 60.0004Z"
		  fill="white"/>
	<path d="M60.1605 60.0604C59.5285 60.0604 58.9645 59.9204 58.4685 59.6404C57.9805 59.3524 57.5965 58.9564 57.3165 58.4524C57.0365 57.9484 56.8965 57.3724 56.8965 56.7244C56.8965 56.0684 57.0285 55.4924 57.2925 54.9964C57.5565 54.4924 57.9205 54.0964 58.3845 53.8084C58.8485 53.5204 59.3805 53.3764 59.9805 53.3764C60.5725 53.3764 61.0965 53.5164 61.5525 53.7964C62.0085 54.0684 62.3645 54.4484 62.6205 54.9364C62.8765 55.4164 63.0045 55.9724 63.0045 56.6044C63.0045 56.7084 62.9725 56.7924 62.9085 56.8564C62.8445 56.9124 62.7605 56.9404 62.6565 56.9404H57.3765V56.3164H62.8485L62.3205 56.7124C62.3365 56.1924 62.2485 55.7324 62.0565 55.3324C61.8645 54.9324 61.5885 54.6204 61.2285 54.3964C60.8765 54.1644 60.4605 54.0484 59.9805 54.0484C59.5245 54.0484 59.1165 54.1644 58.7565 54.3964C58.4045 54.6204 58.1245 54.9324 57.9165 55.3324C57.7165 55.7324 57.6165 56.1964 57.6165 56.7244C57.6165 57.2444 57.7245 57.7044 57.9405 58.1044C58.1565 58.5044 58.4565 58.8204 58.8405 59.0524C59.2245 59.2764 59.6645 59.3884 60.1605 59.3884C60.4725 59.3884 60.7845 59.3364 61.0965 59.2324C61.4165 59.1204 61.6685 58.9764 61.8525 58.8004C61.9165 58.7364 61.9925 58.7044 62.0805 58.7044C62.1765 58.6964 62.2565 58.7204 62.3205 58.7764C62.4085 58.8484 62.4525 58.9284 62.4525 59.0164C62.4605 59.1044 62.4245 59.1844 62.3445 59.2564C62.0885 59.4884 61.7525 59.6804 61.3365 59.8324C60.9285 59.9844 60.5365 60.0604 60.1605 60.0604Z"
		  fill="white"/>
	<path d="M69.525 60.0004C69.421 60.0004 69.333 59.9684 69.261 59.9044C69.197 59.8324 69.165 59.7444 69.165 59.6404V56.4124C69.165 55.8844 69.061 55.4484 68.853 55.1044C68.653 54.7604 68.377 54.5044 68.025 54.3364C67.681 54.1604 67.289 54.0724 66.849 54.0724C66.417 54.0724 66.029 54.1564 65.685 54.3244C65.341 54.4844 65.069 54.7084 64.869 54.9964C64.669 55.2844 64.569 55.6084 64.569 55.9684H63.969C64.001 55.4724 64.149 55.0284 64.413 54.6364C64.677 54.2364 65.021 53.9244 65.445 53.7004C65.869 53.4684 66.337 53.3524 66.849 53.3524C67.425 53.3524 67.941 53.4724 68.397 53.7124C68.861 53.9444 69.225 54.2884 69.489 54.7444C69.753 55.1924 69.885 55.7484 69.885 56.4124V59.6404C69.885 59.7444 69.849 59.8324 69.777 59.9044C69.713 59.9684 69.629 60.0004 69.525 60.0004ZM64.209 60.0004C64.105 60.0004 64.017 59.9684 63.945 59.9044C63.881 59.8324 63.849 59.7444 63.849 59.6404V53.7964C63.849 53.6844 63.881 53.5964 63.945 53.5324C64.017 53.4684 64.105 53.4364 64.209 53.4364C64.321 53.4364 64.409 53.4684 64.473 53.5324C64.537 53.5964 64.569 53.6844 64.569 53.7964V59.6404C64.569 59.7444 64.537 59.8324 64.473 59.9044C64.409 59.9684 64.321 60.0004 64.209 60.0004Z"
		  fill="white"/>
	<path d="M73.8912 60.0004C73.4512 59.9924 73.0592 59.8924 72.7152 59.7004C72.3712 59.5004 72.1032 59.2284 71.9112 58.8844C71.7192 58.5324 71.6232 58.1364 71.6232 57.6964V51.7204C71.6232 51.6084 71.6552 51.5204 71.7192 51.4564C71.7912 51.3844 71.8792 51.3484 71.9832 51.3484C72.0952 51.3484 72.1832 51.3844 72.2472 51.4564C72.3192 51.5204 72.3552 51.6084 72.3552 51.7204V57.6964C72.3552 58.1604 72.4992 58.5404 72.7872 58.8364C73.0752 59.1244 73.4472 59.2684 73.9032 59.2684H74.1672C74.2792 59.2684 74.3672 59.3044 74.4312 59.3764C74.5032 59.4404 74.5392 59.5284 74.5392 59.6404C74.5392 59.7444 74.5032 59.8324 74.4312 59.9044C74.3672 59.9684 74.2792 60.0004 74.1672 60.0004H73.8912ZM70.6872 54.3244C70.5912 54.3244 70.5112 54.2964 70.4472 54.2404C70.3912 54.1764 70.3632 54.0964 70.3632 54.0004C70.3632 53.9044 70.3912 53.8284 70.4472 53.7724C70.5112 53.7084 70.5912 53.6764 70.6872 53.6764H73.9392C74.0352 53.6764 74.1112 53.7084 74.1672 53.7724C74.2312 53.8284 74.2632 53.9044 74.2632 54.0004C74.2632 54.0964 74.2312 54.1764 74.1672 54.2404C74.1112 54.2964 74.0352 54.3244 73.9392 54.3244H70.6872Z"
		  fill="white"/>
</svg>
