<svg width="80" height="80" viewBox="0 0 80 80" fill="none" xmlns="http://www.w3.org/2000/svg">
	<path d="M0 10C0 4.47715 4.47715 0 10 0H70C75.5228 0 80 4.47715 80 10V70C80 75.5228 75.5228 80 70 80H10C4.47715 80 0 75.5228 0 70V10Z"
		  fill="#F66A21"/>
	<path fill-rule="evenodd" clip-rule="evenodd"
		  d="M69.1899 17.669C70.1274 17.6112 70.6622 18.8303 70.0393 19.6052L64.4947 26.5031C63.8454 27.3109 62.6353 26.7945 62.6481 25.715L62.681 22.9163C62.6854 22.5496 62.5329 22.2021 62.2695 21.9782L60.2594 20.2699C59.4841 19.611 59.8679 18.244 60.8451 18.1837L69.1899 17.669ZM25.0719 35.7833C25.0719 42.3911 19.6705 47.7457 13.0144 47.7457C11.3465 47.7457 10 46.4014 10 44.7532C10 43.1051 11.3465 41.7683 13.0144 41.7683C16.3425 41.7683 19.0432 39.0872 19.0432 35.7833V26.8133C19.0432 25.1576 20.3897 23.8208 22.0575 23.8208C23.7254 23.8208 25.0719 25.1576 25.0719 26.8133V35.7833ZM57.5722 35.7833C57.5722 39.0872 60.2729 41.7683 63.601 41.7683C65.2689 41.7683 66.6154 43.0975 66.6154 44.7532C66.6154 46.409 65.2689 47.7457 63.601 47.7457C56.9449 47.7457 51.5435 42.3911 51.5435 35.7833V26.8133C51.5435 25.1576 52.89 23.8208 54.5578 23.8208C56.2257 23.8208 57.5722 25.1652 57.5722 26.8133V29.4945H59.9669C61.6348 29.4945 62.9889 30.8388 62.9889 32.4946C62.9889 34.1503 61.6348 35.4947 59.9669 35.4947H57.5722V35.7833ZM49.8145 31.5908C49.8221 31.5832 49.8298 31.5832 49.8298 31.5832C48.8811 29.1072 47.1061 26.9349 44.6273 25.507C38.8739 22.1955 31.5292 24.1551 28.2165 29.8819C24.896 35.6011 26.8699 42.9152 32.6156 46.2192C36.8465 48.6496 41.9419 48.2243 45.6601 45.5508L45.6372 45.5204C46.494 44.9963 47.0602 44.0545 47.0602 42.9836C47.0602 41.3354 45.7137 39.9987 44.0535 39.9987C43.2501 39.9987 42.5157 40.3101 41.9801 40.8266C40.1745 42.0342 37.7722 42.2241 35.7448 41.1152L47.8865 35.5175C48.5903 35.3048 49.2177 34.8339 49.6079 34.1504C50.0822 33.3377 50.1281 32.4035 49.8145 31.5908ZM41.6205 30.6794C41.9801 30.8844 42.3014 31.1199 42.5998 31.3781L32.608 35.9732C32.585 34.9175 32.8451 33.8466 33.4113 32.8668C35.0715 30.011 38.7439 29.0312 41.6205 30.6794Z"
		  fill="white"/>
	<path d="M22.5554 61.0844C21.8274 61.0844 21.1694 60.9164 20.5814 60.5804C19.9934 60.2444 19.5267 59.7871 19.1814 59.2084C18.8454 58.6297 18.6681 57.9764 18.6494 57.2484V50.4864C18.6494 50.3557 18.6867 50.2531 18.7614 50.1784C18.8454 50.1037 18.9481 50.0664 19.0694 50.0664C19.2001 50.0664 19.3027 50.1037 19.3774 50.1784C19.4521 50.2531 19.4894 50.3557 19.4894 50.4864V54.8544C19.7881 54.3691 20.2034 53.9817 20.7354 53.6924C21.2767 53.4031 21.8834 53.2584 22.5554 53.2584C23.3021 53.2584 23.9694 53.4311 24.5574 53.7764C25.1547 54.1124 25.6214 54.5744 25.9574 55.1624C26.3027 55.7504 26.4754 56.4177 26.4754 57.1644C26.4754 57.9111 26.3027 58.5831 25.9574 59.1804C25.6214 59.7684 25.1547 60.2351 24.5574 60.5804C23.9694 60.9164 23.3021 61.0844 22.5554 61.0844ZM22.5554 60.3004C23.1434 60.3004 23.6661 60.1651 24.1234 59.8944C24.5901 59.6144 24.9587 59.2411 25.2294 58.7744C25.5001 58.2984 25.6354 57.7617 25.6354 57.1644C25.6354 56.5671 25.5001 56.0351 25.2294 55.5684C24.9587 55.1017 24.5901 54.7331 24.1234 54.4624C23.6661 54.1824 23.1434 54.0424 22.5554 54.0424C21.9767 54.0424 21.4541 54.1824 20.9874 54.4624C20.5207 54.7331 20.1521 55.1017 19.8814 55.5684C19.6201 56.0351 19.4894 56.5671 19.4894 57.1644C19.4894 57.7617 19.6201 58.2984 19.8814 58.7744C20.1521 59.2411 20.5207 59.6144 20.9874 59.8944C21.4541 60.1651 21.9767 60.3004 22.5554 60.3004Z"
		  fill="white"/>
	<path d="M29.8352 61.0004C29.4805 61.0004 29.1632 60.9024 28.8832 60.7064C28.6125 60.5104 28.3979 60.2397 28.2392 59.8944C28.0899 59.5491 28.0152 59.1477 28.0152 58.6904V50.4864C28.0152 50.3557 28.0525 50.2531 28.1272 50.1784C28.2112 50.1037 28.3139 50.0664 28.4352 50.0664C28.5659 50.0664 28.6685 50.1037 28.7432 50.1784C28.8179 50.2531 28.8552 50.3557 28.8552 50.4864V58.6904C28.8552 59.1197 28.9439 59.4744 29.1212 59.7544C29.3079 60.0251 29.5459 60.1604 29.8352 60.1604H30.1852C30.2879 60.1604 30.3719 60.1977 30.4372 60.2724C30.5025 60.3471 30.5352 60.4497 30.5352 60.5804C30.5352 60.7017 30.4979 60.8044 30.4232 60.8884C30.3485 60.9631 30.2459 61.0004 30.1152 61.0004H29.8352Z"
		  fill="white"/>
	<path d="M34.8648 61.0844C34.1181 61.0844 33.4461 60.9164 32.8488 60.5804C32.2608 60.2351 31.7941 59.7684 31.4488 59.1804C31.1128 58.5831 30.9448 57.9157 30.9448 57.1784C30.9448 56.4317 31.1128 55.7644 31.4488 55.1764C31.7941 54.5791 32.2608 54.1124 32.8488 53.7764C33.4461 53.4311 34.1181 53.2584 34.8648 53.2584C35.6115 53.2584 36.2788 53.4311 36.8668 53.7764C37.4548 54.1124 37.9168 54.5791 38.2528 55.1764C38.5981 55.7644 38.7708 56.4317 38.7708 57.1784C38.7708 57.9157 38.5981 58.5831 38.2528 59.1804C37.9168 59.7684 37.4548 60.2351 36.8668 60.5804C36.2788 60.9164 35.6115 61.0844 34.8648 61.0844ZM34.8648 60.3004C35.4528 60.3004 35.9755 60.1651 36.4328 59.8944C36.8995 59.6144 37.2635 59.2411 37.5248 58.7744C37.7955 58.2984 37.9308 57.7617 37.9308 57.1644C37.9308 56.5764 37.7955 56.0491 37.5248 55.5824C37.2635 55.1064 36.8995 54.7331 36.4328 54.4624C35.9755 54.1824 35.4528 54.0424 34.8648 54.0424C34.2861 54.0424 33.7635 54.1824 33.2968 54.4624C32.8301 54.7331 32.4615 55.1064 32.1908 55.5824C31.9201 56.0491 31.7848 56.5811 31.7848 57.1784C31.7848 57.7664 31.9201 58.2984 32.1908 58.7744C32.4615 59.2411 32.8301 59.6144 33.2968 59.8944C33.7635 60.1651 34.2861 60.3004 34.8648 60.3004Z"
		  fill="white"/>
	<path d="M43.9748 61.0844C43.2468 61.0844 42.5934 60.9117 42.0148 60.5664C41.4454 60.2211 40.9928 59.7544 40.6568 59.1664C40.3301 58.5784 40.1668 57.9157 40.1668 57.1784C40.1668 56.4317 40.3208 55.7644 40.6288 55.1764C40.9368 54.5884 41.3614 54.1264 41.9028 53.7904C42.4441 53.4451 43.0648 53.2724 43.7648 53.2724C44.3621 53.2724 44.9081 53.3891 45.4028 53.6224C45.8974 53.8464 46.3268 54.1917 46.6908 54.6584C46.7654 54.7517 46.7934 54.8497 46.7748 54.9524C46.7561 55.0551 46.6954 55.1391 46.5928 55.2044C46.5088 55.2697 46.4154 55.2977 46.3128 55.2884C46.2101 55.2697 46.1214 55.2137 46.0468 55.1204C45.4494 54.4111 44.6888 54.0564 43.7648 54.0564C43.2141 54.0564 42.7288 54.1917 42.3088 54.4624C41.8981 54.7331 41.5761 55.1017 41.3428 55.5684C41.1188 56.0351 41.0068 56.5717 41.0068 57.1784C41.0068 57.7664 41.1328 58.2984 41.3848 58.7744C41.6368 59.2411 41.9821 59.6144 42.4208 59.8944C42.8688 60.1651 43.3868 60.3004 43.9748 60.3004C44.3574 60.3004 44.7168 60.2444 45.0528 60.1324C45.3981 60.0204 45.6968 59.8477 45.9488 59.6144C46.0328 59.5397 46.1261 59.4977 46.2288 59.4884C46.3314 59.4791 46.4201 59.5117 46.4948 59.5864C46.5881 59.6704 46.6348 59.7684 46.6348 59.8804C46.6441 59.9831 46.6068 60.0717 46.5228 60.1464C45.8414 60.7717 44.9921 61.0844 43.9748 61.0844Z"
		  fill="white"/>
	<path d="M49.1656 58.6064L48.6616 58.0464L53.7856 53.3844C53.8789 53.3097 53.9676 53.2724 54.0516 53.2724C54.1449 53.2724 54.2336 53.3191 54.3176 53.4124C54.4016 53.5057 54.4436 53.5991 54.4436 53.6924C54.4436 53.7857 54.3969 53.8697 54.3036 53.9444L49.1656 58.6064ZM49.0256 61.0004C48.9042 61.0004 48.8016 60.9631 48.7176 60.8884C48.6429 60.8044 48.6056 60.7017 48.6056 60.5804V50.4864C48.6056 50.3557 48.6429 50.2531 48.7176 50.1784C48.8016 50.1037 48.9042 50.0664 49.0256 50.0664C49.1562 50.0664 49.2589 50.1037 49.3336 50.1784C49.4083 50.2531 49.4456 50.3557 49.4456 50.4864V60.5804C49.4456 60.7017 49.4083 60.8044 49.3336 60.8884C49.2589 60.9631 49.1562 61.0004 49.0256 61.0004ZM54.3316 60.9304C54.2383 61.0144 54.1403 61.0471 54.0376 61.0284C53.9443 61.0191 53.8603 60.9677 53.7856 60.8744L50.4676 56.8144L51.0696 56.3244L54.3876 60.3844C54.4623 60.4777 54.4949 60.5711 54.4856 60.6644C54.4856 60.7577 54.4343 60.8464 54.3316 60.9304Z"
		  fill="white"/>
	<path d="M58.9687 61.0844C58.4833 61.0844 57.9747 60.9957 57.4426 60.8184C56.9106 60.6411 56.4673 60.3424 56.1126 59.9224C56.038 59.8291 56.0053 59.7311 56.0146 59.6284C56.0333 59.5164 56.094 59.4231 56.1966 59.3484C56.29 59.2831 56.388 59.2597 56.4907 59.2784C56.6026 59.2971 56.6913 59.3484 56.7566 59.4324C57.0273 59.7497 57.354 59.9737 57.7366 60.1044C58.1286 60.2257 58.5533 60.2864 59.0107 60.2864C59.7947 60.2864 60.35 60.1464 60.6766 59.8664C61.0033 59.5864 61.1666 59.2597 61.1666 58.8864C61.1666 58.5224 60.9893 58.2237 60.6346 57.9904C60.2893 57.7477 59.7526 57.5751 59.0246 57.4724C58.0913 57.3417 57.4007 57.0897 56.9526 56.7164C56.5047 56.3431 56.2806 55.9091 56.2806 55.4144C56.2806 54.9477 56.3973 54.5557 56.6306 54.2384C56.864 53.9117 57.1813 53.6691 57.5826 53.5104C57.9933 53.3424 58.46 53.2584 58.9826 53.2584C59.6173 53.2584 60.154 53.3751 60.5926 53.6084C61.0313 53.8324 61.386 54.1357 61.6567 54.5184C61.7313 54.6117 61.7547 54.7144 61.7267 54.8264C61.708 54.9291 61.638 55.0131 61.5166 55.0784C61.4233 55.1251 61.3253 55.1391 61.2226 55.1204C61.12 55.1017 61.0313 55.0457 60.9566 54.9524C60.7233 54.6537 60.4386 54.4297 60.1026 54.2804C59.776 54.1217 59.3933 54.0424 58.9546 54.0424C58.3666 54.0424 57.9093 54.1684 57.5826 54.4204C57.256 54.6724 57.0926 54.9757 57.0926 55.3304C57.0926 55.5731 57.158 55.7877 57.2887 55.9744C57.4286 56.1517 57.6526 56.3057 57.9606 56.4364C58.2686 56.5577 58.6793 56.6557 59.1926 56.7304C59.8927 56.8237 60.4433 56.9824 60.8447 57.2064C61.2553 57.4304 61.5447 57.6917 61.7127 57.9904C61.89 58.2797 61.9786 58.5924 61.9786 58.9284C61.9786 59.3671 61.8386 59.7497 61.5586 60.0764C61.2786 60.4031 60.91 60.6551 60.4526 60.8324C59.9953 61.0004 59.5007 61.0844 58.9687 61.0844Z"
		  fill="white"/>
</svg>
