<svg width="80" height="80" viewBox="0 0 80 80" fill="none" xmlns="http://www.w3.org/2000/svg">
	<path d="M0 10C0 4.47715 4.47715 0 10 0H70C75.5228 0 80 4.47715 80 10V70C80 75.5228 75.5228 80 70 80H10C4.47715 80 0 75.5228 0 70V10Z"
		  fill="#FA4C6A"/>
	<path fill-rule="evenodd" clip-rule="evenodd"
		  d="M69.1899 17.669C70.1274 17.6112 70.6622 18.8303 70.0393 19.6052L64.4947 26.5031C63.8454 27.3109 62.6353 26.7945 62.6481 25.715L62.681 22.9163C62.6854 22.5496 62.5329 22.2021 62.2695 21.9782L60.2594 20.2699C59.4841 19.611 59.8679 18.244 60.8451 18.1837L69.1899 17.669ZM25.0719 35.7833C25.0719 42.3911 19.6705 47.7457 13.0144 47.7457C11.3465 47.7457 10 46.4014 10 44.7532C10 43.1051 11.3465 41.7683 13.0144 41.7683C16.3425 41.7683 19.0432 39.0872 19.0432 35.7833V26.8133C19.0432 25.1576 20.3897 23.8208 22.0575 23.8208C23.7254 23.8208 25.0719 25.1576 25.0719 26.8133V35.7833ZM57.5722 35.7833C57.5722 39.0872 60.2729 41.7683 63.601 41.7683C65.2689 41.7683 66.6154 43.0975 66.6154 44.7532C66.6154 46.409 65.2689 47.7457 63.601 47.7457C56.9449 47.7457 51.5435 42.3911 51.5435 35.7833V26.8133C51.5435 25.1576 52.89 23.8208 54.5578 23.8208C56.2257 23.8208 57.5722 25.1652 57.5722 26.8133V29.4945H59.9669C61.6348 29.4945 62.9889 30.8388 62.9889 32.4946C62.9889 34.1503 61.6348 35.4947 59.9669 35.4947H57.5722V35.7833ZM49.8145 31.5908C49.8221 31.5832 49.8298 31.5832 49.8298 31.5832C48.8811 29.1072 47.1061 26.9349 44.6273 25.507C38.8739 22.1955 31.5292 24.1551 28.2165 29.8819C24.896 35.6011 26.8699 42.9152 32.6156 46.2192C36.8465 48.6496 41.9419 48.2243 45.6601 45.5508L45.6372 45.5204C46.494 44.9963 47.0602 44.0545 47.0602 42.9836C47.0602 41.3354 45.7137 39.9987 44.0535 39.9987C43.2501 39.9987 42.5157 40.3101 41.9801 40.8266C40.1745 42.0342 37.7722 42.2241 35.7448 41.1152L47.8865 35.5175C48.5903 35.3048 49.2177 34.8339 49.6079 34.1504C50.0822 33.3377 50.1281 32.4035 49.8145 31.5908ZM41.6205 30.6794C41.9801 30.8844 42.3014 31.1199 42.5998 31.3781L32.608 35.9732C32.585 34.9175 32.8451 33.8466 33.4113 32.8668C35.0715 30.011 38.7439 29.0312 41.6205 30.6794Z"
		  fill="white"/>
	<path d="M29.446 61.0844C28.718 61.0844 28.06 60.9164 27.472 60.5804C26.884 60.2444 26.4174 59.7871 26.072 59.2084C25.736 58.6297 25.5587 57.9764 25.54 57.2484V50.4864C25.54 50.3557 25.5774 50.2531 25.652 50.1784C25.736 50.1037 25.8387 50.0664 25.96 50.0664C26.0907 50.0664 26.1934 50.1037 26.268 50.1784C26.3427 50.2531 26.38 50.3557 26.38 50.4864V54.8544C26.6787 54.3691 27.094 53.9817 27.626 53.6924C28.1674 53.4031 28.774 53.2584 29.446 53.2584C30.1927 53.2584 30.86 53.4311 31.448 53.7764C32.0454 54.1124 32.512 54.5744 32.848 55.1624C33.1934 55.7504 33.366 56.4177 33.366 57.1644C33.366 57.9111 33.1934 58.5831 32.848 59.1804C32.512 59.7684 32.0454 60.2351 31.448 60.5804C30.86 60.9164 30.1927 61.0844 29.446 61.0844ZM29.446 60.3004C30.034 60.3004 30.5567 60.1651 31.014 59.8944C31.4807 59.6144 31.8494 59.2411 32.12 58.7744C32.3907 58.2984 32.526 57.7617 32.526 57.1644C32.526 56.5671 32.3907 56.0351 32.12 55.5684C31.8494 55.1017 31.4807 54.7331 31.014 54.4624C30.5567 54.1824 30.034 54.0424 29.446 54.0424C28.8674 54.0424 28.3447 54.1824 27.878 54.4624C27.4114 54.7331 27.0427 55.1017 26.772 55.5684C26.5107 56.0351 26.38 56.5671 26.38 57.1644C26.38 57.7617 26.5107 58.2984 26.772 58.7744C27.0427 59.2411 27.4114 59.6144 27.878 59.8944C28.3447 60.1651 28.8674 60.3004 29.446 60.3004Z"
		  fill="white"/>
	<path d="M36.7258 61.0004C36.3712 61.0004 36.0538 60.9024 35.7738 60.7064C35.5032 60.5104 35.2885 60.2397 35.1298 59.8944C34.9805 59.5491 34.9058 59.1477 34.9058 58.6904V50.4864C34.9058 50.3557 34.9432 50.2531 35.0178 50.1784C35.1018 50.1037 35.2045 50.0664 35.3258 50.0664C35.4565 50.0664 35.5592 50.1037 35.6338 50.1784C35.7085 50.2531 35.7458 50.3557 35.7458 50.4864V58.6904C35.7458 59.1197 35.8345 59.4744 36.0118 59.7544C36.1985 60.0251 36.4365 60.1604 36.7258 60.1604H37.0758C37.1785 60.1604 37.2625 60.1977 37.3278 60.2724C37.3932 60.3471 37.4258 60.4497 37.4258 60.5804C37.4258 60.7017 37.3885 60.8044 37.3138 60.8884C37.2392 60.9631 37.1365 61.0004 37.0058 61.0004H36.7258Z"
		  fill="white"/>
	<path d="M41.7554 61.0844C41.0088 61.0844 40.3368 60.9164 39.7394 60.5804C39.1514 60.2351 38.6848 59.7684 38.3394 59.1804C38.0034 58.5831 37.8354 57.9157 37.8354 57.1784C37.8354 56.4317 38.0034 55.7644 38.3394 55.1764C38.6848 54.5791 39.1514 54.1124 39.7394 53.7764C40.3368 53.4311 41.0088 53.2584 41.7554 53.2584C42.5021 53.2584 43.1694 53.4311 43.7574 53.7764C44.3454 54.1124 44.8074 54.5791 45.1434 55.1764C45.4888 55.7644 45.6614 56.4317 45.6614 57.1784C45.6614 57.9157 45.4888 58.5831 45.1434 59.1804C44.8074 59.7684 44.3454 60.2351 43.7574 60.5804C43.1694 60.9164 42.5021 61.0844 41.7554 61.0844ZM41.7554 60.3004C42.3434 60.3004 42.8661 60.1651 43.3234 59.8944C43.7901 59.6144 44.1541 59.2411 44.4154 58.7744C44.6861 58.2984 44.8214 57.7617 44.8214 57.1644C44.8214 56.5764 44.6861 56.0491 44.4154 55.5824C44.1541 55.1064 43.7901 54.7331 43.3234 54.4624C42.8661 54.1824 42.3434 54.0424 41.7554 54.0424C41.1768 54.0424 40.6541 54.1824 40.1874 54.4624C39.7208 54.7331 39.3521 55.1064 39.0814 55.5824C38.8108 56.0491 38.6754 56.5811 38.6754 57.1784C38.6754 57.7664 38.8108 58.2984 39.0814 58.7744C39.3521 59.2411 39.7208 59.6144 40.1874 59.8944C40.6541 60.1651 41.1768 60.3004 41.7554 60.3004Z"
		  fill="white"/>
	<path d="M50.9774 61.0844C50.212 61.0844 49.5354 60.9164 48.9474 60.5804C48.3594 60.2444 47.8974 59.7824 47.5614 59.1944C47.2254 58.6064 47.0574 57.9344 47.0574 57.1784C47.0574 56.4131 47.23 55.7364 47.5754 55.1484C47.9207 54.5604 48.3874 54.0984 48.9754 53.7624C49.5727 53.4264 50.24 53.2584 50.9774 53.2584C51.7427 53.2584 52.4147 53.4264 52.9934 53.7624C53.5814 54.0984 54.0434 54.5604 54.3794 55.1484C54.7154 55.7364 54.8834 56.4131 54.8834 57.1784L54.3934 57.7384C54.3934 58.3917 54.2487 58.9704 53.9594 59.4744C53.67 59.9784 53.2687 60.3751 52.7554 60.6644C52.2421 60.9444 51.6494 61.0844 50.9774 61.0844ZM51.0334 63.9264C50.2587 63.9264 49.5961 63.7817 49.0454 63.4924C48.504 63.2031 48.056 62.8344 47.7014 62.3864C47.6267 62.2931 47.5894 62.1951 47.5894 62.0924C47.5894 61.9897 47.636 61.9057 47.7294 61.8404C47.8227 61.7657 47.93 61.7377 48.0514 61.7564C48.182 61.7751 48.2801 61.8357 48.3454 61.9384C48.6347 62.2837 49.0034 62.5684 49.4514 62.7924C49.8994 63.0257 50.4267 63.1424 51.0334 63.1424C51.612 63.1424 52.1254 63.0024 52.5734 62.7224C53.0307 62.4424 53.39 62.0551 53.6514 61.5604C53.9127 61.0751 54.0434 60.5291 54.0434 59.9224V57.6964L54.4214 57.1784H54.8834V59.9224C54.8834 60.6784 54.7154 61.3597 54.3794 61.9664C54.0434 62.5731 53.5861 63.0491 53.0074 63.3944C52.4287 63.7491 51.7707 63.9264 51.0334 63.9264ZM50.9774 60.3004C51.5747 60.3004 52.1021 60.1697 52.5594 59.9084C53.0261 59.6377 53.39 59.2691 53.6514 58.8024C53.9127 58.3264 54.0434 57.7851 54.0434 57.1784C54.0434 56.5624 53.9127 56.0211 53.6514 55.5544C53.39 55.0784 53.0261 54.7097 52.5594 54.4484C52.1021 54.1777 51.5747 54.0424 50.9774 54.0424C50.38 54.0424 49.848 54.1777 49.3814 54.4484C48.9147 54.7097 48.5507 55.0784 48.2894 55.5544C48.028 56.0211 47.8974 56.5624 47.8974 57.1784C47.8974 57.7851 48.028 58.3264 48.2894 58.8024C48.5507 59.2691 48.9147 59.6377 49.3814 59.9084C49.848 60.1697 50.38 60.3004 50.9774 60.3004Z"
		  fill="white"/>
</svg>
