<svg width="80" height="80" viewBox="0 0 80 80" fill="none" xmlns="http://www.w3.org/2000/svg">
	<path d="M0 10C0 4.47715 4.47715 0 10 0H70C75.5228 0 80 4.47715 80 10V70C80 75.5228 75.5228 80 70 80H10C4.47715 80 0 75.5228 0 70V10Z"
		  fill="#506EF8"/>
	<path fill-rule="evenodd" clip-rule="evenodd"
		  d="M69.1899 17.669C70.1274 17.6112 70.6622 18.8303 70.0393 19.6052L64.4947 26.5031C63.8454 27.3109 62.6353 26.7945 62.6481 25.715L62.681 22.9163C62.6854 22.5496 62.5329 22.2021 62.2695 21.9782L60.2594 20.2699C59.4841 19.611 59.8679 18.244 60.8451 18.1837L69.1899 17.669ZM25.0719 35.7833C25.0719 42.3911 19.6705 47.7457 13.0144 47.7457C11.3465 47.7457 10 46.4014 10 44.7532C10 43.1051 11.3465 41.7683 13.0144 41.7683C16.3425 41.7683 19.0432 39.0872 19.0432 35.7833V26.8133C19.0432 25.1576 20.3897 23.8208 22.0575 23.8208C23.7254 23.8208 25.0719 25.1576 25.0719 26.8133V35.7833ZM57.5722 35.7833C57.5722 39.0872 60.2729 41.7683 63.601 41.7683C65.2689 41.7683 66.6154 43.0975 66.6154 44.7532C66.6154 46.409 65.2689 47.7457 63.601 47.7457C56.9449 47.7457 51.5435 42.3911 51.5435 35.7833V26.8133C51.5435 25.1576 52.89 23.8208 54.5578 23.8208C56.2257 23.8208 57.5722 25.1652 57.5722 26.8133V29.4945H59.9669C61.6348 29.4945 62.9889 30.8388 62.9889 32.4946C62.9889 34.1503 61.6348 35.4947 59.9669 35.4947H57.5722V35.7833ZM49.8145 31.5908C49.8221 31.5832 49.8298 31.5832 49.8298 31.5832C48.8811 29.1072 47.1061 26.9349 44.6273 25.507C38.8739 22.1955 31.5292 24.1551 28.2165 29.8819C24.896 35.6011 26.8699 42.9152 32.6156 46.2192C36.8465 48.6496 41.9419 48.2243 45.6601 45.5508L45.6372 45.5204C46.494 44.9963 47.0602 44.0545 47.0602 42.9836C47.0602 41.3354 45.7137 39.9987 44.0535 39.9987C43.2501 39.9987 42.5157 40.3101 41.9801 40.8266C40.1745 42.0342 37.7722 42.2241 35.7448 41.1152L47.8865 35.5175C48.5903 35.3048 49.2177 34.8339 49.6079 34.1504C50.0822 33.3377 50.1281 32.4035 49.8145 31.5908ZM41.6205 30.6794C41.9801 30.8844 42.3014 31.1199 42.5998 31.3781L32.608 35.9732C32.585 34.9175 32.8451 33.8466 33.4113 32.8668C35.0715 30.011 38.7439 29.0312 41.6205 30.6794Z"
		  fill="white"/>
	<path d="M16.5984 61.0844C15.8704 61.0844 15.2124 60.9164 14.6244 60.5804C14.0364 60.2444 13.5697 59.7871 13.2244 59.2084C12.8884 58.6297 12.711 57.9764 12.6924 57.2484V50.4864C12.6924 50.3557 12.7297 50.2531 12.8044 50.1784C12.8884 50.1037 12.991 50.0664 13.1124 50.0664C13.243 50.0664 13.3457 50.1037 13.4204 50.1784C13.495 50.2531 13.5324 50.3557 13.5324 50.4864V54.8544C13.831 54.3691 14.2464 53.9817 14.7784 53.6924C15.3197 53.4031 15.9264 53.2584 16.5984 53.2584C17.345 53.2584 18.0124 53.4311 18.6004 53.7764C19.1977 54.1124 19.6644 54.5744 20.0004 55.1624C20.3457 55.7504 20.5184 56.4177 20.5184 57.1644C20.5184 57.9111 20.3457 58.5831 20.0004 59.1804C19.6644 59.7684 19.1977 60.2351 18.6004 60.5804C18.0124 60.9164 17.345 61.0844 16.5984 61.0844ZM16.5984 60.3004C17.1864 60.3004 17.7091 60.1651 18.1664 59.8944C18.6331 59.6144 19.0017 59.2411 19.2724 58.7744C19.543 58.2984 19.6784 57.7617 19.6784 57.1644C19.6784 56.5671 19.543 56.0351 19.2724 55.5684C19.0017 55.1017 18.6331 54.7331 18.1664 54.4624C17.7091 54.1824 17.1864 54.0424 16.5984 54.0424C16.0197 54.0424 15.497 54.1824 15.0304 54.4624C14.5637 54.7331 14.195 55.1017 13.9244 55.5684C13.663 56.0351 13.5324 56.5671 13.5324 57.1644C13.5324 57.7617 13.663 58.2984 13.9244 58.7744C14.195 59.2411 14.5637 59.6144 15.0304 59.8944C15.497 60.1651 16.0197 60.3004 16.5984 60.3004Z"
		  fill="white"/>
	<path d="M25.8382 61.0844C25.0915 61.0844 24.4195 60.9164 23.8222 60.5804C23.2342 60.2351 22.7675 59.7684 22.4222 59.1804C22.0862 58.5831 21.9182 57.9157 21.9182 57.1784C21.9182 56.4317 22.0862 55.7644 22.4222 55.1764C22.7675 54.5791 23.2342 54.1124 23.8222 53.7764C24.4195 53.4311 25.0915 53.2584 25.8382 53.2584C26.5848 53.2584 27.2522 53.4311 27.8402 53.7764C28.4282 54.1124 28.8902 54.5791 29.2262 55.1764C29.5715 55.7644 29.7442 56.4317 29.7442 57.1784C29.7442 57.9157 29.5715 58.5831 29.2262 59.1804C28.8902 59.7684 28.4282 60.2351 27.8402 60.5804C27.2522 60.9164 26.5848 61.0844 25.8382 61.0844ZM25.8382 60.3004C26.4262 60.3004 26.9488 60.1651 27.4062 59.8944C27.8728 59.6144 28.2368 59.2411 28.4982 58.7744C28.7688 58.2984 28.9042 57.7617 28.9042 57.1644C28.9042 56.5764 28.7688 56.0491 28.4982 55.5824C28.2368 55.1064 27.8728 54.7331 27.4062 54.4624C26.9488 54.1824 26.4262 54.0424 25.8382 54.0424C25.2595 54.0424 24.7368 54.1824 24.2702 54.4624C23.8035 54.7331 23.4348 55.1064 23.1642 55.5824C22.8935 56.0491 22.7582 56.5811 22.7582 57.1784C22.7582 57.7664 22.8935 58.2984 23.1642 58.7744C23.4348 59.2411 23.8035 59.6144 24.2702 59.8944C24.7368 60.1651 25.2595 60.3004 25.8382 60.3004Z"
		  fill="white"/>
	<path d="M35.0601 61.0844C34.3135 61.0844 33.6415 60.9164 33.0441 60.5804C32.4561 60.2351 31.9895 59.7684 31.6441 59.1804C31.3081 58.5831 31.1401 57.9157 31.1401 57.1784C31.1401 56.4317 31.3081 55.7644 31.6441 55.1764C31.9895 54.5791 32.4561 54.1124 33.0441 53.7764C33.6415 53.4311 34.3135 53.2584 35.0601 53.2584C35.8068 53.2584 36.4741 53.4311 37.0621 53.7764C37.6501 54.1124 38.1121 54.5791 38.4481 55.1764C38.7935 55.7644 38.9661 56.4317 38.9661 57.1784C38.9661 57.9157 38.7935 58.5831 38.4481 59.1804C38.1121 59.7684 37.6501 60.2351 37.0621 60.5804C36.4741 60.9164 35.8068 61.0844 35.0601 61.0844ZM35.0601 60.3004C35.6481 60.3004 36.1708 60.1651 36.6281 59.8944C37.0948 59.6144 37.4588 59.2411 37.7201 58.7744C37.9908 58.2984 38.1261 57.7617 38.1261 57.1644C38.1261 56.5764 37.9908 56.0491 37.7201 55.5824C37.4588 55.1064 37.0948 54.7331 36.6281 54.4624C36.1708 54.1824 35.6481 54.0424 35.0601 54.0424C34.4815 54.0424 33.9588 54.1824 33.4921 54.4624C33.0254 54.7331 32.6568 55.1064 32.3861 55.5824C32.1155 56.0491 31.9801 56.5811 31.9801 57.1784C31.9801 57.7664 32.1155 58.2984 32.3861 58.7744C32.6568 59.2411 33.0254 59.6144 33.4921 59.8944C33.9588 60.1651 34.4815 60.3004 35.0601 60.3004Z"
		  fill="white"/>
	<path d="M41.3421 58.6064L40.8381 58.0464L45.9621 53.3844C46.0554 53.3097 46.1441 53.2724 46.2281 53.2724C46.3214 53.2724 46.4101 53.3191 46.4941 53.4124C46.5781 53.5057 46.6201 53.5991 46.6201 53.6924C46.6201 53.7857 46.5734 53.8697 46.4801 53.9444L41.3421 58.6064ZM41.2021 61.0004C41.0807 61.0004 40.9781 60.9631 40.8941 60.8884C40.8194 60.8044 40.7821 60.7017 40.7821 60.5804V50.4864C40.7821 50.3557 40.8194 50.2531 40.8941 50.1784C40.9781 50.1037 41.0807 50.0664 41.2021 50.0664C41.3327 50.0664 41.4354 50.1037 41.5101 50.1784C41.5847 50.2531 41.6221 50.3557 41.6221 50.4864V60.5804C41.6221 60.7017 41.5847 60.8044 41.5101 60.8884C41.4354 60.9631 41.3327 61.0004 41.2021 61.0004ZM46.5081 60.9304C46.4147 61.0144 46.3167 61.0471 46.2141 61.0284C46.1207 61.0191 46.0367 60.9677 45.9621 60.8744L42.6441 56.8144L43.2461 56.3244L46.5641 60.3844C46.6387 60.4777 46.6714 60.5711 46.6621 60.6644C46.6621 60.7577 46.6107 60.8464 46.5081 60.9304Z"
		  fill="white"/>
	<path d="M49.2411 61.0004C49.1198 61.0004 49.0171 60.9631 48.9331 60.8884C48.8585 60.8044 48.8211 60.7017 48.8211 60.5804V53.7624C48.8211 53.6317 48.8585 53.5291 48.9331 53.4544C49.0171 53.3797 49.1198 53.3424 49.2411 53.3424C49.3718 53.3424 49.4745 53.3797 49.5491 53.4544C49.6238 53.5291 49.6611 53.6317 49.6611 53.7624V60.5804C49.6611 60.7017 49.6238 60.8044 49.5491 60.8884C49.4745 60.9631 49.3718 61.0004 49.2411 61.0004ZM49.2271 51.7324C49.0498 51.7324 48.8958 51.6717 48.7651 51.5504C48.6438 51.4197 48.5831 51.2611 48.5831 51.0744C48.5831 50.8597 48.6485 50.7011 48.7791 50.5984C48.9191 50.4864 49.0731 50.4304 49.2411 50.4304C49.3998 50.4304 49.5445 50.4864 49.6751 50.5984C49.8151 50.7011 49.8851 50.8597 49.8851 51.0744C49.8851 51.2611 49.8198 51.4197 49.6891 51.5504C49.5678 51.6717 49.4138 51.7324 49.2271 51.7324Z"
		  fill="white"/>
	<path d="M58.807 61.0004C58.6856 61.0004 58.583 60.9631 58.499 60.8884C58.4243 60.8044 58.387 60.7017 58.387 60.5804V56.8144C58.387 56.1984 58.2656 55.6897 58.023 55.2884C57.7896 54.8871 57.4676 54.5884 57.057 54.3924C56.6556 54.1871 56.1983 54.0844 55.685 54.0844C55.181 54.0844 54.7283 54.1824 54.327 54.3784C53.9256 54.5651 53.6083 54.8264 53.375 55.1624C53.1416 55.4984 53.025 55.8764 53.025 56.2964H52.325C52.3623 55.7177 52.535 55.1997 52.843 54.7424C53.151 54.2757 53.5523 53.9117 54.047 53.6504C54.5416 53.3797 55.0876 53.2444 55.685 53.2444C56.357 53.2444 56.959 53.3844 57.491 53.6644C58.0323 53.9351 58.457 54.3364 58.765 54.8684C59.073 55.3911 59.227 56.0397 59.227 56.8144V60.5804C59.227 60.7017 59.185 60.8044 59.101 60.8884C59.0263 60.9631 58.9283 61.0004 58.807 61.0004ZM52.605 61.0004C52.4836 61.0004 52.381 60.9631 52.297 60.8884C52.2223 60.8044 52.185 60.7017 52.185 60.5804V53.7624C52.185 53.6317 52.2223 53.5291 52.297 53.4544C52.381 53.3797 52.4836 53.3424 52.605 53.3424C52.7356 53.3424 52.8383 53.3797 52.913 53.4544C52.9876 53.5291 53.025 53.6317 53.025 53.7624V60.5804C53.025 60.7017 52.9876 60.8044 52.913 60.8884C52.8383 60.9631 52.7356 61.0004 52.605 61.0004Z"
		  fill="white"/>
	<path d="M64.8249 61.0844C64.0595 61.0844 63.3829 60.9164 62.7949 60.5804C62.2069 60.2444 61.7449 59.7824 61.4089 59.1944C61.0729 58.6064 60.9049 57.9344 60.9049 57.1784C60.9049 56.4131 61.0776 55.7364 61.4229 55.1484C61.7682 54.5604 62.2349 54.0984 62.8229 53.7624C63.4202 53.4264 64.0875 53.2584 64.8249 53.2584C65.5902 53.2584 66.2622 53.4264 66.8409 53.7624C67.4289 54.0984 67.8909 54.5604 68.2269 55.1484C68.5629 55.7364 68.7309 56.4131 68.7309 57.1784L68.2409 57.7384C68.2409 58.3917 68.0962 58.9704 67.8069 59.4744C67.5176 59.9784 67.1162 60.3751 66.6029 60.6644C66.0896 60.9444 65.4969 61.0844 64.8249 61.0844ZM64.8809 63.9264C64.1062 63.9264 63.4436 63.7817 62.8929 63.4924C62.3516 63.2031 61.9036 62.8344 61.5489 62.3864C61.4742 62.2931 61.4369 62.1951 61.4369 62.0924C61.4369 61.9897 61.4836 61.9057 61.5769 61.8404C61.6702 61.7657 61.7775 61.7377 61.8989 61.7564C62.0295 61.7751 62.1275 61.8357 62.1929 61.9384C62.4822 62.2837 62.8509 62.5684 63.2989 62.7924C63.7469 63.0257 64.2742 63.1424 64.8809 63.1424C65.4596 63.1424 65.9729 63.0024 66.4209 62.7224C66.8782 62.4424 67.2376 62.0551 67.4989 61.5604C67.7602 61.0751 67.8909 60.5291 67.8909 59.9224V57.6964L68.2689 57.1784H68.7309V59.9224C68.7309 60.6784 68.5629 61.3597 68.2269 61.9664C67.8909 62.5731 67.4336 63.0491 66.8549 63.3944C66.2762 63.7491 65.6182 63.9264 64.8809 63.9264ZM64.8249 60.3004C65.4222 60.3004 65.9496 60.1697 66.4069 59.9084C66.8736 59.6377 67.2376 59.2691 67.4989 58.8024C67.7602 58.3264 67.8909 57.7851 67.8909 57.1784C67.8909 56.5624 67.7602 56.0211 67.4989 55.5544C67.2376 55.0784 66.8736 54.7097 66.4069 54.4484C65.9496 54.1777 65.4222 54.0424 64.8249 54.0424C64.2276 54.0424 63.6956 54.1777 63.2289 54.4484C62.7622 54.7097 62.3982 55.0784 62.1369 55.5544C61.8755 56.0211 61.7449 56.5624 61.7449 57.1784C61.7449 57.7851 61.8755 58.3264 62.1369 58.8024C62.3982 59.2691 62.7622 59.6377 63.2289 59.9084C63.6956 60.1697 64.2276 60.3004 64.8249 60.3004Z"
		  fill="white"/>
</svg>
