<svg width="80" height="80" viewBox="0 0 80 80" fill="none" xmlns="http://www.w3.org/2000/svg">
	<path d="M0 10C0 4.47715 4.47715 0 10 0H70C75.5228 0 80 4.47715 80 10V70C80 75.5228 75.5228 80 70 80H10C4.47715 80 0 75.5228 0 70V10Z"
		  fill="#2588F3"/>
	<path fill-rule="evenodd" clip-rule="evenodd"
		  d="M69.1899 12.669C70.1274 12.6112 70.6622 13.8303 70.0393 14.6052L64.4947 21.5031C63.8454 22.3109 62.6353 21.7945 62.6481 20.715L62.681 17.9163C62.6854 17.5496 62.5329 17.2021 62.2695 16.9782L60.2594 15.2699C59.4841 14.611 59.8679 13.244 60.8451 13.1837L69.1899 12.669ZM25.0719 30.7833C25.0719 37.3911 19.6705 42.7457 13.0144 42.7457C11.3465 42.7457 10 41.4014 10 39.7532C10 38.1051 11.3465 36.7683 13.0144 36.7683C16.3425 36.7683 19.0432 34.0872 19.0432 30.7833V21.8133C19.0432 20.1576 20.3897 18.8208 22.0575 18.8208C23.7254 18.8208 25.0719 20.1576 25.0719 21.8133V30.7833ZM57.5722 30.7833C57.5722 34.0872 60.2729 36.7683 63.601 36.7683C65.2689 36.7683 66.6154 38.0975 66.6154 39.7532C66.6154 41.409 65.2689 42.7457 63.601 42.7457C56.9449 42.7457 51.5435 37.3911 51.5435 30.7833V21.8133C51.5435 20.1576 52.89 18.8208 54.5578 18.8208C56.2257 18.8208 57.5722 20.1652 57.5722 21.8133V24.4945H59.9669C61.6348 24.4945 62.9889 25.8388 62.9889 27.4946C62.9889 29.1503 61.6348 30.4947 59.9669 30.4947H57.5722V30.7833ZM49.8145 26.5908C49.8221 26.5832 49.8298 26.5832 49.8298 26.5832C48.8811 24.1072 47.1061 21.9349 44.6273 20.507C38.8739 17.1955 31.5292 19.1551 28.2165 24.8819C24.896 30.6011 26.8699 37.9152 32.6156 41.2192C36.8465 43.6496 41.9419 43.2243 45.6601 40.5508L45.6372 40.5204C46.494 39.9963 47.0602 39.0545 47.0602 37.9836C47.0602 36.3354 45.7137 34.9987 44.0535 34.9987C43.2501 34.9987 42.5157 35.3101 41.9801 35.8266C40.1745 37.0342 37.7722 37.2241 35.7448 36.1152L47.8865 30.5175C48.5903 30.3048 49.2177 29.8339 49.6079 29.1504C50.0822 28.3377 50.1281 27.4035 49.8145 26.5908ZM41.6205 25.6794C41.9801 25.8844 42.3014 26.1199 42.5998 26.3781L32.608 30.9732C32.585 29.9175 32.8451 28.8466 33.4113 27.8668C35.0715 25.011 38.7439 24.0312 41.6205 25.6794Z"
		  fill="white"/>
	<path d="M13.6478 56.0841C12.9198 56.0841 12.2665 55.9115 11.6878 55.5661C11.1185 55.2208 10.6658 54.7541 10.3298 54.1661C10.0032 53.5781 9.83984 52.9155 9.83984 52.1781C9.83984 51.4315 9.99384 50.7641 10.3018 50.1761C10.6098 49.5881 11.0345 49.1261 11.5758 48.7901C12.1172 48.4448 12.7378 48.2721 13.4378 48.2721C14.0352 48.2721 14.5812 48.3888 15.0758 48.6221C15.5705 48.8461 15.9998 49.1915 16.3638 49.6581C16.4385 49.7515 16.4665 49.8495 16.4478 49.9521C16.4292 50.0548 16.3685 50.1388 16.2658 50.2041C16.1818 50.2695 16.0885 50.2975 15.9858 50.2881C15.8832 50.2695 15.7945 50.2135 15.7198 50.1201C15.1225 49.4108 14.3618 49.0561 13.4378 49.0561C12.8872 49.0561 12.4018 49.1915 11.9818 49.4621C11.5712 49.7328 11.2492 50.1015 11.0158 50.5681C10.7918 51.0348 10.6798 51.5715 10.6798 52.1781C10.6798 52.7661 10.8058 53.2981 11.0578 53.7741C11.3098 54.2408 11.6552 54.6141 12.0938 54.8941C12.5418 55.1648 13.0598 55.3001 13.6478 55.3001C14.0305 55.3001 14.3898 55.2441 14.7258 55.1321C15.0712 55.0201 15.3698 54.8475 15.6218 54.6141C15.7058 54.5395 15.7992 54.4975 15.9018 54.4881C16.0045 54.4788 16.0932 54.5115 16.1678 54.5861C16.2612 54.6701 16.3078 54.7681 16.3078 54.8801C16.3172 54.9828 16.2798 55.0715 16.1958 55.1461C15.5145 55.7715 14.6652 56.0841 13.6478 56.0841Z"
		  fill="white"/>
	<path d="M21.4987 56.0841C20.752 56.0841 20.08 55.9161 19.4827 55.5801C18.8947 55.2348 18.428 54.7681 18.0827 54.1801C17.7467 53.5828 17.5787 52.9155 17.5787 52.1781C17.5787 51.4315 17.7467 50.7641 18.0827 50.1761C18.428 49.5788 18.8947 49.1121 19.4827 48.7761C20.08 48.4308 20.752 48.2581 21.4987 48.2581C22.2453 48.2581 22.9127 48.4308 23.5007 48.7761C24.0887 49.1121 24.5507 49.5788 24.8867 50.1761C25.232 50.7641 25.4047 51.4315 25.4047 52.1781C25.4047 52.9155 25.232 53.5828 24.8867 54.1801C24.5507 54.7681 24.0887 55.2348 23.5007 55.5801C22.9127 55.9161 22.2453 56.0841 21.4987 56.0841ZM21.4987 55.3001C22.0867 55.3001 22.6093 55.1648 23.0667 54.8941C23.5333 54.6141 23.8973 54.2408 24.1587 53.7741C24.4293 53.2981 24.5647 52.7615 24.5647 52.1641C24.5647 51.5761 24.4293 51.0488 24.1587 50.5821C23.8973 50.1061 23.5333 49.7328 23.0667 49.4621C22.6093 49.1821 22.0867 49.0421 21.4987 49.0421C20.92 49.0421 20.3973 49.1821 19.9307 49.4621C19.464 49.7328 19.0953 50.1061 18.8247 50.5821C18.554 51.0488 18.4187 51.5808 18.4187 52.1781C18.4187 52.7661 18.554 53.2981 18.8247 53.7741C19.0953 54.2408 19.464 54.6141 19.9307 54.8941C20.3973 55.1648 20.92 55.3001 21.4987 55.3001Z"
		  fill="white"/>
	<path d="M37.4826 56.0001C37.3613 56.0001 37.2586 55.9628 37.1746 55.8881C37.1 55.8041 37.0626 55.7015 37.0626 55.5801V51.5341C37.0626 50.8155 36.8713 50.2275 36.4886 49.7701C36.1153 49.3128 35.6253 49.0841 35.0186 49.0841C34.3746 49.0841 33.8473 49.2988 33.4366 49.7281C33.0353 50.1481 32.844 50.7175 32.8626 51.4361H32.0226C32.0413 50.7921 32.1813 50.2321 32.4426 49.7561C32.704 49.2801 33.0586 48.9115 33.5066 48.6501C33.9546 48.3795 34.4586 48.2441 35.0186 48.2441C35.588 48.2441 36.0873 48.3841 36.5166 48.6641C36.946 48.9441 37.282 49.3315 37.5246 49.8261C37.7766 50.3208 37.9026 50.8901 37.9026 51.5341V55.5801C37.9026 55.7015 37.8653 55.8041 37.7906 55.8881C37.716 55.9628 37.6133 56.0001 37.4826 56.0001ZM27.3606 56.0001C27.2393 56.0001 27.1366 55.9628 27.0526 55.8881C26.978 55.8041 26.9406 55.7015 26.9406 55.5801V48.7621C26.9406 48.6315 26.978 48.5288 27.0526 48.4541C27.1366 48.3795 27.2393 48.3421 27.3606 48.3421C27.4913 48.3421 27.594 48.3795 27.6686 48.4541C27.7433 48.5288 27.7806 48.6315 27.7806 48.7621V55.5801C27.7806 55.7015 27.7433 55.8041 27.6686 55.8881C27.594 55.9628 27.4913 56.0001 27.3606 56.0001ZM32.4426 56.0001C32.3213 56.0001 32.2186 55.9628 32.1346 55.8881C32.06 55.8041 32.0226 55.7015 32.0226 55.5801V51.5341C32.0226 50.8155 31.8313 50.2275 31.4486 49.7701C31.0753 49.3128 30.5853 49.0841 29.9786 49.0841C29.3346 49.0841 28.8073 49.2895 28.3966 49.7001C27.986 50.1108 27.7806 50.6428 27.7806 51.2961H27.0806C27.1086 50.6988 27.2486 50.1715 27.5006 49.7141C27.762 49.2568 28.1073 48.8975 28.5366 48.6361C28.966 48.3748 29.4466 48.2441 29.9786 48.2441C30.548 48.2441 31.0473 48.3841 31.4766 48.6641C31.906 48.9441 32.242 49.3315 32.4846 49.8261C32.7366 50.3208 32.8626 50.8901 32.8626 51.5341V55.5801C32.8626 55.7015 32.8253 55.8041 32.7506 55.8881C32.676 55.9628 32.5733 56.0001 32.4426 56.0001Z"
		  fill="white"/>
	<path d="M40.1444 59.2761C40.023 59.2761 39.9204 59.2341 39.8364 59.1501C39.7617 59.0755 39.7244 58.9775 39.7244 58.8561V52.0941C39.743 51.3568 39.9204 50.7035 40.2564 50.1341C40.6017 49.5555 41.0684 49.0981 41.6564 48.7621C42.2444 48.4261 42.9024 48.2581 43.6304 48.2581C44.377 48.2581 45.0444 48.4308 45.6324 48.7761C46.2297 49.1121 46.6964 49.5788 47.0324 50.1761C47.3777 50.7641 47.5504 51.4315 47.5504 52.1781C47.5504 52.9155 47.3777 53.5828 47.0324 54.1801C46.6964 54.7681 46.2297 55.2348 45.6324 55.5801C45.0444 55.9161 44.377 56.0841 43.6304 56.0841C42.9584 56.0841 42.3517 55.9395 41.8104 55.6501C41.2784 55.3608 40.863 54.9735 40.5644 54.4881V58.8561C40.5644 58.9775 40.527 59.0755 40.4524 59.1501C40.3777 59.2341 40.275 59.2761 40.1444 59.2761ZM43.6304 55.3001C44.2184 55.3001 44.741 55.1648 45.1984 54.8941C45.665 54.6141 46.0337 54.2408 46.3044 53.7741C46.575 53.2981 46.7104 52.7661 46.7104 52.1781C46.7104 51.5808 46.575 51.0488 46.3044 50.5821C46.0337 50.1061 45.665 49.7328 45.1984 49.4621C44.741 49.1821 44.2184 49.0421 43.6304 49.0421C43.0517 49.0421 42.529 49.1821 42.0624 49.4621C41.5957 49.7328 41.227 50.1061 40.9564 50.5821C40.695 51.0488 40.5644 51.5808 40.5644 52.1781C40.5644 52.7661 40.695 53.2981 40.9564 53.7741C41.227 54.2408 41.5957 54.6141 42.0624 54.8941C42.529 55.1648 43.0517 55.3001 43.6304 55.3001Z"
		  fill="white"/>
	<path d="M52.5902 56.0841C51.8435 56.0841 51.1715 55.9161 50.5742 55.5801C49.9862 55.2348 49.5195 54.7681 49.1742 54.1801C48.8382 53.5828 48.6702 52.9155 48.6702 52.1781C48.6702 51.4315 48.8382 50.7641 49.1742 50.1761C49.5195 49.5788 49.9862 49.1121 50.5742 48.7761C51.1715 48.4308 51.8435 48.2581 52.5902 48.2581C53.3368 48.2581 54.0042 48.4308 54.5922 48.7761C55.1802 49.1121 55.6422 49.5788 55.9782 50.1761C56.3235 50.7641 56.4962 51.4315 56.4962 52.1781L56.1462 52.7381C56.1462 53.3728 55.9875 53.9421 55.6702 54.4461C55.3622 54.9501 54.9422 55.3515 54.4102 55.6501C53.8782 55.9395 53.2715 56.0841 52.5902 56.0841ZM52.5902 55.3001C53.1782 55.3001 53.7008 55.1648 54.1582 54.8941C54.6248 54.6141 54.9888 54.2408 55.2502 53.7741C55.5208 53.2981 55.6562 52.7661 55.6562 52.1781C55.6562 51.5808 55.5208 51.0488 55.2502 50.5821C54.9888 50.1061 54.6248 49.7328 54.1582 49.4621C53.7008 49.1821 53.1782 49.0421 52.5902 49.0421C52.0115 49.0421 51.4888 49.1821 51.0222 49.4621C50.5555 49.7328 50.1868 50.1061 49.9162 50.5821C49.6455 51.0488 49.5102 51.5808 49.5102 52.1781C49.5102 52.7661 49.6455 53.2981 49.9162 53.7741C50.1868 54.2408 50.5555 54.6141 51.0222 54.8941C51.4888 55.1648 52.0115 55.3001 52.5902 55.3001ZM56.0762 56.0001C55.9548 56.0001 55.8522 55.9628 55.7682 55.8881C55.6935 55.8041 55.6562 55.7015 55.6562 55.5801V53.0181L55.9222 52.1781H56.4962V55.5801C56.4962 55.7015 56.4588 55.8041 56.3842 55.8881C56.3095 55.9628 56.2068 56.0001 56.0762 56.0001Z"
		  fill="white"/>
	<path d="M58.3121 51.3241C58.3681 50.7268 58.5314 50.1995 58.8021 49.7421C59.0728 49.2755 59.4228 48.9115 59.8521 48.6501C60.2814 48.3888 60.7574 48.2581 61.2801 48.2581C61.6348 48.2581 61.9101 48.3001 62.1061 48.3841C62.3021 48.4681 62.3768 48.6175 62.3301 48.8321C62.3021 48.9721 62.2368 49.0561 62.1341 49.0841C62.0314 49.1121 61.9054 49.1168 61.7561 49.0981C61.6161 49.0701 61.4574 49.0561 61.2801 49.0561C60.8134 49.0561 60.3981 49.1541 60.0341 49.3501C59.6701 49.5461 59.3854 49.8168 59.1801 50.1621C58.9748 50.4981 58.8721 50.8855 58.8721 51.3241H58.3121ZM58.4521 56.0001C58.3308 56.0001 58.2281 55.9628 58.1441 55.8881C58.0694 55.8041 58.0321 55.7015 58.0321 55.5801V48.7621C58.0321 48.6315 58.0694 48.5288 58.1441 48.4541C58.2281 48.3795 58.3308 48.3421 58.4521 48.3421C58.5828 48.3421 58.6854 48.3795 58.7601 48.4541C58.8348 48.5288 58.8721 48.6315 58.8721 48.7621V55.5801C58.8721 55.7015 58.8348 55.8041 58.7601 55.8881C58.6854 55.9628 58.5828 56.0001 58.4521 56.0001Z"
		  fill="white"/>
	<path d="M66.4382 56.0701C65.7009 56.0701 65.0429 55.9068 64.4642 55.5801C63.8949 55.2441 63.4469 54.7821 63.1202 54.1941C62.7936 53.6061 62.6302 52.9341 62.6302 52.1781C62.6302 51.4128 62.7842 50.7408 63.0922 50.1621C63.4002 49.5741 63.8249 49.1121 64.3662 48.7761C64.9076 48.4401 65.5282 48.2721 66.2282 48.2721C66.9189 48.2721 67.5302 48.4355 68.0622 48.7621C68.5942 49.0795 69.0096 49.5228 69.3082 50.0921C69.6069 50.6521 69.7562 51.3008 69.7562 52.0381C69.7562 52.1595 69.7189 52.2575 69.6442 52.3321C69.5696 52.3975 69.4716 52.4301 69.3502 52.4301H63.1902V51.7021H69.5742L68.9582 52.1641C68.9769 51.5575 68.8742 51.0208 68.6502 50.5541C68.4262 50.0875 68.1042 49.7235 67.6842 49.4621C67.2736 49.1915 66.7882 49.0561 66.2282 49.0561C65.6962 49.0561 65.2202 49.1915 64.8002 49.4621C64.3896 49.7235 64.0629 50.0875 63.8202 50.5541C63.5869 51.0208 63.4702 51.5621 63.4702 52.1781C63.4702 52.7848 63.5962 53.3215 63.8482 53.7881C64.1002 54.2548 64.4502 54.6235 64.8982 54.8941C65.3462 55.1555 65.8596 55.2861 66.4382 55.2861C66.8022 55.2861 67.1662 55.2255 67.5302 55.1041C67.9036 54.9735 68.1976 54.8055 68.4122 54.6001C68.4869 54.5255 68.5756 54.4881 68.6782 54.4881C68.7902 54.4788 68.8836 54.5068 68.9582 54.5721C69.0609 54.6561 69.1122 54.7495 69.1122 54.8521C69.1216 54.9548 69.0796 55.0481 68.9862 55.1321C68.6876 55.4028 68.2956 55.6268 67.8102 55.8041C67.3342 55.9815 66.8769 56.0701 66.4382 56.0701Z"
		  fill="white"/>
	<path d="M11.7994 66.0982C11.5054 66.0982 11.2464 66.0446 11.0224 65.9372C10.7984 65.8252 10.6234 65.6689 10.4974 65.4682C10.3761 65.2629 10.3154 65.0179 10.3154 64.7332C10.3154 64.4159 10.4228 64.1289 10.6374 63.8722C10.8521 63.6156 11.1344 63.3472 11.4844 63.0672L12.0654 62.6052C12.3128 62.4092 12.4714 62.2366 12.5414 62.0872C12.6114 61.9379 12.6488 61.7839 12.6534 61.6252C12.6534 61.4479 12.5928 61.2939 12.4714 61.1632C12.3548 61.0326 12.1844 60.9672 11.9604 60.9672C11.7551 60.9672 11.5894 61.0279 11.4634 61.1492C11.3374 61.2706 11.2744 61.4129 11.2744 61.5762C11.2744 61.6976 11.3001 61.8166 11.3514 61.9332C11.4074 62.0499 11.4961 62.1689 11.6174 62.2902L14.8024 65.4682C14.8771 65.5429 14.9191 65.6129 14.9284 65.6782C14.9378 65.7436 14.9051 65.8136 14.8304 65.8882C14.6811 66.0376 14.5318 66.0376 14.3824 65.8882L11.1624 62.6752C11.0038 62.5119 10.8824 62.3416 10.7984 62.1642C10.7144 61.9822 10.6724 61.7909 10.6724 61.5902C10.6724 61.3662 10.7284 61.1656 10.8404 60.9882C10.9524 60.8062 11.1064 60.6639 11.3024 60.5612C11.4984 60.4586 11.7178 60.4072 11.9604 60.4072C12.2124 60.4072 12.4341 60.4609 12.6254 60.5682C12.8214 60.6756 12.9754 60.8226 13.0874 61.0092C13.1994 61.1959 13.2554 61.4059 13.2554 61.6392C13.2554 61.8212 13.2228 61.9869 13.1574 62.1362C13.0968 62.2856 13.0011 62.4326 12.8704 62.5772C12.7398 62.7172 12.5694 62.8712 12.3594 63.0392L11.8064 63.4802C11.6478 63.6062 11.5054 63.7346 11.3794 63.8652C11.2534 63.9959 11.1531 64.1312 11.0784 64.2712C11.0084 64.4066 10.9734 64.5512 10.9734 64.7052C10.9734 64.9666 11.0458 65.1649 11.1904 65.3002C11.3351 65.4309 11.5381 65.4962 11.7994 65.4962C12.0794 65.4962 12.3221 65.4332 12.5274 65.3072C12.7374 65.1766 12.9498 64.9992 13.1644 64.7752L14.1864 63.6972C14.2564 63.6226 14.3218 63.5759 14.3824 63.5572C14.4431 63.5386 14.5108 63.5642 14.5854 63.6342C14.6601 63.7042 14.6974 63.7766 14.6974 63.8512C14.7021 63.9259 14.6694 64.0029 14.5994 64.0822L13.5774 65.1602C13.3348 65.4356 13.0711 65.6619 12.7864 65.8392C12.5018 66.0119 12.1728 66.0982 11.7994 66.0982Z"
		  fill="white"/>
	<path d="M18.9676 68.0004C18.8742 68.0004 18.7902 67.9771 18.7156 67.9304C18.6502 67.8837 18.6036 67.8184 18.5756 67.7344L16.3076 60.9444C16.2702 60.7391 16.2796 60.5897 16.3356 60.4964C16.3916 60.3937 16.4896 60.3424 16.6296 60.3424C16.7042 60.3424 16.7789 60.3657 16.8536 60.4124C16.9282 60.4497 16.9842 60.5104 17.0216 60.5944L19.0936 66.8384H18.9116L20.8156 60.6784C20.8436 60.5757 20.8949 60.4964 20.9696 60.4404C21.0442 60.3751 21.1329 60.3424 21.2356 60.3424C21.3382 60.3424 21.4222 60.3751 21.4876 60.4404C21.5622 60.4964 21.6182 60.5757 21.6556 60.6784L23.6156 66.8384H23.3636L25.4356 60.5944C25.5102 60.4264 25.6409 60.3424 25.8276 60.3424C25.9956 60.3424 26.1076 60.4077 26.1636 60.5384C26.2289 60.6691 26.2289 60.8044 26.1636 60.9444L23.9096 67.7344C23.8816 67.8184 23.8302 67.8837 23.7556 67.9304C23.6902 67.9771 23.6062 68.0004 23.5036 68.0004C23.4102 68.0004 23.3262 67.9771 23.2516 67.9304C23.1769 67.8837 23.1302 67.8184 23.1116 67.7344L21.1096 61.5184H21.2916L19.3596 67.7344C19.3222 67.8277 19.2662 67.8977 19.1916 67.9444C19.1262 67.9817 19.0516 68.0004 18.9676 68.0004Z"
		  fill="white"/>
	<path d="M27.8859 68.0004C27.7646 68.0004 27.6619 67.9631 27.5779 67.8884C27.5032 67.8044 27.4659 67.7017 27.4659 67.5804V60.7624C27.4659 60.6317 27.5032 60.5291 27.5779 60.4544C27.6619 60.3797 27.7646 60.3424 27.8859 60.3424C28.0166 60.3424 28.1192 60.3797 28.1939 60.4544C28.2686 60.5291 28.3059 60.6317 28.3059 60.7624V67.5804C28.3059 67.7017 28.2686 67.8044 28.1939 67.8884C28.1192 67.9631 28.0166 68.0004 27.8859 68.0004ZM27.8719 58.7324C27.6946 58.7324 27.5406 58.6717 27.4099 58.5504C27.2886 58.4197 27.2279 58.2611 27.2279 58.0744C27.2279 57.8597 27.2932 57.7011 27.4239 57.5984C27.5639 57.4864 27.7179 57.4304 27.8859 57.4304C28.0446 57.4304 28.1892 57.4864 28.3199 57.5984C28.4599 57.7011 28.5299 57.8597 28.5299 58.0744C28.5299 58.2611 28.4646 58.4197 28.3339 58.5504C28.2126 58.6717 28.0586 58.7324 27.8719 58.7324Z"
		  fill="white"/>
	<path d="M33.1537 68.0844C32.6684 68.0844 32.1597 67.9957 31.6277 67.8184C31.0957 67.6411 30.6524 67.3424 30.2977 66.9224C30.223 66.8291 30.1904 66.7311 30.1997 66.6284C30.2184 66.5164 30.279 66.4231 30.3817 66.3484C30.475 66.2831 30.573 66.2597 30.6757 66.2784C30.7877 66.2971 30.8764 66.3484 30.9417 66.4324C31.2124 66.7497 31.539 66.9737 31.9217 67.1044C32.3137 67.2257 32.7384 67.2864 33.1957 67.2864C33.9797 67.2864 34.535 67.1464 34.8617 66.8664C35.1884 66.5864 35.3517 66.2597 35.3517 65.8864C35.3517 65.5224 35.1744 65.2237 34.8197 64.9904C34.4744 64.7477 33.9377 64.5751 33.2097 64.4724C32.2764 64.3417 31.5857 64.0897 31.1377 63.7164C30.6897 63.3431 30.4657 62.9091 30.4657 62.4144C30.4657 61.9477 30.5824 61.5557 30.8157 61.2384C31.049 60.9117 31.3664 60.6691 31.7677 60.5104C32.1784 60.3424 32.645 60.2584 33.1677 60.2584C33.8024 60.2584 34.339 60.3751 34.7777 60.6084C35.2164 60.8324 35.571 61.1357 35.8417 61.5184C35.9164 61.6117 35.9397 61.7144 35.9117 61.8264C35.893 61.9291 35.823 62.0131 35.7017 62.0784C35.6084 62.1251 35.5104 62.1391 35.4077 62.1204C35.305 62.1017 35.2164 62.0457 35.1417 61.9524C34.9084 61.6537 34.6237 61.4297 34.2877 61.2804C33.961 61.1217 33.5784 61.0424 33.1397 61.0424C32.5517 61.0424 32.0944 61.1684 31.7677 61.4204C31.441 61.6724 31.2777 61.9757 31.2777 62.3304C31.2777 62.5731 31.343 62.7877 31.4737 62.9744C31.6137 63.1517 31.8377 63.3057 32.1457 63.4364C32.4537 63.5577 32.8644 63.6557 33.3777 63.7304C34.0777 63.8237 34.6284 63.9824 35.0297 64.2064C35.4404 64.4304 35.7297 64.6917 35.8977 64.9904C36.075 65.2797 36.1637 65.5924 36.1637 65.9284C36.1637 66.3671 36.0237 66.7497 35.7437 67.0764C35.4637 67.4031 35.095 67.6551 34.6377 67.8324C34.1804 68.0004 33.6857 68.0844 33.1537 68.0844Z"
		  fill="white"/>
	<path d="M37.9156 64.6404C37.7942 64.6404 37.6916 64.6031 37.6076 64.5284C37.5329 64.4444 37.4956 64.3417 37.4956 64.2204V57.4864C37.4956 57.3557 37.5329 57.2531 37.6076 57.1784C37.6916 57.1037 37.7942 57.0664 37.9156 57.0664C38.0462 57.0664 38.1489 57.1037 38.2236 57.1784C38.2982 57.2531 38.3356 57.3557 38.3356 57.4864V64.2204C38.3356 64.3417 38.2982 64.4444 38.2236 64.5284C38.1489 64.6031 38.0462 64.6404 37.9156 64.6404ZM44.1176 68.0004C43.9962 68.0004 43.8936 67.9631 43.8096 67.8884C43.7349 67.8044 43.6976 67.7017 43.6976 67.5804V63.8144C43.6976 63.1984 43.5762 62.6897 43.3336 62.2884C43.1002 61.8871 42.7782 61.5884 42.3676 61.3924C41.9662 61.1871 41.5089 61.0844 40.9956 61.0844C40.4916 61.0844 40.0389 61.1824 39.6376 61.3784C39.2362 61.5651 38.9189 61.8264 38.6856 62.1624C38.4522 62.4984 38.3356 62.8764 38.3356 63.2964H37.6356C37.6729 62.7177 37.8456 62.1997 38.1536 61.7424C38.4616 61.2757 38.8629 60.9117 39.3576 60.6504C39.8522 60.3797 40.3982 60.2444 40.9956 60.2444C41.6676 60.2444 42.2696 60.3844 42.8016 60.6644C43.3429 60.9351 43.7676 61.3364 44.0756 61.8684C44.3836 62.3911 44.5376 63.0397 44.5376 63.8144V67.5804C44.5376 67.7017 44.4956 67.8044 44.4116 67.8884C44.3369 67.9631 44.2389 68.0004 44.1176 68.0004ZM37.9156 68.0004C37.7942 68.0004 37.6916 67.9631 37.6076 67.8884C37.5329 67.8044 37.4956 67.7017 37.4956 67.5804V60.7624C37.4956 60.6317 37.5329 60.5291 37.6076 60.4544C37.6916 60.3797 37.7942 60.3424 37.9156 60.3424C38.0462 60.3424 38.1489 60.3797 38.2236 60.4544C38.2982 60.5291 38.3356 60.6317 38.3356 60.7624V67.5804C38.3356 67.7017 38.2982 67.8044 38.2236 67.8884C38.1489 67.9631 38.0462 68.0004 37.9156 68.0004Z"
		  fill="white"/>
	<path d="M47.8955 68.0004C47.5408 68.0004 47.2235 67.9024 46.9435 67.7064C46.6728 67.5104 46.4582 67.2397 46.2995 66.8944C46.1502 66.5491 46.0755 66.1477 46.0755 65.6904V57.4864C46.0755 57.3557 46.1128 57.2531 46.1875 57.1784C46.2715 57.1037 46.3742 57.0664 46.4955 57.0664C46.6262 57.0664 46.7288 57.1037 46.8035 57.1784C46.8782 57.2531 46.9155 57.3557 46.9155 57.4864V65.6904C46.9155 66.1197 47.0042 66.4744 47.1815 66.7544C47.3682 67.0251 47.6062 67.1604 47.8955 67.1604H48.2455C48.3482 67.1604 48.4322 67.1977 48.4975 67.2724C48.5628 67.3471 48.5955 67.4497 48.5955 67.5804C48.5955 67.7017 48.5582 67.8044 48.4835 67.8884C48.4088 67.9631 48.3062 68.0004 48.1755 68.0004H47.8955Z"
		  fill="white"/>
	<path d="M50.2689 68.0004C50.1476 68.0004 50.0449 67.9631 49.9609 67.8884C49.8863 67.8044 49.8489 67.7017 49.8489 67.5804V60.7624C49.8489 60.6317 49.8863 60.5291 49.9609 60.4544C50.0449 60.3797 50.1476 60.3424 50.2689 60.3424C50.3996 60.3424 50.5023 60.3797 50.5769 60.4544C50.6516 60.5291 50.6889 60.6317 50.6889 60.7624V67.5804C50.6889 67.7017 50.6516 67.8044 50.5769 67.8884C50.5023 67.9631 50.3996 68.0004 50.2689 68.0004ZM50.2549 58.7324C50.0776 58.7324 49.9236 58.6717 49.7929 58.5504C49.6716 58.4197 49.6109 58.2611 49.6109 58.0744C49.6109 57.8597 49.6763 57.7011 49.8069 57.5984C49.9469 57.4864 50.1009 57.4304 50.2689 57.4304C50.4276 57.4304 50.5723 57.4864 50.7029 57.5984C50.8429 57.7011 50.9129 57.8597 50.9129 58.0744C50.9129 58.2611 50.8476 58.4197 50.7169 58.5504C50.5956 58.6717 50.4416 58.7324 50.2549 58.7324Z"
		  fill="white"/>
	<path d="M55.5368 68.0844C55.0514 68.0844 54.5428 67.9957 54.0108 67.8184C53.4788 67.6411 53.0354 67.3424 52.6808 66.9224C52.6061 66.8291 52.5734 66.7311 52.5828 66.6284C52.6014 66.5164 52.6621 66.4231 52.7648 66.3484C52.8581 66.2831 52.9561 66.2597 53.0588 66.2784C53.1708 66.2971 53.2594 66.3484 53.3248 66.4324C53.5954 66.7497 53.9221 66.9737 54.3048 67.1044C54.6968 67.2257 55.1214 67.2864 55.5788 67.2864C56.3628 67.2864 56.9181 67.1464 57.2448 66.8664C57.5714 66.5864 57.7348 66.2597 57.7348 65.8864C57.7348 65.5224 57.5574 65.2237 57.2028 64.9904C56.8574 64.7477 56.3208 64.5751 55.5928 64.4724C54.6594 64.3417 53.9688 64.0897 53.5208 63.7164C53.0728 63.3431 52.8488 62.9091 52.8488 62.4144C52.8488 61.9477 52.9654 61.5557 53.1988 61.2384C53.4321 60.9117 53.7494 60.6691 54.1508 60.5104C54.5614 60.3424 55.0281 60.2584 55.5508 60.2584C56.1854 60.2584 56.7221 60.3751 57.1608 60.6084C57.5994 60.8324 57.9541 61.1357 58.2248 61.5184C58.2994 61.6117 58.3228 61.7144 58.2948 61.8264C58.2761 61.9291 58.2061 62.0131 58.0848 62.0784C57.9914 62.1251 57.8934 62.1391 57.7908 62.1204C57.6881 62.1017 57.5994 62.0457 57.5248 61.9524C57.2914 61.6537 57.0068 61.4297 56.6708 61.2804C56.3441 61.1217 55.9614 61.0424 55.5228 61.0424C54.9348 61.0424 54.4774 61.1684 54.1508 61.4204C53.8241 61.6724 53.6608 61.9757 53.6608 62.3304C53.6608 62.5731 53.7261 62.7877 53.8568 62.9744C53.9968 63.1517 54.2208 63.3057 54.5288 63.4364C54.8368 63.5577 55.2474 63.6557 55.7608 63.7304C56.4608 63.8237 57.0114 63.9824 57.4128 64.2064C57.8234 64.4304 58.1128 64.6917 58.2808 64.9904C58.4581 65.2797 58.5468 65.5924 58.5468 65.9284C58.5468 66.3671 58.4068 66.7497 58.1268 67.0764C57.8468 67.4031 57.4781 67.6551 57.0208 67.8324C56.5634 68.0004 56.0688 68.0844 55.5368 68.0844Z"
		  fill="white"/>
	<path d="M63.0146 68.0004C62.5013 67.9911 62.044 67.8744 61.6426 67.6504C61.2413 67.4171 60.9286 67.0997 60.7046 66.6984C60.4806 66.2877 60.3686 65.8257 60.3686 65.3124V58.3404C60.3686 58.2097 60.406 58.1071 60.4806 58.0324C60.5646 57.9484 60.6673 57.9064 60.7886 57.9064C60.9193 57.9064 61.022 57.9484 61.0966 58.0324C61.1806 58.1071 61.2226 58.2097 61.2226 58.3404V65.3124C61.2226 65.8537 61.3906 66.2971 61.7266 66.6424C62.0626 66.9784 62.4966 67.1464 63.0286 67.1464H63.3366C63.4673 67.1464 63.57 67.1884 63.6446 67.2724C63.7286 67.3471 63.7706 67.4497 63.7706 67.5804C63.7706 67.7017 63.7286 67.8044 63.6446 67.8884C63.57 67.9631 63.4673 68.0004 63.3366 68.0004H63.0146ZM59.2766 61.3784C59.1646 61.3784 59.0713 61.3457 58.9966 61.2804C58.9313 61.2057 58.8986 61.1124 58.8986 61.0004C58.8986 60.8884 58.9313 60.7997 58.9966 60.7344C59.0713 60.6597 59.1646 60.6224 59.2766 60.6224H63.0706C63.1826 60.6224 63.2713 60.6597 63.3366 60.7344C63.4113 60.7997 63.4486 60.8884 63.4486 61.0004C63.4486 61.1124 63.4113 61.2057 63.3366 61.2804C63.2713 61.3457 63.1826 61.3784 63.0706 61.3784H59.2766Z"
		  fill="white"/>
</svg>
