<svg width="80" height="80" viewBox="0 0 80 80" fill="none" xmlns="http://www.w3.org/2000/svg">
	<path d="M0 10C0 4.47715 4.47715 0 10 0H70C75.5228 0 80 4.47715 80 10V70C80 75.5228 75.5228 80 70 80H10C4.47715 80 0 75.5228 0 70V10Z"
		  fill="#F648BF"/>
	<path fill-rule="evenodd" clip-rule="evenodd"
		  d="M69.1899 17.669C70.1274 17.6112 70.6622 18.8303 70.0393 19.6052L64.4947 26.5031C63.8454 27.3109 62.6353 26.7945 62.6481 25.715L62.681 22.9163C62.6854 22.5496 62.5329 22.2021 62.2695 21.9782L60.2594 20.2699C59.4841 19.611 59.8679 18.244 60.8451 18.1837L69.1899 17.669ZM25.0719 35.7833C25.0719 42.3911 19.6705 47.7457 13.0144 47.7457C11.3465 47.7457 10 46.4014 10 44.7532C10 43.1051 11.3465 41.7683 13.0144 41.7683C16.3425 41.7683 19.0432 39.0872 19.0432 35.7833V26.8133C19.0432 25.1576 20.3897 23.8208 22.0575 23.8208C23.7254 23.8208 25.0719 25.1576 25.0719 26.8133V35.7833ZM57.5722 35.7833C57.5722 39.0872 60.2729 41.7683 63.601 41.7683C65.2689 41.7683 66.6154 43.0975 66.6154 44.7532C66.6154 46.409 65.2689 47.7457 63.601 47.7457C56.9449 47.7457 51.5435 42.3911 51.5435 35.7833V26.8133C51.5435 25.1576 52.89 23.8208 54.5578 23.8208C56.2257 23.8208 57.5722 25.1652 57.5722 26.8133V29.4945H59.9669C61.6348 29.4945 62.9889 30.8388 62.9889 32.4946C62.9889 34.1503 61.6348 35.4947 59.9669 35.4947H57.5722V35.7833ZM49.8145 31.5908C49.8221 31.5832 49.8298 31.5832 49.8298 31.5832C48.8811 29.1072 47.1061 26.9349 44.6273 25.507C38.8739 22.1955 31.5292 24.1551 28.2165 29.8819C24.896 35.6011 26.8699 42.9152 32.6156 46.2192C36.8465 48.6496 41.9419 48.2243 45.6601 45.5508L45.6372 45.5204C46.494 44.9963 47.0602 44.0545 47.0602 42.9836C47.0602 41.3354 45.7137 39.9987 44.0535 39.9987C43.2501 39.9987 42.5157 40.3101 41.9801 40.8266C40.1745 42.0342 37.7722 42.2241 35.7448 41.1152L47.8865 35.5175C48.5903 35.3048 49.2177 34.8339 49.6079 34.1504C50.0822 33.3377 50.1281 32.4035 49.8145 31.5908ZM41.6205 30.6794C41.9801 30.8844 42.3014 31.1199 42.5998 31.3781L32.608 35.9732C32.585 34.9175 32.8451 33.8466 33.4113 32.8668C35.0715 30.011 38.7439 29.0312 41.6205 30.6794Z"
		  fill="white"/>
	<path d="M13.6986 61.0704C12.9613 61.0704 12.3033 60.9071 11.7246 60.5804C11.1553 60.2444 10.7073 59.7824 10.3806 59.1944C10.054 58.6064 9.89062 57.9344 9.89062 57.1784C9.89062 56.4131 10.0446 55.7411 10.3526 55.1624C10.6606 54.5744 11.0853 54.1124 11.6266 53.7764C12.168 53.4404 12.7886 53.2724 13.4886 53.2724C14.1793 53.2724 14.7906 53.4357 15.3226 53.7624C15.8546 54.0797 16.27 54.5231 16.5686 55.0924C16.8673 55.6524 17.0166 56.3011 17.0166 57.0384C17.0166 57.1597 16.9793 57.2577 16.9046 57.3324C16.83 57.3977 16.732 57.4304 16.6106 57.4304H10.4506V56.7024H16.8346L16.2186 57.1644C16.2373 56.5577 16.1346 56.0211 15.9106 55.5544C15.6866 55.0877 15.3646 54.7237 14.9446 54.4624C14.534 54.1917 14.0486 54.0564 13.4886 54.0564C12.9566 54.0564 12.4806 54.1917 12.0606 54.4624C11.65 54.7237 11.3233 55.0877 11.0806 55.5544C10.8473 56.0211 10.7306 56.5624 10.7306 57.1784C10.7306 57.7851 10.8566 58.3217 11.1086 58.7884C11.3606 59.2551 11.7106 59.6237 12.1586 59.8944C12.6066 60.1557 13.12 60.2864 13.6986 60.2864C14.0626 60.2864 14.4266 60.2257 14.7906 60.1044C15.164 59.9737 15.458 59.8057 15.6726 59.6004C15.7473 59.5257 15.836 59.4884 15.9386 59.4884C16.0506 59.4791 16.144 59.5071 16.2186 59.5724C16.3213 59.6564 16.3726 59.7497 16.3726 59.8524C16.382 59.9551 16.34 60.0484 16.2466 60.1324C15.948 60.4031 15.556 60.6271 15.0706 60.8044C14.5946 60.9817 14.1373 61.0704 13.6986 61.0704Z"
		  fill="white"/>
	<path d="M20.1019 61.0004C19.7472 61.0004 19.4299 60.9024 19.1499 60.7064C18.8792 60.5104 18.6645 60.2397 18.5059 59.8944C18.3565 59.5491 18.2819 59.1477 18.2819 58.6904V50.4864C18.2819 50.3557 18.3192 50.2531 18.3939 50.1784C18.4779 50.1037 18.5805 50.0664 18.7019 50.0664C18.8325 50.0664 18.9352 50.1037 19.0099 50.1784C19.0845 50.2531 19.1219 50.3557 19.1219 50.4864V58.6904C19.1219 59.1197 19.2105 59.4744 19.3879 59.7544C19.5745 60.0251 19.8125 60.1604 20.1019 60.1604H20.4519C20.5545 60.1604 20.6385 60.1977 20.7039 60.2724C20.7692 60.3471 20.8019 60.4497 20.8019 60.5804C20.8019 60.7017 20.7645 60.8044 20.6899 60.8884C20.6152 60.9631 20.5125 61.0004 20.3819 61.0004H20.1019Z"
		  fill="white"/>
	<path d="M25.0195 61.0704C24.2822 61.0704 23.6242 60.9071 23.0455 60.5804C22.4762 60.2444 22.0282 59.7824 21.7015 59.1944C21.3748 58.6064 21.2115 57.9344 21.2115 57.1784C21.2115 56.4131 21.3655 55.7411 21.6735 55.1624C21.9815 54.5744 22.4062 54.1124 22.9475 53.7764C23.4888 53.4404 24.1095 53.2724 24.8095 53.2724C25.5002 53.2724 26.1115 53.4357 26.6435 53.7624C27.1755 54.0797 27.5908 54.5231 27.8895 55.0924C28.1882 55.6524 28.3375 56.3011 28.3375 57.0384C28.3375 57.1597 28.3002 57.2577 28.2255 57.3324C28.1508 57.3977 28.0528 57.4304 27.9315 57.4304H21.7715V56.7024H28.1555L27.5395 57.1644C27.5582 56.5577 27.4555 56.0211 27.2315 55.5544C27.0075 55.0877 26.6855 54.7237 26.2655 54.4624C25.8548 54.1917 25.3695 54.0564 24.8095 54.0564C24.2775 54.0564 23.8015 54.1917 23.3815 54.4624C22.9708 54.7237 22.6441 55.0877 22.4015 55.5544C22.1681 56.0211 22.0515 56.5624 22.0515 57.1784C22.0515 57.7851 22.1775 58.3217 22.4295 58.7884C22.6815 59.2551 23.0315 59.6237 23.4795 59.8944C23.9275 60.1557 24.4408 60.2864 25.0195 60.2864C25.3835 60.2864 25.7475 60.2257 26.1115 60.1044C26.4848 59.9737 26.7788 59.8057 26.9935 59.6004C27.0682 59.5257 27.1568 59.4884 27.2595 59.4884C27.3715 59.4791 27.4648 59.5071 27.5395 59.5724C27.6422 59.6564 27.6935 59.7497 27.6935 59.8524C27.7028 59.9551 27.6608 60.0484 27.5675 60.1324C27.2688 60.4031 26.8768 60.6271 26.3915 60.8044C25.9155 60.9817 25.4581 61.0704 25.0195 61.0704Z"
		  fill="white"/>
	<path d="M40.4247 61.0004C40.3034 61.0004 40.2007 60.9631 40.1167 60.8884C40.0421 60.8044 40.0047 60.7017 40.0047 60.5804V56.5344C40.0047 55.8157 39.8134 55.2277 39.4307 54.7704C39.0574 54.3131 38.5674 54.0844 37.9607 54.0844C37.3167 54.0844 36.7894 54.2991 36.3787 54.7284C35.9774 55.1484 35.7861 55.7177 35.8047 56.4364H34.9647C34.9834 55.7924 35.1234 55.2324 35.3847 54.7564C35.6461 54.2804 36.0007 53.9117 36.4487 53.6504C36.8967 53.3797 37.4007 53.2444 37.9607 53.2444C38.5301 53.2444 39.0294 53.3844 39.4587 53.6644C39.8881 53.9444 40.2241 54.3317 40.4667 54.8264C40.7187 55.3211 40.8447 55.8904 40.8447 56.5344V60.5804C40.8447 60.7017 40.8074 60.8044 40.7327 60.8884C40.6581 60.9631 40.5554 61.0004 40.4247 61.0004ZM30.3027 61.0004C30.1814 61.0004 30.0787 60.9631 29.9947 60.8884C29.9201 60.8044 29.8827 60.7017 29.8827 60.5804V53.7624C29.8827 53.6317 29.9201 53.5291 29.9947 53.4544C30.0787 53.3797 30.1814 53.3424 30.3027 53.3424C30.4334 53.3424 30.5361 53.3797 30.6107 53.4544C30.6854 53.5291 30.7227 53.6317 30.7227 53.7624V60.5804C30.7227 60.7017 30.6854 60.8044 30.6107 60.8884C30.5361 60.9631 30.4334 61.0004 30.3027 61.0004ZM35.3847 61.0004C35.2634 61.0004 35.1607 60.9631 35.0767 60.8884C35.0021 60.8044 34.9647 60.7017 34.9647 60.5804V56.5344C34.9647 55.8157 34.7734 55.2277 34.3907 54.7704C34.0174 54.3131 33.5274 54.0844 32.9207 54.0844C32.2767 54.0844 31.7494 54.2897 31.3387 54.7004C30.9281 55.1111 30.7227 55.6431 30.7227 56.2964H30.0227C30.0507 55.6991 30.1907 55.1717 30.4427 54.7144C30.7041 54.2571 31.0494 53.8977 31.4787 53.6364C31.9081 53.3751 32.3887 53.2444 32.9207 53.2444C33.4901 53.2444 33.9894 53.3844 34.4187 53.6644C34.8481 53.9444 35.1841 54.3317 35.4267 54.8264C35.6787 55.3211 35.8047 55.8904 35.8047 56.5344V60.5804C35.8047 60.7017 35.7674 60.8044 35.6927 60.8884C35.6181 60.9631 35.5154 61.0004 35.3847 61.0004Z"
		  fill="white"/>
	<path d="M46.3345 61.0704C45.5972 61.0704 44.9392 60.9071 44.3605 60.5804C43.7912 60.2444 43.3432 59.7824 43.0165 59.1944C42.6898 58.6064 42.5265 57.9344 42.5265 57.1784C42.5265 56.4131 42.6805 55.7411 42.9885 55.1624C43.2965 54.5744 43.7212 54.1124 44.2625 53.7764C44.8038 53.4404 45.4245 53.2724 46.1245 53.2724C46.8152 53.2724 47.4265 53.4357 47.9585 53.7624C48.4905 54.0797 48.9058 54.5231 49.2045 55.0924C49.5032 55.6524 49.6525 56.3011 49.6525 57.0384C49.6525 57.1597 49.6152 57.2577 49.5405 57.3324C49.4658 57.3977 49.3678 57.4304 49.2465 57.4304H43.0865V56.7024H49.4705L48.8545 57.1644C48.8731 56.5577 48.7705 56.0211 48.5465 55.5544C48.3225 55.0877 48.0005 54.7237 47.5805 54.4624C47.1698 54.1917 46.6845 54.0564 46.1245 54.0564C45.5925 54.0564 45.1165 54.1917 44.6965 54.4624C44.2858 54.7237 43.9592 55.0877 43.7165 55.5544C43.4832 56.0211 43.3665 56.5624 43.3665 57.1784C43.3665 57.7851 43.4925 58.3217 43.7445 58.7884C43.9965 59.2551 44.3465 59.6237 44.7945 59.8944C45.2425 60.1557 45.7558 60.2864 46.3345 60.2864C46.6985 60.2864 47.0625 60.2257 47.4265 60.1044C47.7998 59.9737 48.0938 59.8057 48.3085 59.6004C48.3832 59.5257 48.4718 59.4884 48.5745 59.4884C48.6865 59.4791 48.7798 59.5071 48.8545 59.5724C48.9571 59.6564 49.0085 59.7497 49.0085 59.8524C49.0178 59.9551 48.9758 60.0484 48.8825 60.1324C48.5838 60.4031 48.1918 60.6271 47.7065 60.8044C47.2305 60.9817 46.7732 61.0704 46.3345 61.0704Z"
		  fill="white"/>
	<path d="M57.8197 61.0004C57.6984 61.0004 57.5957 60.9631 57.5117 60.8884C57.4371 60.8044 57.3997 60.7017 57.3997 60.5804V56.8144C57.3997 56.1984 57.2784 55.6897 57.0357 55.2884C56.8024 54.8871 56.4804 54.5884 56.0697 54.3924C55.6684 54.1871 55.2111 54.0844 54.6977 54.0844C54.1937 54.0844 53.7411 54.1824 53.3397 54.3784C52.9384 54.5651 52.6211 54.8264 52.3877 55.1624C52.1544 55.4984 52.0377 55.8764 52.0377 56.2964H51.3377C51.3751 55.7177 51.5477 55.1997 51.8557 54.7424C52.1637 54.2757 52.5651 53.9117 53.0597 53.6504C53.5544 53.3797 54.1004 53.2444 54.6977 53.2444C55.3697 53.2444 55.9717 53.3844 56.5037 53.6644C57.0451 53.9351 57.4697 54.3364 57.7777 54.8684C58.0857 55.3911 58.2397 56.0397 58.2397 56.8144V60.5804C58.2397 60.7017 58.1977 60.8044 58.1137 60.8884C58.0391 60.9631 57.9411 61.0004 57.8197 61.0004ZM51.6177 61.0004C51.4964 61.0004 51.3937 60.9631 51.3097 60.8884C51.2351 60.8044 51.1977 60.7017 51.1977 60.5804V53.7624C51.1977 53.6317 51.2351 53.5291 51.3097 53.4544C51.3937 53.3797 51.4964 53.3424 51.6177 53.3424C51.7484 53.3424 51.8511 53.3797 51.9257 53.4544C52.0004 53.5291 52.0377 53.6317 52.0377 53.7624V60.5804C52.0377 60.7017 52.0004 60.8044 51.9257 60.8884C51.8511 60.9631 51.7484 61.0004 51.6177 61.0004Z"
		  fill="white"/>
	<path d="M63.4737 61.0004C62.9603 60.9911 62.503 60.8744 62.1017 60.6504C61.7003 60.4171 61.3877 60.0997 61.1637 59.6984C60.9397 59.2877 60.8277 58.8257 60.8277 58.3124V51.3404C60.8277 51.2097 60.865 51.1071 60.9397 51.0324C61.0237 50.9484 61.1263 50.9064 61.2477 50.9064C61.3783 50.9064 61.481 50.9484 61.5557 51.0324C61.6397 51.1071 61.6817 51.2097 61.6817 51.3404V58.3124C61.6817 58.8537 61.8497 59.2971 62.1857 59.6424C62.5217 59.9784 62.9557 60.1464 63.4877 60.1464H63.7957C63.9263 60.1464 64.029 60.1884 64.1037 60.2724C64.1877 60.3471 64.2297 60.4497 64.2297 60.5804C64.2297 60.7017 64.1877 60.8044 64.1037 60.8884C64.029 60.9631 63.9263 61.0004 63.7957 61.0004H63.4737ZM59.7357 54.3784C59.6237 54.3784 59.5303 54.3457 59.4557 54.2804C59.3903 54.2057 59.3577 54.1124 59.3577 54.0004C59.3577 53.8884 59.3903 53.7997 59.4557 53.7344C59.5303 53.6597 59.6237 53.6224 59.7357 53.6224H63.5297C63.6417 53.6224 63.7303 53.6597 63.7957 53.7344C63.8703 53.7997 63.9077 53.8884 63.9077 54.0004C63.9077 54.1124 63.8703 54.2057 63.7957 54.2804C63.7303 54.3457 63.6417 54.3784 63.5297 54.3784H59.7357Z"
		  fill="white"/>
	<path d="M68.3081 61.0844C67.8228 61.0844 67.3141 60.9957 66.7821 60.8184C66.2501 60.6411 65.8068 60.3424 65.4521 59.9224C65.3775 59.8291 65.3448 59.7311 65.3541 59.6284C65.3728 59.5164 65.4335 59.4231 65.5361 59.3484C65.6295 59.2831 65.7275 59.2597 65.8301 59.2784C65.9421 59.2971 66.0308 59.3484 66.0961 59.4324C66.3668 59.7497 66.6935 59.9737 67.0761 60.1044C67.4681 60.2257 67.8928 60.2864 68.3501 60.2864C69.1341 60.2864 69.6895 60.1464 70.0161 59.8664C70.3428 59.5864 70.5061 59.2597 70.5061 58.8864C70.5061 58.5224 70.3288 58.2237 69.9741 57.9904C69.6288 57.7477 69.0921 57.5751 68.3641 57.4724C67.4308 57.3417 66.7401 57.0897 66.2921 56.7164C65.8441 56.3431 65.6201 55.9091 65.6201 55.4144C65.6201 54.9477 65.7368 54.5557 65.9701 54.2384C66.2035 53.9117 66.5208 53.6691 66.9221 53.5104C67.3328 53.3424 67.7995 53.2584 68.3221 53.2584C68.9568 53.2584 69.4935 53.3751 69.9321 53.6084C70.3708 53.8324 70.7255 54.1357 70.9961 54.5184C71.0708 54.6117 71.0941 54.7144 71.0661 54.8264C71.0475 54.9291 70.9775 55.0131 70.8561 55.0784C70.7628 55.1251 70.6648 55.1391 70.5621 55.1204C70.4595 55.1017 70.3708 55.0457 70.2961 54.9524C70.0628 54.6537 69.7781 54.4297 69.4421 54.2804C69.1155 54.1217 68.7328 54.0424 68.2941 54.0424C67.7061 54.0424 67.2488 54.1684 66.9221 54.4204C66.5955 54.6724 66.4321 54.9757 66.4321 55.3304C66.4321 55.5731 66.4975 55.7877 66.6281 55.9744C66.7681 56.1517 66.9921 56.3057 67.3001 56.4364C67.6081 56.5577 68.0188 56.6557 68.5321 56.7304C69.2321 56.8237 69.7828 56.9824 70.1841 57.2064C70.5948 57.4304 70.8841 57.6917 71.0521 57.9904C71.2295 58.2797 71.3181 58.5924 71.3181 58.9284C71.3181 59.3671 71.1781 59.7497 70.8981 60.0764C70.6181 60.4031 70.2495 60.6551 69.7921 60.8324C69.3348 61.0004 68.8401 61.0844 68.3081 61.0844Z"
		  fill="white"/>
</svg>
