<svg width="80" height="80" viewBox="0 0 80 80" fill="none" xmlns="http://www.w3.org/2000/svg">
	<path d="M0 10C0 4.47715 4.47715 0 10 0H70C75.5228 0 80 4.47715 80 10V70C80 75.5228 75.5228 80 70 80H10C4.47715 80 0 75.5228 0 70V10Z"
		  fill="#4272F9"/>
	<path fill-rule="evenodd" clip-rule="evenodd"
		  d="M69.1899 17.669C70.1274 17.6112 70.6622 18.8303 70.0393 19.6052L64.4947 26.5031C63.8454 27.3109 62.6353 26.7945 62.6481 25.715L62.681 22.9163C62.6854 22.5496 62.5329 22.2021 62.2695 21.9782L60.2594 20.2699C59.4841 19.611 59.8679 18.244 60.8451 18.1837L69.1899 17.669ZM25.0719 35.7833C25.0719 42.3911 19.6705 47.7457 13.0144 47.7457C11.3465 47.7457 10 46.4014 10 44.7532C10 43.1051 11.3465 41.7683 13.0144 41.7683C16.3425 41.7683 19.0432 39.0872 19.0432 35.7833V26.8133C19.0432 25.1576 20.3897 23.8208 22.0575 23.8208C23.7254 23.8208 25.0719 25.1576 25.0719 26.8133V35.7833ZM57.5722 35.7833C57.5722 39.0872 60.2729 41.7683 63.601 41.7683C65.2689 41.7683 66.6154 43.0975 66.6154 44.7532C66.6154 46.409 65.2689 47.7457 63.601 47.7457C56.9449 47.7457 51.5435 42.3911 51.5435 35.7833V26.8133C51.5435 25.1576 52.89 23.8208 54.5578 23.8208C56.2257 23.8208 57.5722 25.1652 57.5722 26.8133V29.4945H59.9669C61.6348 29.4945 62.9889 30.8388 62.9889 32.4946C62.9889 34.1503 61.6348 35.4947 59.9669 35.4947H57.5722V35.7833ZM49.8145 31.5908C49.8221 31.5832 49.8298 31.5832 49.8298 31.5832C48.8811 29.1072 47.1061 26.9349 44.6273 25.507C38.8739 22.1955 31.5292 24.1551 28.2165 29.8819C24.896 35.6011 26.8699 42.9152 32.6156 46.2192C36.8465 48.6496 41.9419 48.2243 45.6601 45.5508L45.6372 45.5204C46.494 44.9963 47.0602 44.0545 47.0602 42.9836C47.0602 41.3354 45.7137 39.9987 44.0535 39.9987C43.2501 39.9987 42.5157 40.3101 41.9801 40.8266C40.1745 42.0342 37.7722 42.2241 35.7448 41.1152L47.8865 35.5175C48.5903 35.3048 49.2177 34.8339 49.6079 34.1504C50.0822 33.3377 50.1281 32.4035 49.8145 31.5908ZM41.6205 30.6794C41.9801 30.8844 42.3014 31.1199 42.5998 31.3781L32.608 35.9732C32.585 34.9175 32.8451 33.8466 33.4113 32.8668C35.0715 30.011 38.7439 29.0312 41.6205 30.6794Z"
		  fill="white"/>
	<path d="M5.26281 60.9997C5.15015 60.9997 5.05481 60.965 4.97681 60.8957C4.90748 60.8177 4.87281 60.7223 4.87281 60.6097V53.8757C4.87281 53.2863 4.96381 52.7663 5.14581 52.3157C5.32781 51.8563 5.60948 51.4967 5.99081 51.2367C6.38081 50.9767 6.87481 50.8467 7.47281 50.8467C7.59415 50.8467 7.68948 50.8813 7.75881 50.9507C7.82815 51.0113 7.86281 51.0937 7.86281 51.1977C7.86281 51.3017 7.82815 51.3883 7.75881 51.4577C7.68948 51.5183 7.59415 51.5487 7.47281 51.5487C7.03081 51.5487 6.67548 51.6527 6.40681 51.8607C6.14681 52.06 5.95615 52.3373 5.83481 52.6927C5.72215 53.0393 5.66581 53.4337 5.66581 53.8757V60.6097C5.66581 60.7223 5.62681 60.8177 5.54881 60.8957C5.47948 60.965 5.38415 60.9997 5.26281 60.9997ZM3.85881 54.8507C3.75481 54.8507 3.66815 54.8203 3.59881 54.7597C3.53815 54.6903 3.50781 54.6037 3.50781 54.4997C3.50781 54.3957 3.53815 54.3133 3.59881 54.2527C3.66815 54.1833 3.75481 54.1487 3.85881 54.1487H7.38181C7.48581 54.1487 7.56815 54.1833 7.62881 54.2527C7.69815 54.3133 7.73281 54.3957 7.73281 54.4997C7.73281 54.6037 7.69815 54.6903 7.62881 54.7597C7.56815 54.8203 7.48581 54.8507 7.38181 54.8507H3.85881Z"
		  fill="white"/>
	<path d="M11.512 61.0777C10.8186 61.0777 10.1946 60.9217 9.63995 60.6097C9.09395 60.289 8.66062 59.8557 8.33995 59.3097C8.02795 58.755 7.87195 58.1353 7.87195 57.4507C7.87195 56.7573 8.02795 56.1377 8.33995 55.5917C8.66062 55.037 9.09395 54.6037 9.63995 54.2917C10.1946 53.971 10.8186 53.8107 11.512 53.8107C12.2053 53.8107 12.825 53.971 13.371 54.2917C13.917 54.6037 14.346 55.037 14.658 55.5917C14.9786 56.1377 15.139 56.7573 15.139 57.4507C15.139 58.1353 14.9786 58.755 14.658 59.3097C14.346 59.8557 13.917 60.289 13.371 60.6097C12.825 60.9217 12.2053 61.0777 11.512 61.0777ZM11.512 60.3497C12.058 60.3497 12.5433 60.224 12.968 59.9727C13.4013 59.7127 13.7393 59.366 13.982 58.9327C14.2333 58.4907 14.359 57.9923 14.359 57.4377C14.359 56.8917 14.2333 56.402 13.982 55.9687C13.7393 55.5267 13.4013 55.18 12.968 54.9287C12.5433 54.6687 12.058 54.5387 11.512 54.5387C10.9746 54.5387 10.4893 54.6687 10.056 54.9287C9.62262 55.18 9.28029 55.5267 9.02895 55.9687C8.77762 56.402 8.65195 56.896 8.65195 57.4507C8.65195 57.9967 8.77762 58.4907 9.02895 58.9327C9.28029 59.366 9.62262 59.7127 10.056 59.9727C10.4893 60.224 10.9746 60.3497 11.512 60.3497Z"
		  fill="white"/>
	<path d="M16.8252 56.6577C16.8772 56.103 17.0289 55.6133 17.2802 55.1887C17.5315 54.7553 17.8565 54.4173 18.2552 54.1747C18.6539 53.932 19.0959 53.8107 19.5812 53.8107C19.9105 53.8107 20.1662 53.8497 20.3482 53.9277C20.5302 54.0057 20.5995 54.1443 20.5562 54.3437C20.5302 54.4737 20.4695 54.5517 20.3742 54.5777C20.2789 54.6037 20.1619 54.608 20.0232 54.5907C19.8932 54.5647 19.7459 54.5517 19.5812 54.5517C19.1479 54.5517 18.7622 54.6427 18.4242 54.8247C18.0862 55.0067 17.8219 55.258 17.6312 55.5787C17.4405 55.8907 17.3452 56.2503 17.3452 56.6577H16.8252ZM16.9552 60.9997C16.8425 60.9997 16.7472 60.965 16.6692 60.8957C16.5999 60.8177 16.5652 60.7223 16.5652 60.6097V54.2787C16.5652 54.1573 16.5999 54.062 16.6692 53.9927C16.7472 53.9233 16.8425 53.8887 16.9552 53.8887C17.0765 53.8887 17.1719 53.9233 17.2412 53.9927C17.3105 54.062 17.3452 54.1573 17.3452 54.2787V60.6097C17.3452 60.7223 17.3105 60.8177 17.2412 60.8957C17.1719 60.965 17.0765 60.9997 16.9552 60.9997Z"
		  fill="white"/>
	<path d="M31.5344 60.9997C31.4217 60.9997 31.3264 60.965 31.2484 60.8957C31.1791 60.8177 31.1444 60.7223 31.1444 60.6097V56.8527C31.1444 56.1853 30.9667 55.6393 30.6114 55.2147C30.2647 54.79 29.8097 54.5777 29.2464 54.5777C28.6484 54.5777 28.1587 54.777 27.7774 55.1757C27.4047 55.5657 27.2271 56.0943 27.2444 56.7617H26.4644C26.4817 56.1637 26.6117 55.6437 26.8544 55.2017C27.0971 54.7597 27.4264 54.4173 27.8424 54.1747C28.2584 53.9233 28.7264 53.7977 29.2464 53.7977C29.7751 53.7977 30.2387 53.9277 30.6374 54.1877C31.0361 54.4477 31.3481 54.8073 31.5734 55.2667C31.8074 55.726 31.9244 56.2547 31.9244 56.8527V60.6097C31.9244 60.7223 31.8897 60.8177 31.8204 60.8957C31.7511 60.965 31.6557 60.9997 31.5344 60.9997ZM22.1354 60.9997C22.0227 60.9997 21.9274 60.965 21.8494 60.8957C21.7801 60.8177 21.7454 60.7223 21.7454 60.6097V54.2787C21.7454 54.1573 21.7801 54.062 21.8494 53.9927C21.9274 53.9233 22.0227 53.8887 22.1354 53.8887C22.2567 53.8887 22.3521 53.9233 22.4214 53.9927C22.4907 54.062 22.5254 54.1573 22.5254 54.2787V60.6097C22.5254 60.7223 22.4907 60.8177 22.4214 60.8957C22.3521 60.965 22.2567 60.9997 22.1354 60.9997ZM26.8544 60.9997C26.7417 60.9997 26.6464 60.965 26.5684 60.8957C26.4991 60.8177 26.4644 60.7223 26.4644 60.6097V56.8527C26.4644 56.1853 26.2867 55.6393 25.9314 55.2147C25.5847 54.79 25.1297 54.5777 24.5664 54.5777C23.9684 54.5777 23.4787 54.7683 23.0974 55.1497C22.7161 55.531 22.5254 56.025 22.5254 56.6317H21.8754C21.9014 56.077 22.0314 55.5873 22.2654 55.1627C22.5081 54.738 22.8287 54.4043 23.2274 54.1617C23.6261 53.919 24.0724 53.7977 24.5664 53.7977C25.0951 53.7977 25.5587 53.9277 25.9574 54.1877C26.3561 54.4477 26.6681 54.8073 26.8934 55.2667C27.1274 55.726 27.2444 56.2547 27.2444 56.8527V60.6097C27.2444 60.7223 27.2097 60.8177 27.1404 60.8957C27.0711 60.965 26.9757 60.9997 26.8544 60.9997Z"
		  fill="white"/>
	<path d="M37.243 61.0777C36.567 61.0777 35.956 60.9217 35.41 60.6097C34.864 60.2977 34.4307 59.873 34.11 59.3357C33.798 58.7983 33.6334 58.1917 33.616 57.5157V51.2367C33.616 51.1153 33.6507 51.02 33.72 50.9507C33.798 50.8813 33.8933 50.8467 34.006 50.8467C34.1273 50.8467 34.2227 50.8813 34.292 50.9507C34.3614 51.02 34.396 51.1153 34.396 51.2367V55.2927C34.6734 54.842 35.059 54.4823 35.553 54.2137C36.0557 53.945 36.619 53.8107 37.243 53.8107C37.9363 53.8107 38.556 53.971 39.102 54.2917C39.6567 54.6037 40.09 55.0327 40.402 55.5787C40.7227 56.1247 40.883 56.7443 40.883 57.4377C40.883 58.131 40.7227 58.755 40.402 59.3097C40.09 59.8557 39.6567 60.289 39.102 60.6097C38.556 60.9217 37.9363 61.0777 37.243 61.0777ZM37.243 60.3497C37.789 60.3497 38.2743 60.224 38.699 59.9727C39.1324 59.7127 39.4747 59.366 39.726 58.9327C39.9774 58.4907 40.103 57.9923 40.103 57.4377C40.103 56.883 39.9774 56.389 39.726 55.9557C39.4747 55.5223 39.1324 55.18 38.699 54.9287C38.2743 54.6687 37.789 54.5387 37.243 54.5387C36.7057 54.5387 36.2204 54.6687 35.787 54.9287C35.3537 55.18 35.0113 55.5223 34.76 55.9557C34.5173 56.389 34.396 56.883 34.396 57.4377C34.396 57.9923 34.5173 58.4907 34.76 58.9327C35.0113 59.366 35.3537 59.7127 35.787 59.9727C36.2204 60.224 36.7057 60.3497 37.243 60.3497Z"
		  fill="white"/>
	<path d="M45.4718 61.0907C44.8478 61.0907 44.2888 60.965 43.7948 60.7137C43.3008 60.4537 42.9065 60.0767 42.6118 59.5827C42.3258 59.0887 42.1828 58.4863 42.1828 57.7757V54.2787C42.1828 54.166 42.2175 54.075 42.2868 54.0057C42.3648 53.9277 42.4601 53.8887 42.5728 53.8887C42.6855 53.8887 42.7765 53.9277 42.8458 54.0057C42.9238 54.075 42.9628 54.166 42.9628 54.2787V57.7757C42.9628 58.339 43.0711 58.8113 43.2878 59.1927C43.5131 59.5653 43.8121 59.847 44.1848 60.0377C44.5661 60.2197 44.9951 60.3107 45.4718 60.3107C45.9398 60.3107 46.3601 60.2197 46.7328 60.0377C47.1055 59.8557 47.4001 59.613 47.6168 59.3097C47.8335 58.9977 47.9418 58.6467 47.9418 58.2567H48.5918C48.5571 58.794 48.3968 59.2793 48.1108 59.7127C47.8248 60.1373 47.4521 60.4753 46.9928 60.7267C46.5421 60.9693 46.0351 61.0907 45.4718 61.0907ZM48.3318 60.9997C48.2191 60.9997 48.1238 60.965 48.0458 60.8957C47.9765 60.8177 47.9418 60.7223 47.9418 60.6097V54.2787C47.9418 54.1573 47.9765 54.062 48.0458 53.9927C48.1238 53.9233 48.2191 53.8887 48.3318 53.8887C48.4531 53.8887 48.5485 53.9233 48.6178 53.9927C48.6871 54.062 48.7218 54.1573 48.7218 54.2787V60.6097C48.7218 60.7223 48.6871 60.8177 48.6178 60.8957C48.5485 60.965 48.4531 60.9997 48.3318 60.9997Z"
		  fill="white"/>
	<path d="M51.1899 60.9997C51.0772 60.9997 50.9819 60.965 50.9039 60.8957C50.8346 60.8177 50.7999 60.7223 50.7999 60.6097V54.2787C50.7999 54.1573 50.8346 54.062 50.9039 53.9927C50.9819 53.9233 51.0772 53.8887 51.1899 53.8887C51.3112 53.8887 51.4066 53.9233 51.4759 53.9927C51.5452 54.062 51.5799 54.1573 51.5799 54.2787V60.6097C51.5799 60.7223 51.5452 60.8177 51.4759 60.8957C51.4066 60.965 51.3112 60.9997 51.1899 60.9997ZM51.1769 52.3937C51.0122 52.3937 50.8692 52.3373 50.7479 52.2247C50.6352 52.1033 50.5789 51.956 50.5789 51.7827C50.5789 51.5833 50.6395 51.436 50.7609 51.3407C50.8909 51.2367 51.0339 51.1847 51.1899 51.1847C51.3372 51.1847 51.4715 51.2367 51.5929 51.3407C51.7229 51.436 51.7879 51.5833 51.7879 51.7827C51.7879 51.956 51.7272 52.1033 51.6059 52.2247C51.4932 52.3373 51.3502 52.3937 51.1769 52.3937Z"
		  fill="white"/>
	<path d="M55.0934 60.9997C54.7641 60.9997 54.4694 60.9087 54.2094 60.7267C53.9581 60.5447 53.7588 60.2933 53.6114 59.9727C53.4728 59.652 53.4034 59.2793 53.4034 58.8547V51.2367C53.4034 51.1153 53.4381 51.02 53.5074 50.9507C53.5854 50.8813 53.6808 50.8467 53.7934 50.8467C53.9148 50.8467 54.0101 50.8813 54.0794 50.9507C54.1488 51.02 54.1834 51.1153 54.1834 51.2367V58.8547C54.1834 59.2533 54.2658 59.5827 54.4304 59.8427C54.6038 60.094 54.8248 60.2197 55.0934 60.2197H55.4184C55.5138 60.2197 55.5918 60.2543 55.6524 60.3237C55.7131 60.393 55.7434 60.4883 55.7434 60.6097C55.7434 60.7223 55.7088 60.8177 55.6394 60.8957C55.5701 60.965 55.4748 60.9997 55.3534 60.9997H55.0934Z"
		  fill="white"/>
	<path d="M59.5038 61.0777C58.8105 61.0777 58.1865 60.9217 57.6318 60.6097C57.0858 60.289 56.6525 59.8557 56.3318 59.3097C56.0198 58.755 55.8638 58.131 55.8638 57.4377C55.8638 56.7443 56.0198 56.1247 56.3318 55.5787C56.6525 55.0327 57.0858 54.6037 57.6318 54.2917C58.1865 53.971 58.8105 53.8107 59.5038 53.8107C60.1278 53.8107 60.6868 53.945 61.1808 54.2137C61.6835 54.4823 62.0735 54.842 62.3508 55.2927V51.2367C62.3508 51.1153 62.3855 51.02 62.4548 50.9507C62.5328 50.8813 62.6281 50.8467 62.7408 50.8467C62.8621 50.8467 62.9575 50.8813 63.0268 50.9507C63.0961 51.02 63.1308 51.1153 63.1308 51.2367V57.5157C63.1221 58.1917 62.9575 58.7983 62.6368 59.3357C62.3161 59.873 61.8828 60.2977 61.3368 60.6097C60.7995 60.9217 60.1885 61.0777 59.5038 61.0777ZM59.5038 60.3497C60.0498 60.3497 60.5351 60.224 60.9598 59.9727C61.3931 59.7127 61.7311 59.366 61.9738 58.9327C62.2251 58.4907 62.3508 57.9923 62.3508 57.4377C62.3508 56.883 62.2251 56.389 61.9738 55.9557C61.7311 55.5223 61.3931 55.18 60.9598 54.9287C60.5351 54.6687 60.0498 54.5387 59.5038 54.5387C58.9665 54.5387 58.4811 54.6687 58.0478 54.9287C57.6145 55.18 57.2721 55.5223 57.0208 55.9557C56.7695 56.389 56.6438 56.883 56.6438 57.4377C56.6438 57.9923 56.7695 58.4907 57.0208 58.9327C57.2721 59.366 57.6145 59.7127 58.0478 59.9727C58.4811 60.224 58.9665 60.3497 59.5038 60.3497Z"
		  fill="white"/>
	<path d="M68.0966 61.0647C67.4119 61.0647 66.8009 60.913 66.2636 60.6097C65.7349 60.2977 65.3189 59.8687 65.0156 59.3227C64.7123 58.7767 64.5606 58.1527 64.5606 57.4507C64.5606 56.74 64.7036 56.116 64.9896 55.5787C65.2756 55.0327 65.6699 54.6037 66.1726 54.2917C66.6753 53.9797 67.2516 53.8237 67.9016 53.8237C68.5429 53.8237 69.1106 53.9753 69.6046 54.2787C70.0986 54.5733 70.4843 54.985 70.7616 55.5137C71.0389 56.0337 71.1776 56.636 71.1776 57.3207C71.1776 57.4333 71.1429 57.5243 71.0736 57.5937C71.0042 57.6543 70.9132 57.6847 70.8006 57.6847H65.0806V57.0087H71.0086L70.4366 57.4377C70.4539 56.8743 70.3586 56.376 70.1506 55.9427C69.9426 55.5093 69.6436 55.1713 69.2536 54.9287C68.8723 54.6773 68.4216 54.5517 67.9016 54.5517C67.4076 54.5517 66.9656 54.6773 66.5756 54.9287C66.1943 55.1713 65.8909 55.5093 65.6656 55.9427C65.4489 56.376 65.3406 56.8787 65.3406 57.4507C65.3406 58.014 65.4576 58.5123 65.6916 58.9457C65.9256 59.379 66.2506 59.7213 66.6666 59.9727C67.0826 60.2153 67.5593 60.3367 68.0966 60.3367C68.4346 60.3367 68.7726 60.2803 69.1106 60.1677C69.4573 60.0463 69.7303 59.8903 69.9296 59.6997C69.9989 59.6303 70.0813 59.5957 70.1766 59.5957C70.2806 59.587 70.3672 59.613 70.4366 59.6737C70.5319 59.7517 70.5796 59.8383 70.5796 59.9337C70.5883 60.029 70.5493 60.1157 70.4626 60.1937C70.1852 60.445 69.8213 60.653 69.3706 60.8177C68.9286 60.9823 68.5039 61.0647 68.0966 61.0647Z"
		  fill="white"/>
	<path d="M72.6125 56.6577C72.6645 56.103 72.8161 55.6133 73.0675 55.1887C73.3188 54.7553 73.6438 54.4173 74.0425 54.1747C74.4411 53.932 74.8831 53.8107 75.3685 53.8107C75.6978 53.8107 75.9535 53.8497 76.1355 53.9277C76.3175 54.0057 76.3868 54.1443 76.3435 54.3437C76.3175 54.4737 76.2568 54.5517 76.1615 54.5777C76.0661 54.6037 75.9491 54.608 75.8105 54.5907C75.6805 54.5647 75.5331 54.5517 75.3685 54.5517C74.9351 54.5517 74.5495 54.6427 74.2115 54.8247C73.8735 55.0067 73.6091 55.258 73.4185 55.5787C73.2278 55.8907 73.1325 56.2503 73.1325 56.6577H72.6125ZM72.7425 60.9997C72.6298 60.9997 72.5345 60.965 72.4565 60.8957C72.3871 60.8177 72.3525 60.7223 72.3525 60.6097V54.2787C72.3525 54.1573 72.3871 54.062 72.4565 53.9927C72.5345 53.9233 72.6298 53.8887 72.7425 53.8887C72.8638 53.8887 72.9591 53.9233 73.0285 53.9927C73.0978 54.062 73.1325 54.1573 73.1325 54.2787V60.6097C73.1325 60.7223 73.0978 60.8177 73.0285 60.8957C72.9591 60.965 72.8638 60.9997 72.7425 60.9997Z"
		  fill="white"/>
</svg>
