<svg width="80" height="80" viewBox="0 0 80 80" fill="none" xmlns="http://www.w3.org/2000/svg">
	<path d="M0 10C0 4.47715 4.47715 0 10 0H70C75.5228 0 80 4.47715 80 10V70C80 75.5228 75.5228 80 70 80H10C4.47715 80 0 75.5228 0 70V10Z"
		  fill="#1ABC48"/>
	<path fill-rule="evenodd" clip-rule="evenodd"
		  d="M69.1899 17.669C70.1274 17.6112 70.6622 18.8303 70.0393 19.6052L64.4947 26.5031C63.8454 27.3109 62.6353 26.7945 62.6481 25.715L62.681 22.9163C62.6854 22.5496 62.5329 22.2021 62.2695 21.9782L60.2594 20.2699C59.4841 19.611 59.8679 18.244 60.8451 18.1837L69.1899 17.669ZM25.0719 35.7833C25.0719 42.3911 19.6705 47.7457 13.0144 47.7457C11.3465 47.7457 10 46.4014 10 44.7532C10 43.1051 11.3465 41.7683 13.0144 41.7683C16.3425 41.7683 19.0432 39.0872 19.0432 35.7833V26.8133C19.0432 25.1576 20.3897 23.8208 22.0575 23.8208C23.7254 23.8208 25.0719 25.1576 25.0719 26.8133V35.7833ZM57.5722 35.7833C57.5722 39.0872 60.2729 41.7683 63.601 41.7683C65.2689 41.7683 66.6154 43.0975 66.6154 44.7532C66.6154 46.409 65.2689 47.7457 63.601 47.7457C56.9449 47.7457 51.5435 42.3911 51.5435 35.7833V26.8133C51.5435 25.1576 52.89 23.8208 54.5578 23.8208C56.2257 23.8208 57.5722 25.1652 57.5722 26.8133V29.4945H59.9669C61.6348 29.4945 62.9889 30.8388 62.9889 32.4946C62.9889 34.1503 61.6348 35.4947 59.9669 35.4947H57.5722V35.7833ZM49.8145 31.5908C49.8221 31.5832 49.8298 31.5832 49.8298 31.5832C48.8811 29.1072 47.1061 26.9349 44.6273 25.507C38.8739 22.1955 31.5292 24.1551 28.2165 29.8819C24.896 35.6011 26.8699 42.9152 32.6156 46.2192C36.8465 48.6496 41.9419 48.2243 45.6601 45.5508L45.6372 45.5204C46.494 44.9963 47.0602 44.0545 47.0602 42.9836C47.0602 41.3354 45.7137 39.9987 44.0535 39.9987C43.2501 39.9987 42.5157 40.3101 41.9801 40.8266C40.1745 42.0342 37.7722 42.2241 35.7448 41.1152L47.8865 35.5175C48.5903 35.3048 49.2177 34.8339 49.6079 34.1504C50.0822 33.3377 50.1281 32.4035 49.8145 31.5908ZM41.6205 30.6794C41.9801 30.8844 42.3014 31.1199 42.5998 31.3781L32.608 35.9732C32.585 34.9175 32.8451 33.8466 33.4113 32.8668C35.0715 30.011 38.7439 29.0312 41.6205 30.6794Z"
		  fill="white"/>
	<path d="M9.1075 61.0844C8.34217 61.0844 7.6655 60.9164 7.0775 60.5804C6.4895 60.2444 6.0275 59.7824 5.6915 59.1944C5.3555 58.6064 5.1875 57.9344 5.1875 57.1784C5.1875 56.4131 5.36017 55.7364 5.7055 55.1484C6.05083 54.5604 6.5175 54.0984 7.1055 53.7624C7.70283 53.4264 8.37017 53.2584 9.1075 53.2584C9.87283 53.2584 10.5448 53.4264 11.1235 53.7624C11.7115 54.0984 12.1735 54.5604 12.5095 55.1484C12.8455 55.7364 13.0135 56.4131 13.0135 57.1784L12.5235 57.7384C12.5235 58.3917 12.3788 58.9704 12.0895 59.4744C11.8002 59.9784 11.3988 60.3751 10.8855 60.6644C10.3722 60.9444 9.7795 61.0844 9.1075 61.0844ZM9.1635 63.9264C8.38883 63.9264 7.72617 63.7817 7.1755 63.4924C6.63417 63.2031 6.18617 62.8344 5.8315 62.3864C5.75683 62.2931 5.7195 62.1951 5.7195 62.0924C5.7195 61.9897 5.76617 61.9057 5.8595 61.8404C5.95283 61.7657 6.06017 61.7377 6.1815 61.7564C6.31217 61.7751 6.41017 61.8357 6.4755 61.9384C6.76483 62.2837 7.1335 62.5684 7.5815 62.7924C8.0295 63.0257 8.55683 63.1424 9.1635 63.1424C9.74217 63.1424 10.2555 63.0024 10.7035 62.7224C11.1608 62.4424 11.5202 62.0551 11.7815 61.5604C12.0428 61.0751 12.1735 60.5291 12.1735 59.9224V57.6964L12.5515 57.1784H13.0135V59.9224C13.0135 60.6784 12.8455 61.3597 12.5095 61.9664C12.1735 62.5731 11.7162 63.0491 11.1375 63.3944C10.5588 63.7491 9.90083 63.9264 9.1635 63.9264ZM9.1075 60.3004C9.70483 60.3004 10.2322 60.1697 10.6895 59.9084C11.1562 59.6377 11.5202 59.2691 11.7815 58.8024C12.0428 58.3264 12.1735 57.7851 12.1735 57.1784C12.1735 56.5624 12.0428 56.0211 11.7815 55.5544C11.5202 55.0784 11.1562 54.7097 10.6895 54.4484C10.2322 54.1777 9.70483 54.0424 9.1075 54.0424C8.51017 54.0424 7.97817 54.1777 7.5115 54.4484C7.04483 54.7097 6.68083 55.0784 6.4195 55.5544C6.15817 56.0211 6.0275 56.5624 6.0275 57.1784C6.0275 57.7851 6.15817 58.3264 6.4195 58.8024C6.68083 59.2691 7.04483 59.6377 7.5115 59.9084C7.97817 60.1697 8.51017 60.3004 9.1075 60.3004Z"
		  fill="white"/>
	<path d="M14.5495 56.3244C14.6055 55.7271 14.7688 55.1997 15.0395 54.7424C15.3101 54.2757 15.6601 53.9117 16.0895 53.6504C16.5188 53.3891 16.9948 53.2584 17.5175 53.2584C17.8721 53.2584 18.1475 53.3004 18.3435 53.3844C18.5395 53.4684 18.6141 53.6177 18.5675 53.8324C18.5395 53.9724 18.4741 54.0564 18.3715 54.0844C18.2688 54.1124 18.1428 54.1171 17.9935 54.0984C17.8535 54.0704 17.6948 54.0564 17.5175 54.0564C17.0508 54.0564 16.6355 54.1544 16.2715 54.3504C15.9075 54.5464 15.6228 54.8171 15.4175 55.1624C15.2121 55.4984 15.1095 55.8857 15.1095 56.3244H14.5495ZM14.6895 61.0004C14.5681 61.0004 14.4655 60.9631 14.3815 60.8884C14.3068 60.8044 14.2695 60.7017 14.2695 60.5804V53.7624C14.2695 53.6317 14.3068 53.5291 14.3815 53.4544C14.4655 53.3797 14.5681 53.3424 14.6895 53.3424C14.8201 53.3424 14.9228 53.3797 14.9975 53.4544C15.0721 53.5291 15.1095 53.6317 15.1095 53.7624V60.5804C15.1095 60.7017 15.0721 60.8044 14.9975 60.8884C14.9228 60.9631 14.8201 61.0004 14.6895 61.0004Z"
		  fill="white"/>
	<path d="M20.2681 61.0004C20.1468 61.0004 20.0441 60.9631 19.9601 60.8884C19.8855 60.8044 19.8481 60.7017 19.8481 60.5804V53.7624C19.8481 53.6317 19.8855 53.5291 19.9601 53.4544C20.0441 53.3797 20.1468 53.3424 20.2681 53.3424C20.3988 53.3424 20.5015 53.3797 20.5761 53.4544C20.6508 53.5291 20.6881 53.6317 20.6881 53.7624V60.5804C20.6881 60.7017 20.6508 60.8044 20.5761 60.8884C20.5015 60.9631 20.3988 61.0004 20.2681 61.0004ZM20.2541 51.7324C20.0768 51.7324 19.9228 51.6717 19.7921 51.5504C19.6708 51.4197 19.6101 51.2611 19.6101 51.0744C19.6101 50.8597 19.6755 50.7011 19.8061 50.5984C19.9461 50.4864 20.1001 50.4304 20.2681 50.4304C20.4268 50.4304 20.5715 50.4864 20.7021 50.5984C20.8421 50.7011 20.9121 50.8597 20.9121 51.0744C20.9121 51.2611 20.8468 51.4197 20.7161 51.5504C20.5948 51.6717 20.4408 51.7324 20.2541 51.7324Z"
		  fill="white"/>
	<path d="M26.152 61.0844C25.4053 61.0844 24.7333 60.9164 24.136 60.5804C23.548 60.2351 23.0813 59.7684 22.736 59.1804C22.4 58.5831 22.232 57.9111 22.232 57.1644C22.232 56.4177 22.4 55.7504 22.736 55.1624C23.0813 54.5744 23.548 54.1124 24.136 53.7764C24.7333 53.4311 25.4053 53.2584 26.152 53.2584C26.824 53.2584 27.426 53.4031 27.958 53.6924C28.4993 53.9817 28.9193 54.3691 29.218 54.8544V50.4864C29.218 50.3557 29.2553 50.2531 29.33 50.1784C29.414 50.1037 29.5166 50.0664 29.638 50.0664C29.7686 50.0664 29.8713 50.1037 29.946 50.1784C30.0206 50.2531 30.058 50.3557 30.058 50.4864V57.2484C30.0486 57.9764 29.8713 58.6297 29.526 59.2084C29.1806 59.7871 28.714 60.2444 28.126 60.5804C27.5473 60.9164 26.8893 61.0844 26.152 61.0844ZM26.152 60.3004C26.74 60.3004 27.2626 60.1651 27.72 59.8944C28.1866 59.6144 28.5506 59.2411 28.812 58.7744C29.0826 58.2984 29.218 57.7617 29.218 57.1644C29.218 56.5671 29.0826 56.0351 28.812 55.5684C28.5506 55.1017 28.1866 54.7331 27.72 54.4624C27.2626 54.1824 26.74 54.0424 26.152 54.0424C25.5733 54.0424 25.0506 54.1824 24.584 54.4624C24.1173 54.7331 23.7486 55.1017 23.478 55.5684C23.2073 56.0351 23.072 56.5671 23.072 57.1644C23.072 57.7617 23.2073 58.2984 23.478 58.7744C23.7486 59.2411 24.1173 59.6144 24.584 59.8944C25.0506 60.1651 25.5733 60.3004 26.152 60.3004Z"
		  fill="white"/>
	<path d="M35.6437 61.0844C34.9157 61.0844 34.2577 60.9164 33.6697 60.5804C33.0817 60.2444 32.6151 59.7871 32.2697 59.2084C31.9337 58.6297 31.7564 57.9764 31.7377 57.2484V50.4864C31.7377 50.3557 31.7751 50.2531 31.8497 50.1784C31.9337 50.1037 32.0364 50.0664 32.1577 50.0664C32.2884 50.0664 32.3911 50.1037 32.4657 50.1784C32.5404 50.2531 32.5777 50.3557 32.5777 50.4864V54.8544C32.8764 54.3691 33.2917 53.9817 33.8237 53.6924C34.3651 53.4031 34.9717 53.2584 35.6437 53.2584C36.3904 53.2584 37.0577 53.4311 37.6457 53.7764C38.2431 54.1124 38.7097 54.5744 39.0457 55.1624C39.3911 55.7504 39.5637 56.4177 39.5637 57.1644C39.5637 57.9111 39.3911 58.5831 39.0457 59.1804C38.7097 59.7684 38.2431 60.2351 37.6457 60.5804C37.0577 60.9164 36.3904 61.0844 35.6437 61.0844ZM35.6437 60.3004C36.2317 60.3004 36.7544 60.1651 37.2117 59.8944C37.6784 59.6144 38.0471 59.2411 38.3177 58.7744C38.5884 58.2984 38.7237 57.7617 38.7237 57.1644C38.7237 56.5671 38.5884 56.0351 38.3177 55.5684C38.0471 55.1017 37.6784 54.7331 37.2117 54.4624C36.7544 54.1824 36.2317 54.0424 35.6437 54.0424C35.0651 54.0424 34.5424 54.1824 34.0757 54.4624C33.6091 54.7331 33.2404 55.1017 32.9697 55.5684C32.7084 56.0351 32.5777 56.5671 32.5777 57.1644C32.5777 57.7617 32.7084 58.2984 32.9697 58.7744C33.2404 59.2411 33.6091 59.6144 34.0757 59.8944C34.5424 60.1651 35.0651 60.3004 35.6437 60.3004Z"
		  fill="white"/>
	<path d="M44.2255 61.0984C43.5535 61.0984 42.9515 60.9631 42.4195 60.6924C41.8875 60.4124 41.4628 60.0064 41.1455 59.4744C40.8375 58.9424 40.6835 58.2937 40.6835 57.5284V53.7624C40.6835 53.6411 40.7208 53.5431 40.7955 53.4684C40.8795 53.3844 40.9822 53.3424 41.1035 53.3424C41.2248 53.3424 41.3228 53.3844 41.3975 53.4684C41.4815 53.5431 41.5235 53.6411 41.5235 53.7624V57.5284C41.5235 58.1351 41.6402 58.6437 41.8735 59.0544C42.1162 59.4557 42.4382 59.7591 42.8395 59.9644C43.2502 60.1604 43.7122 60.2584 44.2255 60.2584C44.7295 60.2584 45.1822 60.1604 45.5835 59.9644C45.9848 59.7684 46.3022 59.5071 46.5355 59.1804C46.7688 58.8444 46.8855 58.4664 46.8855 58.0464H47.5855C47.5482 58.6251 47.3755 59.1477 47.0675 59.6144C46.7595 60.0717 46.3582 60.4357 45.8635 60.7064C45.3782 60.9677 44.8322 61.0984 44.2255 61.0984ZM47.3055 61.0004C47.1842 61.0004 47.0815 60.9631 46.9975 60.8884C46.9229 60.8044 46.8855 60.7017 46.8855 60.5804V53.7624C46.8855 53.6317 46.9229 53.5291 46.9975 53.4544C47.0815 53.3797 47.1842 53.3424 47.3055 53.3424C47.4362 53.3424 47.5388 53.3797 47.6135 53.4544C47.6882 53.5291 47.7255 53.6317 47.7255 53.7624V60.5804C47.7255 60.7017 47.6882 60.8044 47.6135 60.8884C47.5388 60.9631 47.4362 61.0004 47.3055 61.0004Z"
		  fill="white"/>
	<path d="M50.1034 61.0004C49.9821 61.0004 49.8794 60.9631 49.7954 60.8884C49.7208 60.8044 49.6834 60.7017 49.6834 60.5804V53.7624C49.6834 53.6317 49.7208 53.5291 49.7954 53.4544C49.8794 53.3797 49.9821 53.3424 50.1034 53.3424C50.2341 53.3424 50.3368 53.3797 50.4114 53.4544C50.4861 53.5291 50.5234 53.6317 50.5234 53.7624V60.5804C50.5234 60.7017 50.4861 60.8044 50.4114 60.8884C50.3368 60.9631 50.2341 61.0004 50.1034 61.0004ZM50.0894 51.7324C49.9121 51.7324 49.7581 51.6717 49.6274 51.5504C49.5061 51.4197 49.4454 51.2611 49.4454 51.0744C49.4454 50.8597 49.5108 50.7011 49.6414 50.5984C49.7814 50.4864 49.9354 50.4304 50.1034 50.4304C50.2621 50.4304 50.4068 50.4864 50.5374 50.5984C50.6774 50.7011 50.7474 50.8597 50.7474 51.0744C50.7474 51.2611 50.6821 51.4197 50.5514 51.5504C50.4301 51.6717 50.2761 51.7324 50.0894 51.7324Z"
		  fill="white"/>
	<path d="M54.0273 61.0004C53.6726 61.0004 53.3553 60.9024 53.0753 60.7064C52.8046 60.5104 52.5899 60.2397 52.4313 59.8944C52.2819 59.5491 52.2073 59.1477 52.2073 58.6904V50.4864C52.2073 50.3557 52.2446 50.2531 52.3193 50.1784C52.4033 50.1037 52.5059 50.0664 52.6273 50.0664C52.7579 50.0664 52.8606 50.1037 52.9353 50.1784C53.0099 50.2531 53.0473 50.3557 53.0473 50.4864V58.6904C53.0473 59.1197 53.1359 59.4744 53.3133 59.7544C53.4999 60.0251 53.7379 60.1604 54.0273 60.1604H54.3773C54.4799 60.1604 54.5639 60.1977 54.6293 60.2724C54.6946 60.3471 54.7273 60.4497 54.7273 60.5804C54.7273 60.7017 54.6899 60.8044 54.6153 60.8884C54.5406 60.9631 54.4379 61.0004 54.3073 61.0004H54.0273Z"
		  fill="white"/>
	<path d="M58.4969 61.0844C57.7502 61.0844 57.0782 60.9164 56.4809 60.5804C55.8929 60.2351 55.4262 59.7684 55.0809 59.1804C54.7449 58.5831 54.5769 57.9111 54.5769 57.1644C54.5769 56.4177 54.7449 55.7504 55.0809 55.1624C55.4262 54.5744 55.8929 54.1124 56.4809 53.7764C57.0782 53.4311 57.7502 53.2584 58.4969 53.2584C59.1689 53.2584 59.7709 53.4031 60.3029 53.6924C60.8442 53.9817 61.2642 54.3691 61.5629 54.8544V50.4864C61.5629 50.3557 61.6002 50.2531 61.6749 50.1784C61.7589 50.1037 61.8615 50.0664 61.9829 50.0664C62.1135 50.0664 62.2162 50.1037 62.2909 50.1784C62.3655 50.2531 62.4029 50.3557 62.4029 50.4864V57.2484C62.3935 57.9764 62.2162 58.6297 61.8709 59.2084C61.5255 59.7871 61.0589 60.2444 60.4709 60.5804C59.8922 60.9164 59.2342 61.0844 58.4969 61.0844ZM58.4969 60.3004C59.0849 60.3004 59.6075 60.1651 60.0649 59.8944C60.5315 59.6144 60.8955 59.2411 61.1569 58.7744C61.4275 58.2984 61.5629 57.7617 61.5629 57.1644C61.5629 56.5671 61.4275 56.0351 61.1569 55.5684C60.8955 55.1017 60.5315 54.7331 60.0649 54.4624C59.6075 54.1824 59.0849 54.0424 58.4969 54.0424C57.9182 54.0424 57.3955 54.1824 56.9289 54.4624C56.4622 54.7331 56.0935 55.1017 55.8229 55.5684C55.5522 56.0351 55.4169 56.5671 55.4169 57.1644C55.4169 57.7617 55.5522 58.2984 55.8229 58.7744C56.0935 59.2411 56.4622 59.6144 56.9289 59.8944C57.3955 60.1651 57.9182 60.3004 58.4969 60.3004Z"
		  fill="white"/>
	<path d="M67.4707 61.0704C66.7333 61.0704 66.0753 60.9071 65.4967 60.5804C64.9273 60.2444 64.4793 59.7824 64.1527 59.1944C63.826 58.6064 63.6627 57.9344 63.6627 57.1784C63.6627 56.4131 63.8167 55.7411 64.1247 55.1624C64.4327 54.5744 64.8573 54.1124 65.3987 53.7764C65.94 53.4404 66.5607 53.2724 67.2607 53.2724C67.9513 53.2724 68.5627 53.4357 69.0947 53.7624C69.6267 54.0797 70.042 54.5231 70.3407 55.0924C70.6393 55.6524 70.7887 56.3011 70.7887 57.0384C70.7887 57.1597 70.7513 57.2577 70.6767 57.3324C70.602 57.3977 70.504 57.4304 70.3827 57.4304H64.2227V56.7024H70.6067L69.9907 57.1644C70.0093 56.5577 69.9067 56.0211 69.6827 55.5544C69.4587 55.0877 69.1367 54.7237 68.7167 54.4624C68.306 54.1917 67.8207 54.0564 67.2607 54.0564C66.7287 54.0564 66.2527 54.1917 65.8327 54.4624C65.422 54.7237 65.0953 55.0877 64.8527 55.5544C64.6193 56.0211 64.5027 56.5624 64.5027 57.1784C64.5027 57.7851 64.6287 58.3217 64.8807 58.7884C65.1327 59.2551 65.4827 59.6237 65.9307 59.8944C66.3787 60.1557 66.892 60.2864 67.4707 60.2864C67.8347 60.2864 68.1987 60.2257 68.5627 60.1044C68.936 59.9737 69.23 59.8057 69.4447 59.6004C69.5193 59.5257 69.608 59.4884 69.7107 59.4884C69.8227 59.4791 69.916 59.5071 69.9907 59.5724C70.0933 59.6564 70.1447 59.7497 70.1447 59.8524C70.154 59.9551 70.112 60.0484 70.0187 60.1324C69.72 60.4031 69.328 60.6271 68.8427 60.8044C68.3666 60.9817 67.9093 61.0704 67.4707 61.0704Z"
		  fill="white"/>
	<path d="M72.0539 56.3244C72.1099 55.7271 72.2732 55.1997 72.5439 54.7424C72.8146 54.2757 73.1646 53.9117 73.5939 53.6504C74.0232 53.3891 74.4992 53.2584 75.0219 53.2584C75.3766 53.2584 75.6519 53.3004 75.8479 53.3844C76.0439 53.4684 76.1186 53.6177 76.0719 53.8324C76.0439 53.9724 75.9786 54.0564 75.8759 54.0844C75.7732 54.1124 75.6472 54.1171 75.4979 54.0984C75.3579 54.0704 75.1992 54.0564 75.0219 54.0564C74.5552 54.0564 74.1399 54.1544 73.7759 54.3504C73.4119 54.5464 73.1272 54.8171 72.9219 55.1624C72.7166 55.4984 72.6139 55.8857 72.6139 56.3244H72.0539ZM72.1939 61.0004C72.0726 61.0004 71.9699 60.9631 71.8859 60.8884C71.8112 60.8044 71.7739 60.7017 71.7739 60.5804V53.7624C71.7739 53.6317 71.8112 53.5291 71.8859 53.4544C71.9699 53.3797 72.0726 53.3424 72.1939 53.3424C72.3246 53.3424 72.4272 53.3797 72.5019 53.4544C72.5766 53.5291 72.6139 53.6317 72.6139 53.7624V60.5804C72.6139 60.7017 72.5766 60.8044 72.5019 60.8884C72.4272 60.9631 72.3246 61.0004 72.1939 61.0004Z"
		  fill="white"/>
</svg>
