<svg width="80" height="80" viewBox="0 0 80 80" fill="none" xmlns="http://www.w3.org/2000/svg">
	<path d="M0 10C0 4.47715 4.47715 0 10 0H70C75.5228 0 80 4.47715 80 10V70C80 75.5228 75.5228 80 70 80H10C4.47715 80 0 75.5228 0 70V10Z"
		  fill="#6AAC1E"/>
	<path fill-rule="evenodd" clip-rule="evenodd"
		  d="M69.1899 17.669C70.1274 17.6112 70.6622 18.8303 70.0393 19.6052L64.4947 26.5031C63.8454 27.3109 62.6353 26.7945 62.6481 25.715L62.681 22.9163C62.6854 22.5496 62.5329 22.2021 62.2695 21.9782L60.2594 20.2699C59.4841 19.611 59.8679 18.244 60.8451 18.1837L69.1899 17.669ZM25.0719 35.7833C25.0719 42.3911 19.6705 47.7457 13.0144 47.7457C11.3465 47.7457 10 46.4014 10 44.7532C10 43.1051 11.3465 41.7683 13.0144 41.7683C16.3425 41.7683 19.0432 39.0872 19.0432 35.7833V26.8133C19.0432 25.1576 20.3897 23.8208 22.0575 23.8208C23.7254 23.8208 25.0719 25.1576 25.0719 26.8133V35.7833ZM57.5722 35.7833C57.5722 39.0872 60.2729 41.7683 63.601 41.7683C65.2689 41.7683 66.6154 43.0975 66.6154 44.7532C66.6154 46.409 65.2689 47.7457 63.601 47.7457C56.9449 47.7457 51.5435 42.3911 51.5435 35.7833V26.8133C51.5435 25.1576 52.89 23.8208 54.5578 23.8208C56.2257 23.8208 57.5722 25.1652 57.5722 26.8133V29.4945H59.9669C61.6348 29.4945 62.9889 30.8388 62.9889 32.4946C62.9889 34.1503 61.6348 35.4947 59.9669 35.4947H57.5722V35.7833ZM49.8145 31.5908C49.8221 31.5832 49.8298 31.5832 49.8298 31.5832C48.8811 29.1072 47.1061 26.9349 44.6273 25.507C38.8739 22.1955 31.5292 24.1551 28.2165 29.8819C24.896 35.6011 26.8699 42.9152 32.6156 46.2192C36.8465 48.6496 41.9419 48.2243 45.6601 45.5508L45.6372 45.5204C46.494 44.9963 47.0602 44.0545 47.0602 42.9836C47.0602 41.3354 45.7137 39.9987 44.0535 39.9987C43.2501 39.9987 42.5157 40.3101 41.9801 40.8266C40.1745 42.0342 37.7722 42.2241 35.7448 41.1152L47.8865 35.5175C48.5903 35.3048 49.2177 34.8339 49.6079 34.1504C50.0822 33.3377 50.1281 32.4035 49.8145 31.5908ZM41.6205 30.6794C41.9801 30.8844 42.3014 31.1199 42.5998 31.3781L32.608 35.9732C32.585 34.9175 32.8451 33.8466 33.4113 32.8668C35.0715 30.011 38.7439 29.0312 41.6205 30.6794Z"
		  fill="white"/>
	<path d="M31.8643 61.0001C31.7429 61.0001 31.6403 60.9628 31.5563 60.8881C31.4816 60.8041 31.4443 60.7015 31.4443 60.5801V56.5341C31.4443 55.8155 31.2529 55.2275 30.8703 54.7701C30.4969 54.3128 30.0069 54.0841 29.4003 54.0841C28.7563 54.0841 28.2289 54.2988 27.8183 54.7281C27.4169 55.1481 27.2256 55.7175 27.2443 56.4361H26.4043C26.4229 55.7921 26.5629 55.2321 26.8243 54.7561C27.0856 54.2801 27.4403 53.9115 27.8883 53.6501C28.3363 53.3795 28.8403 53.2441 29.4003 53.2441C29.9696 53.2441 30.4689 53.3841 30.8983 53.6641C31.3276 53.9441 31.6636 54.3315 31.9063 54.8261C32.1583 55.3208 32.2843 55.8901 32.2843 56.5341V60.5801C32.2843 60.7015 32.2469 60.8041 32.1723 60.8881C32.0976 60.9628 31.9949 61.0001 31.8643 61.0001ZM21.7423 61.0001C21.6209 61.0001 21.5183 60.9628 21.4343 60.8881C21.3596 60.8041 21.3223 60.7015 21.3223 60.5801V53.7621C21.3223 53.6315 21.3596 53.5288 21.4343 53.4541C21.5183 53.3795 21.6209 53.3421 21.7423 53.3421C21.8729 53.3421 21.9756 53.3795 22.0503 53.4541C22.1249 53.5288 22.1623 53.6315 22.1623 53.7621V60.5801C22.1623 60.7015 22.1249 60.8041 22.0503 60.8881C21.9756 60.9628 21.8729 61.0001 21.7423 61.0001ZM26.8243 61.0001C26.7029 61.0001 26.6003 60.9628 26.5163 60.8881C26.4416 60.8041 26.4043 60.7015 26.4043 60.5801V56.5341C26.4043 55.8155 26.2129 55.2275 25.8303 54.7701C25.4569 54.3128 24.9669 54.0841 24.3603 54.0841C23.7163 54.0841 23.1889 54.2895 22.7783 54.7001C22.3676 55.1108 22.1623 55.6428 22.1623 56.2961H21.4623C21.4903 55.6988 21.6303 55.1715 21.8823 54.7141C22.1436 54.2568 22.4889 53.8975 22.9183 53.6361C23.3476 53.3748 23.8283 53.2441 24.3603 53.2441C24.9296 53.2441 25.4289 53.3841 25.8583 53.6641C26.2876 53.9441 26.6236 54.3315 26.8663 54.8261C27.1183 55.3208 27.2443 55.8901 27.2443 56.5341V60.5801C27.2443 60.7015 27.2069 60.8041 27.1323 60.8881C27.0576 60.9628 26.9549 61.0001 26.8243 61.0001Z"
		  fill="white"/>
	<path d="M37.774 61.0701C37.0367 61.0701 36.3787 60.9068 35.8 60.5801C35.2307 60.2441 34.7827 59.7821 34.456 59.1941C34.1293 58.6061 33.966 57.9341 33.966 57.1781C33.966 56.4128 34.12 55.7408 34.428 55.1621C34.736 54.5741 35.1607 54.1121 35.702 53.7761C36.2433 53.4401 36.864 53.2721 37.564 53.2721C38.2547 53.2721 38.866 53.4355 39.398 53.7621C39.93 54.0795 40.3454 54.5228 40.644 55.0921C40.9427 55.6521 41.092 56.3008 41.092 57.0381C41.092 57.1595 41.0547 57.2575 40.98 57.3321C40.9053 57.3975 40.8074 57.4301 40.686 57.4301H34.526V56.7021H40.91L40.294 57.1641C40.3127 56.5575 40.21 56.0208 39.986 55.5541C39.762 55.0875 39.44 54.7235 39.02 54.4621C38.6093 54.1915 38.124 54.0561 37.564 54.0561C37.032 54.0561 36.556 54.1915 36.136 54.4621C35.7253 54.7235 35.3987 55.0875 35.156 55.5541C34.9227 56.0208 34.806 56.5621 34.806 57.1781C34.806 57.7848 34.932 58.3215 35.184 58.7881C35.436 59.2548 35.786 59.6235 36.234 59.8941C36.682 60.1555 37.1953 60.2861 37.774 60.2861C38.138 60.2861 38.502 60.2255 38.866 60.1041C39.2393 59.9735 39.5333 59.8055 39.748 59.6001C39.8227 59.5255 39.9113 59.4881 40.014 59.4881C40.126 59.4788 40.2193 59.5068 40.294 59.5721C40.3967 59.6561 40.448 59.7495 40.448 59.8521C40.4573 59.9548 40.4153 60.0481 40.322 60.1321C40.0233 60.4028 39.6313 60.6268 39.146 60.8041C38.67 60.9815 38.2127 61.0701 37.774 61.0701Z"
		  fill="white"/>
	<path d="M49.2593 61.0001C49.1379 61.0001 49.0353 60.9628 48.9513 60.8881C48.8766 60.8041 48.8393 60.7015 48.8393 60.5801V56.8141C48.8393 56.1981 48.7179 55.6895 48.4753 55.2881C48.2419 54.8868 47.9199 54.5881 47.5093 54.3921C47.1079 54.1868 46.6506 54.0841 46.1373 54.0841C45.6333 54.0841 45.1806 54.1821 44.7793 54.3781C44.3779 54.5648 44.0606 54.8261 43.8273 55.1621C43.5939 55.4981 43.4773 55.8761 43.4773 56.2961H42.7773C42.8146 55.7175 42.9873 55.1995 43.2953 54.7421C43.6033 54.2755 44.0046 53.9115 44.4993 53.6501C44.9939 53.3795 45.5399 53.2441 46.1373 53.2441C46.8093 53.2441 47.4113 53.3841 47.9433 53.6641C48.4846 53.9348 48.9093 54.3361 49.2173 54.8681C49.5253 55.3908 49.6793 56.0395 49.6793 56.8141V60.5801C49.6793 60.7015 49.6373 60.8041 49.5533 60.8881C49.4786 60.9628 49.3806 61.0001 49.2593 61.0001ZM43.0573 61.0001C42.9359 61.0001 42.8333 60.9628 42.7493 60.8881C42.6746 60.8041 42.6373 60.7015 42.6373 60.5801V53.7621C42.6373 53.6315 42.6746 53.5288 42.7493 53.4541C42.8333 53.3795 42.9359 53.3421 43.0573 53.3421C43.1879 53.3421 43.2906 53.3795 43.3653 53.4541C43.4399 53.5288 43.4773 53.6315 43.4773 53.7621V60.5801C43.4773 60.7015 43.4399 60.8041 43.3653 60.8881C43.2906 60.9628 43.1879 61.0001 43.0573 61.0001Z"
		  fill="white"/>
	<path d="M55.1792 61.0981C54.5072 61.0981 53.9052 60.9628 53.3732 60.6921C52.8412 60.4121 52.4165 60.0061 52.0992 59.4741C51.7912 58.9421 51.6372 58.2935 51.6372 57.5281V53.7621C51.6372 53.6408 51.6745 53.5428 51.7492 53.4681C51.8332 53.3841 51.9359 53.3421 52.0572 53.3421C52.1785 53.3421 52.2765 53.3841 52.3512 53.4681C52.4352 53.5428 52.4772 53.6408 52.4772 53.7621V57.5281C52.4772 58.1348 52.5939 58.6435 52.8272 59.0541C53.0699 59.4555 53.3919 59.7588 53.7932 59.9641C54.2039 60.1601 54.6659 60.2581 55.1792 60.2581C55.6832 60.2581 56.1359 60.1601 56.5372 59.9641C56.9385 59.7681 57.2559 59.5068 57.4892 59.1801C57.7225 58.8441 57.8392 58.4661 57.8392 58.0461H58.5392C58.5019 58.6248 58.3292 59.1475 58.0212 59.6141C57.7132 60.0715 57.3119 60.4355 56.8172 60.7061C56.3319 60.9675 55.7859 61.0981 55.1792 61.0981ZM58.2592 61.0001C58.1379 61.0001 58.0352 60.9628 57.9512 60.8881C57.8765 60.8041 57.8392 60.7015 57.8392 60.5801V53.7621C57.8392 53.6315 57.8765 53.5288 57.9512 53.4541C58.0352 53.3795 58.1379 53.3421 58.2592 53.3421C58.3899 53.3421 58.4925 53.3795 58.5672 53.4541C58.6419 53.5288 58.6792 53.6315 58.6792 53.7621V60.5801C58.6792 60.7015 58.6419 60.8041 58.5672 60.8881C58.4925 60.9628 58.3899 61.0001 58.2592 61.0001Z"
		  fill="white"/>
</svg>
