<svg width="80" height="80" viewBox="0 0 80 80" fill="none" xmlns="http://www.w3.org/2000/svg">
	<path d="M0 10C0 4.47715 4.47715 0 10 0H70C75.5228 0 80 4.47715 80 10V70C80 75.5228 75.5228 80 70 80H10C4.47715 80 0 75.5228 0 70V10Z"
		  fill="#4272F9"/>
	<path fill-rule="evenodd" clip-rule="evenodd"
		  d="M69.1899 17.669C70.1274 17.6112 70.6622 18.8303 70.0393 19.6052L64.4947 26.5031C63.8454 27.3109 62.6353 26.7945 62.6481 25.715L62.681 22.9163C62.6854 22.5496 62.5329 22.2021 62.2695 21.9782L60.2594 20.2699C59.4841 19.611 59.8679 18.244 60.8451 18.1837L69.1899 17.669ZM25.0719 35.7833C25.0719 42.3911 19.6705 47.7457 13.0144 47.7457C11.3465 47.7457 10 46.4014 10 44.7532C10 43.1051 11.3465 41.7683 13.0144 41.7683C16.3425 41.7683 19.0432 39.0872 19.0432 35.7833V26.8133C19.0432 25.1576 20.3897 23.8208 22.0575 23.8208C23.7254 23.8208 25.0719 25.1576 25.0719 26.8133V35.7833ZM57.5722 35.7833C57.5722 39.0872 60.2729 41.7683 63.601 41.7683C65.2689 41.7683 66.6154 43.0975 66.6154 44.7532C66.6154 46.409 65.2689 47.7457 63.601 47.7457C56.9449 47.7457 51.5435 42.3911 51.5435 35.7833V26.8133C51.5435 25.1576 52.89 23.8208 54.5578 23.8208C56.2257 23.8208 57.5722 25.1652 57.5722 26.8133V29.4945H59.9669C61.6348 29.4945 62.9889 30.8388 62.9889 32.4946C62.9889 34.1503 61.6348 35.4947 59.9669 35.4947H57.5722V35.7833ZM49.8145 31.5908C49.8221 31.5832 49.8298 31.5832 49.8298 31.5832C48.8811 29.1072 47.1061 26.9349 44.6273 25.507C38.8739 22.1955 31.5292 24.1551 28.2165 29.8819C24.896 35.6011 26.8699 42.9152 32.6156 46.2192C36.8465 48.6496 41.9419 48.2243 45.6601 45.5508L45.6372 45.5204C46.494 44.9963 47.0602 44.0545 47.0602 42.9836C47.0602 41.3354 45.7137 39.9987 44.0535 39.9987C43.2501 39.9987 42.5157 40.3101 41.9801 40.8266C40.1745 42.0342 37.7722 42.2241 35.7448 41.1152L47.8865 35.5175C48.5903 35.3048 49.2177 34.8339 49.6079 34.1504C50.0822 33.3377 50.1281 32.4035 49.8145 31.5908ZM41.6205 30.6794C41.9801 30.8844 42.3014 31.1199 42.5998 31.3781L32.608 35.9732C32.585 34.9175 32.8451 33.8466 33.4113 32.8668C35.0715 30.011 38.7439 29.0312 41.6205 30.6794Z"
		  fill="white"/>
	<path d="M17.8907 64.2758C17.7694 64.2758 17.6667 64.2338 17.5827 64.1498C17.508 64.0751 17.4707 63.9771 17.4707 63.8558V57.0938C17.4894 56.3565 17.6667 55.7031 18.0027 55.1338C18.348 54.5551 18.8147 54.0978 19.4027 53.7618C19.9907 53.4258 20.6487 53.2578 21.3767 53.2578C22.1234 53.2578 22.7907 53.4305 23.3787 53.7758C23.976 54.1118 24.4427 54.5785 24.7787 55.1758C25.124 55.7638 25.2967 56.4311 25.2967 57.1778C25.2967 57.9151 25.124 58.5825 24.7787 59.1798C24.4427 59.7678 23.976 60.2345 23.3787 60.5798C22.7907 60.9158 22.1234 61.0838 21.3767 61.0838C20.7047 61.0838 20.098 60.9391 19.5567 60.6498C19.0247 60.3605 18.6094 59.9731 18.3107 59.4878V63.8558C18.3107 63.9771 18.2734 64.0751 18.1987 64.1498C18.124 64.2338 18.0214 64.2758 17.8907 64.2758ZM21.3767 60.2998C21.9647 60.2998 22.4874 60.1645 22.9447 59.8938C23.4114 59.6138 23.78 59.2405 24.0507 58.7738C24.3214 58.2978 24.4567 57.7658 24.4567 57.1778C24.4567 56.5805 24.3214 56.0485 24.0507 55.5818C23.78 55.1058 23.4114 54.7325 22.9447 54.4618C22.4874 54.1818 21.9647 54.0418 21.3767 54.0418C20.798 54.0418 20.2754 54.1818 19.8087 54.4618C19.342 54.7325 18.9734 55.1058 18.7027 55.5818C18.4414 56.0485 18.3107 56.5805 18.3107 57.1778C18.3107 57.7658 18.4414 58.2978 18.7027 58.7738C18.9734 59.2405 19.342 59.6138 19.8087 59.8938C20.2754 60.1645 20.798 60.2998 21.3767 60.2998Z"
		  fill="white"/>
	<path d="M30.6165 61.0838C29.8698 61.0838 29.1978 60.9158 28.6005 60.5798C28.0125 60.2345 27.5458 59.7678 27.2005 59.1798C26.8645 58.5825 26.6965 57.9151 26.6965 57.1778C26.6965 56.4311 26.8645 55.7638 27.2005 55.1758C27.5458 54.5785 28.0125 54.1118 28.6005 53.7758C29.1978 53.4305 29.8698 53.2578 30.6165 53.2578C31.3632 53.2578 32.0305 53.4305 32.6185 53.7758C33.2065 54.1118 33.6685 54.5785 34.0045 55.1758C34.3498 55.7638 34.5225 56.4311 34.5225 57.1778C34.5225 57.9151 34.3498 58.5825 34.0045 59.1798C33.6685 59.7678 33.2065 60.2345 32.6185 60.5798C32.0305 60.9158 31.3632 61.0838 30.6165 61.0838ZM30.6165 60.2998C31.2045 60.2998 31.7272 60.1645 32.1845 59.8938C32.6512 59.6138 33.0152 59.2405 33.2765 58.7738C33.5472 58.2978 33.6825 57.7611 33.6825 57.1638C33.6825 56.5758 33.5472 56.0485 33.2765 55.5818C33.0152 55.1058 32.6512 54.7325 32.1845 54.4618C31.7272 54.1818 31.2045 54.0418 30.6165 54.0418C30.0378 54.0418 29.5152 54.1818 29.0485 54.4618C28.5818 54.7325 28.2132 55.1058 27.9425 55.5818C27.6718 56.0485 27.5365 56.5805 27.5365 57.1778C27.5365 57.7658 27.6718 58.2978 27.9425 58.7738C28.2132 59.2405 28.5818 59.6138 29.0485 59.8938C29.5152 60.1645 30.0378 60.2998 30.6165 60.2998Z"
		  fill="white"/>
	<path d="M36.7584 64.2758C36.6371 64.2758 36.5344 64.2338 36.4504 64.1498C36.3758 64.0751 36.3384 63.9771 36.3384 63.8558V57.0938C36.3571 56.3565 36.5344 55.7031 36.8704 55.1338C37.2158 54.5551 37.6824 54.0978 38.2704 53.7618C38.8584 53.4258 39.5164 53.2578 40.2444 53.2578C40.9911 53.2578 41.6584 53.4305 42.2464 53.7758C42.8438 54.1118 43.3104 54.5785 43.6464 55.1758C43.9918 55.7638 44.1644 56.4311 44.1644 57.1778C44.1644 57.9151 43.9918 58.5825 43.6464 59.1798C43.3104 59.7678 42.8438 60.2345 42.2464 60.5798C41.6584 60.9158 40.9911 61.0838 40.2444 61.0838C39.5724 61.0838 38.9658 60.9391 38.4244 60.6498C37.8924 60.3605 37.4771 59.9731 37.1784 59.4878V63.8558C37.1784 63.9771 37.1411 64.0751 37.0664 64.1498C36.9918 64.2338 36.8891 64.2758 36.7584 64.2758ZM40.2444 60.2998C40.8324 60.2998 41.3551 60.1645 41.8124 59.8938C42.2791 59.6138 42.6478 59.2405 42.9184 58.7738C43.1891 58.2978 43.3244 57.7658 43.3244 57.1778C43.3244 56.5805 43.1891 56.0485 42.9184 55.5818C42.6478 55.1058 42.2791 54.7325 41.8124 54.4618C41.3551 54.1818 40.8324 54.0418 40.2444 54.0418C39.6658 54.0418 39.1431 54.1818 38.6764 54.4618C38.2098 54.7325 37.8411 55.1058 37.5704 55.5818C37.3091 56.0485 37.1784 56.5805 37.1784 57.1778C37.1784 57.7658 37.3091 58.2978 37.5704 58.7738C37.8411 59.2405 38.2098 59.6138 38.6764 59.8938C39.1431 60.1645 39.6658 60.2998 40.2444 60.2998Z"
		  fill="white"/>
	<path d="M49.3862 61.0978C48.7142 61.0978 48.1122 60.9625 47.5802 60.6918C47.0482 60.4118 46.6236 60.0058 46.3062 59.4738C45.9982 58.9418 45.8442 58.2931 45.8442 57.5278V53.7618C45.8442 53.6405 45.8816 53.5425 45.9562 53.4678C46.0402 53.3838 46.1429 53.3418 46.2642 53.3418C46.3856 53.3418 46.4836 53.3838 46.5582 53.4678C46.6422 53.5425 46.6842 53.6405 46.6842 53.7618V57.5278C46.6842 58.1345 46.8009 58.6431 47.0342 59.0538C47.2769 59.4551 47.5989 59.7585 48.0002 59.9638C48.4109 60.1598 48.8729 60.2578 49.3862 60.2578C49.8902 60.2578 50.3429 60.1598 50.7442 59.9638C51.1455 59.7678 51.4629 59.5065 51.6962 59.1798C51.9296 58.8438 52.0462 58.4658 52.0462 58.0458H52.7462C52.7089 58.6245 52.5362 59.1471 52.2282 59.6138C51.9202 60.0711 51.5189 60.4351 51.0242 60.7058C50.5389 60.9671 49.9929 61.0978 49.3862 61.0978ZM52.4662 60.9998C52.3449 60.9998 52.2422 60.9625 52.1582 60.8878C52.0836 60.8038 52.0462 60.7011 52.0462 60.5798V53.7618C52.0462 53.6311 52.0836 53.5285 52.1582 53.4538C52.2422 53.3791 52.3449 53.3418 52.4662 53.3418C52.5969 53.3418 52.6996 53.3791 52.7742 53.4538C52.8489 53.5285 52.8862 53.6311 52.8862 53.7618V60.5798C52.8862 60.7011 52.8489 60.8038 52.7742 60.8878C52.6996 60.9625 52.5969 60.9998 52.4662 60.9998Z"
		  fill="white"/>
	<path d="M55.5441 64.2758C55.4228 64.2758 55.3201 64.2338 55.2361 64.1498C55.1615 64.0751 55.1241 63.9771 55.1241 63.8558V57.0938C55.1428 56.3565 55.3201 55.7031 55.6561 55.1338C56.0015 54.5551 56.4681 54.0978 57.0561 53.7618C57.6441 53.4258 58.3021 53.2578 59.0301 53.2578C59.7768 53.2578 60.4441 53.4305 61.0321 53.7758C61.6295 54.1118 62.0961 54.5785 62.4321 55.1758C62.7775 55.7638 62.9501 56.4311 62.9501 57.1778C62.9501 57.9151 62.7775 58.5825 62.4321 59.1798C62.0961 59.7678 61.6295 60.2345 61.0321 60.5798C60.4441 60.9158 59.7768 61.0838 59.0301 61.0838C58.3581 61.0838 57.7515 60.9391 57.2101 60.6498C56.6781 60.3605 56.2628 59.9731 55.9641 59.4878V63.8558C55.9641 63.9771 55.9268 64.0751 55.8521 64.1498C55.7775 64.2338 55.6748 64.2758 55.5441 64.2758ZM59.0301 60.2998C59.6181 60.2998 60.1408 60.1645 60.5981 59.8938C61.0648 59.6138 61.4335 59.2405 61.7041 58.7738C61.9748 58.2978 62.1101 57.7658 62.1101 57.1778C62.1101 56.5805 61.9748 56.0485 61.7041 55.5818C61.4335 55.1058 61.0648 54.7325 60.5981 54.4618C60.1408 54.1818 59.6181 54.0418 59.0301 54.0418C58.4515 54.0418 57.9288 54.1818 57.4621 54.4618C56.9955 54.7325 56.6268 55.1058 56.3561 55.5818C56.0948 56.0485 55.9641 56.5805 55.9641 57.1778C55.9641 57.7658 56.0948 58.2978 56.3561 58.7738C56.6268 59.2405 56.9955 59.6138 57.4621 59.8938C57.9288 60.1645 58.4515 60.2998 59.0301 60.2998Z"
		  fill="white"/>
</svg>
