<svg width="80" height="80" viewBox="0 0 80 80" fill="none" xmlns="http://www.w3.org/2000/svg">
	<path d="M0 10C0 4.47715 4.47715 0 10 0H70C75.5228 0 80 4.47715 80 10V70C80 75.5228 75.5228 80 70 80H10C4.47715 80 0 75.5228 0 70V10Z"
		  fill="#0CB6B3"/>
	<path fill-rule="evenodd" clip-rule="evenodd"
		  d="M69.1899 12.669C70.1274 12.6112 70.6622 13.8303 70.0393 14.6052L64.4947 21.5031C63.8454 22.3109 62.6353 21.7945 62.6481 20.715L62.681 17.9163C62.6854 17.5496 62.5329 17.2021 62.2695 16.9782L60.2594 15.2699C59.4841 14.611 59.8679 13.244 60.8451 13.1837L69.1899 12.669ZM25.0719 30.7833C25.0719 37.3911 19.6705 42.7457 13.0144 42.7457C11.3465 42.7457 10 41.4014 10 39.7532C10 38.1051 11.3465 36.7683 13.0144 36.7683C16.3425 36.7683 19.0432 34.0872 19.0432 30.7833V21.8133C19.0432 20.1576 20.3897 18.8208 22.0575 18.8208C23.7254 18.8208 25.0719 20.1576 25.0719 21.8133V30.7833ZM57.5722 30.7833C57.5722 34.0872 60.2729 36.7683 63.601 36.7683C65.2689 36.7683 66.6154 38.0975 66.6154 39.7532C66.6154 41.409 65.2689 42.7457 63.601 42.7457C56.9449 42.7457 51.5435 37.3911 51.5435 30.7833V21.8133C51.5435 20.1576 52.89 18.8208 54.5578 18.8208C56.2257 18.8208 57.5722 20.1652 57.5722 21.8133V24.4945H59.9669C61.6348 24.4945 62.9889 25.8388 62.9889 27.4946C62.9889 29.1503 61.6348 30.4947 59.9669 30.4947H57.5722V30.7833ZM49.8145 26.5908C49.8221 26.5832 49.8298 26.5832 49.8298 26.5832C48.8811 24.1072 47.1061 21.9349 44.6273 20.507C38.8739 17.1955 31.5292 19.1551 28.2165 24.8819C24.896 30.6011 26.8699 37.9152 32.6156 41.2192C36.8465 43.6496 41.9419 43.2243 45.6601 40.5508L45.6372 40.5204C46.494 39.9963 47.0602 39.0545 47.0602 37.9836C47.0602 36.3354 45.7137 34.9987 44.0535 34.9987C43.2501 34.9987 42.5157 35.3101 41.9801 35.8266C40.1745 37.0342 37.7722 37.2241 35.7448 36.1152L47.8865 30.5175C48.5903 30.3048 49.2177 29.8339 49.6079 29.1504C50.0822 28.3377 50.1281 27.4035 49.8145 26.5908ZM41.6205 25.6794C41.9801 25.8844 42.3014 26.1199 42.5998 26.3781L32.608 30.9732C32.585 29.9175 32.8451 28.8466 33.4113 27.8668C35.0715 25.011 38.7439 24.0312 41.6205 25.6794Z"
		  fill="white"/>
	<path d="M12.6798 59.2764C12.5584 59.2764 12.4558 59.2344 12.3718 59.1504C12.2971 59.0757 12.2598 58.9777 12.2598 58.8564V52.0944C12.2784 51.3571 12.4558 50.7037 12.7918 50.1344C13.1371 49.5557 13.6038 49.0984 14.1918 48.7624C14.7798 48.4264 15.4378 48.2584 16.1658 48.2584C16.9124 48.2584 17.5798 48.4311 18.1678 48.7764C18.7651 49.1124 19.2318 49.5791 19.5678 50.1764C19.9131 50.7644 20.0858 51.4317 20.0858 52.1784C20.0858 52.9157 19.9131 53.5831 19.5678 54.1804C19.2318 54.7684 18.7651 55.2351 18.1678 55.5804C17.5798 55.9164 16.9124 56.0844 16.1658 56.0844C15.4938 56.0844 14.8871 55.9397 14.3458 55.6504C13.8138 55.3611 13.3984 54.9737 13.0998 54.4884V58.8564C13.0998 58.9777 13.0624 59.0757 12.9878 59.1504C12.9131 59.2344 12.8104 59.2764 12.6798 59.2764ZM16.1658 55.3004C16.7538 55.3004 17.2764 55.1651 17.7338 54.8944C18.2004 54.6144 18.5691 54.2411 18.8398 53.7744C19.1104 53.2984 19.2458 52.7664 19.2458 52.1784C19.2458 51.5811 19.1104 51.0491 18.8398 50.5824C18.5691 50.1064 18.2004 49.7331 17.7338 49.4624C17.2764 49.1824 16.7538 49.0424 16.1658 49.0424C15.5871 49.0424 15.0644 49.1824 14.5978 49.4624C14.1311 49.7331 13.7624 50.1064 13.4918 50.5824C13.2304 51.0491 13.0998 51.5811 13.0998 52.1784C13.0998 52.7664 13.2304 53.2984 13.4918 53.7744C13.7624 54.2411 14.1311 54.6144 14.5978 54.8944C15.0644 55.1651 15.5871 55.3004 16.1658 55.3004Z"
		  fill="white"/>
	<path d="M22.1855 51.3244C22.2415 50.7271 22.4049 50.1997 22.6755 49.7424C22.9462 49.2757 23.2962 48.9117 23.7255 48.6504C24.1549 48.3891 24.6309 48.2584 25.1535 48.2584C25.5082 48.2584 25.7835 48.3004 25.9795 48.3844C26.1755 48.4684 26.2502 48.6177 26.2035 48.8324C26.1755 48.9724 26.1102 49.0564 26.0075 49.0844C25.9049 49.1124 25.7789 49.1171 25.6295 49.0984C25.4895 49.0704 25.3309 49.0564 25.1535 49.0564C24.6869 49.0564 24.2715 49.1544 23.9075 49.3504C23.5435 49.5464 23.2589 49.8171 23.0535 50.1624C22.8482 50.4984 22.7455 50.8857 22.7455 51.3244H22.1855ZM22.3255 56.0004C22.2042 56.0004 22.1015 55.9631 22.0175 55.8884C21.9429 55.8044 21.9055 55.7017 21.9055 55.5804V48.7624C21.9055 48.6317 21.9429 48.5291 22.0175 48.4544C22.1015 48.3797 22.2042 48.3424 22.3255 48.3424C22.4562 48.3424 22.5589 48.3797 22.6335 48.4544C22.7082 48.5291 22.7455 48.6317 22.7455 48.7624V55.5804C22.7455 55.7017 22.7082 55.8044 22.6335 55.8884C22.5589 55.9631 22.4562 56.0004 22.3255 56.0004Z"
		  fill="white"/>
	<path d="M30.7037 56.0844C29.957 56.0844 29.285 55.9164 28.6877 55.5804C28.0997 55.2351 27.633 54.7684 27.2877 54.1804C26.9517 53.5831 26.7837 52.9157 26.7837 52.1784C26.7837 51.4317 26.9517 50.7644 27.2877 50.1764C27.633 49.5791 28.0997 49.1124 28.6877 48.7764C29.285 48.4311 29.957 48.2584 30.7037 48.2584C31.4503 48.2584 32.1177 48.4311 32.7057 48.7764C33.2937 49.1124 33.7557 49.5791 34.0917 50.1764C34.437 50.7644 34.6097 51.4317 34.6097 52.1784C34.6097 52.9157 34.437 53.5831 34.0917 54.1804C33.7557 54.7684 33.2937 55.2351 32.7057 55.5804C32.1177 55.9164 31.4503 56.0844 30.7037 56.0844ZM30.7037 55.3004C31.2917 55.3004 31.8143 55.1651 32.2717 54.8944C32.7383 54.6144 33.1023 54.2411 33.3637 53.7744C33.6343 53.2984 33.7697 52.7617 33.7697 52.1644C33.7697 51.5764 33.6343 51.0491 33.3637 50.5824C33.1023 50.1064 32.7383 49.7331 32.2717 49.4624C31.8143 49.1824 31.2917 49.0424 30.7037 49.0424C30.125 49.0424 29.6023 49.1824 29.1357 49.4624C28.669 49.7331 28.3003 50.1064 28.0297 50.5824C27.759 51.0491 27.6237 51.5811 27.6237 52.1784C27.6237 52.7664 27.759 53.2984 28.0297 53.7744C28.3003 54.2411 28.669 54.6144 29.1357 54.8944C29.6023 55.1651 30.125 55.3004 30.7037 55.3004Z"
		  fill="white"/>
	<path d="M39.9256 56.0844C39.179 56.0844 38.507 55.9164 37.9096 55.5804C37.3216 55.2351 36.855 54.7684 36.5096 54.1804C36.1736 53.5831 36.0056 52.9111 36.0056 52.1644C36.0056 51.4177 36.1736 50.7504 36.5096 50.1624C36.855 49.5744 37.3216 49.1124 37.9096 48.7764C38.507 48.4311 39.179 48.2584 39.9256 48.2584C40.5976 48.2584 41.1996 48.4031 41.7316 48.6924C42.273 48.9817 42.693 49.3691 42.9916 49.8544V45.4864C42.9916 45.3557 43.029 45.2531 43.1036 45.1784C43.1876 45.1037 43.2903 45.0664 43.4116 45.0664C43.5423 45.0664 43.645 45.1037 43.7196 45.1784C43.7943 45.2531 43.8316 45.3557 43.8316 45.4864V52.2484C43.8223 52.9764 43.645 53.6297 43.2996 54.2084C42.9543 54.7871 42.4876 55.2444 41.8996 55.5804C41.321 55.9164 40.663 56.0844 39.9256 56.0844ZM39.9256 55.3004C40.5136 55.3004 41.0363 55.1651 41.4936 54.8944C41.9603 54.6144 42.3243 54.2411 42.5856 53.7744C42.8563 53.2984 42.9916 52.7617 42.9916 52.1644C42.9916 51.5671 42.8563 51.0351 42.5856 50.5684C42.3243 50.1017 41.9603 49.7331 41.4936 49.4624C41.0363 49.1824 40.5136 49.0424 39.9256 49.0424C39.347 49.0424 38.8243 49.1824 38.3576 49.4624C37.891 49.7331 37.5223 50.1017 37.2516 50.5684C36.981 51.0351 36.8456 51.5671 36.8456 52.1644C36.8456 52.7617 36.981 53.2984 37.2516 53.7744C37.5223 54.2411 37.891 54.6144 38.3576 54.8944C38.8243 55.1651 39.347 55.3004 39.9256 55.3004Z"
		  fill="white"/>
	<path d="M49.4734 56.0984C48.8014 56.0984 48.1994 55.9631 47.6674 55.6924C47.1354 55.4124 46.7107 55.0064 46.3934 54.4744C46.0854 53.9424 45.9314 53.2937 45.9314 52.5284V48.7624C45.9314 48.6411 45.9687 48.5431 46.0434 48.4684C46.1274 48.3844 46.2301 48.3424 46.3514 48.3424C46.4727 48.3424 46.5707 48.3844 46.6454 48.4684C46.7294 48.5431 46.7714 48.6411 46.7714 48.7624V52.5284C46.7714 53.1351 46.8881 53.6437 47.1214 54.0544C47.3641 54.4557 47.6861 54.7591 48.0874 54.9644C48.4981 55.1604 48.9601 55.2584 49.4734 55.2584C49.9774 55.2584 50.4301 55.1604 50.8314 54.9644C51.2327 54.7684 51.5501 54.5071 51.7834 54.1804C52.0167 53.8444 52.1334 53.4664 52.1334 53.0464H52.8334C52.7961 53.6251 52.6234 54.1477 52.3154 54.6144C52.0074 55.0717 51.6061 55.4357 51.1114 55.7064C50.6261 55.9677 50.0801 56.0984 49.4734 56.0984ZM52.5534 56.0004C52.4321 56.0004 52.3294 55.9631 52.2454 55.8884C52.1707 55.8044 52.1334 55.7017 52.1334 55.5804V48.7624C52.1334 48.6317 52.1707 48.5291 52.2454 48.4544C52.3294 48.3797 52.4321 48.3424 52.5534 48.3424C52.6841 48.3424 52.7867 48.3797 52.8614 48.4544C52.9361 48.5291 52.9734 48.6317 52.9734 48.7624V55.5804C52.9734 55.7017 52.9361 55.8044 52.8614 55.8884C52.7867 55.9631 52.6841 56.0004 52.5534 56.0004Z"
		  fill="white"/>
	<path d="M58.5993 56.0844C57.8713 56.0844 57.218 55.9117 56.6393 55.5664C56.07 55.2211 55.6173 54.7544 55.2813 54.1664C54.9547 53.5784 54.7913 52.9157 54.7913 52.1784C54.7913 51.4317 54.9453 50.7644 55.2533 50.1764C55.5613 49.5884 55.986 49.1264 56.5273 48.7904C57.0687 48.4451 57.6893 48.2724 58.3893 48.2724C58.9867 48.2724 59.5327 48.3891 60.0273 48.6224C60.522 48.8464 60.9513 49.1917 61.3153 49.6584C61.39 49.7517 61.418 49.8497 61.3993 49.9524C61.3807 50.0551 61.32 50.1391 61.2173 50.2044C61.1333 50.2697 61.04 50.2977 60.9373 50.2884C60.8347 50.2697 60.746 50.2137 60.6713 50.1204C60.074 49.4111 59.3133 49.0564 58.3893 49.0564C57.8387 49.0564 57.3533 49.1917 56.9333 49.4624C56.5227 49.7331 56.2007 50.1017 55.9673 50.5684C55.7433 51.0351 55.6313 51.5717 55.6313 52.1784C55.6313 52.7664 55.7573 53.2984 56.0093 53.7744C56.2613 54.2411 56.6067 54.6144 57.0453 54.8944C57.4933 55.1651 58.0113 55.3004 58.5993 55.3004C58.982 55.3004 59.3413 55.2444 59.6773 55.1324C60.0227 55.0204 60.3213 54.8477 60.5733 54.6144C60.6573 54.5397 60.7507 54.4977 60.8533 54.4884C60.956 54.4791 61.0447 54.5117 61.1193 54.5864C61.2127 54.6704 61.2593 54.7684 61.2593 54.8804C61.2687 54.9831 61.2313 55.0717 61.1473 55.1464C60.466 55.7717 59.6167 56.0844 58.5993 56.0844Z"
		  fill="white"/>
	<path d="M66.3662 56.0004C65.8528 55.9911 65.3955 55.8744 64.9942 55.6504C64.5928 55.4171 64.2802 55.0997 64.0562 54.6984C63.8322 54.2877 63.7202 53.8257 63.7202 53.3124V46.3404C63.7202 46.2097 63.7575 46.1071 63.8322 46.0324C63.9162 45.9484 64.0188 45.9064 64.1402 45.9064C64.2708 45.9064 64.3735 45.9484 64.4482 46.0324C64.5322 46.1071 64.5742 46.2097 64.5742 46.3404V53.3124C64.5742 53.8537 64.7422 54.2971 65.0782 54.6424C65.4142 54.9784 65.8482 55.1464 66.3802 55.1464H66.6882C66.8188 55.1464 66.9215 55.1884 66.9962 55.2724C67.0802 55.3471 67.1222 55.4497 67.1222 55.5804C67.1222 55.7017 67.0802 55.8044 66.9962 55.8884C66.9215 55.9631 66.8188 56.0004 66.6882 56.0004H66.3662ZM62.6282 49.3784C62.5162 49.3784 62.4228 49.3457 62.3482 49.2804C62.2828 49.2057 62.2502 49.1124 62.2502 49.0004C62.2502 48.8884 62.2828 48.7997 62.3482 48.7344C62.4228 48.6597 62.5162 48.6224 62.6282 48.6224H66.4222C66.5342 48.6224 66.6228 48.6597 66.6882 48.7344C66.7628 48.7997 66.8002 48.8884 66.8002 49.0004C66.8002 49.1124 66.7628 49.2057 66.6882 49.2804C66.6228 49.3457 66.5342 49.3784 66.4222 49.3784H62.6282Z"
		  fill="white"/>
	<path d="M15.7598 68.0844C14.9945 68.0844 14.3178 67.9164 13.7298 67.5804C13.1418 67.2444 12.6798 66.7824 12.3438 66.1944C12.0078 65.6064 11.8398 64.9344 11.8398 64.1784C11.8398 63.4131 12.0125 62.7364 12.3578 62.1484C12.7032 61.5604 13.1698 61.0984 13.7578 60.7624C14.3552 60.4264 15.0225 60.2584 15.7598 60.2584C16.5252 60.2584 17.1972 60.4264 17.7758 60.7624C18.3638 61.0984 18.8258 61.5604 19.1618 62.1484C19.4978 62.7364 19.6658 63.4131 19.6658 64.1784L19.1758 64.7384C19.1758 65.3917 19.0312 65.9704 18.7418 66.4744C18.4525 66.9784 18.0512 67.3751 17.5378 67.6644C17.0245 67.9444 16.4318 68.0844 15.7598 68.0844ZM15.8158 70.9264C15.0412 70.9264 14.3785 70.7817 13.8278 70.4924C13.2865 70.2031 12.8385 69.8344 12.4838 69.3864C12.4092 69.2931 12.3718 69.1951 12.3718 69.0924C12.3718 68.9897 12.4185 68.9057 12.5118 68.8404C12.6052 68.7657 12.7125 68.7377 12.8338 68.7564C12.9645 68.7751 13.0625 68.8357 13.1278 68.9384C13.4172 69.2837 13.7858 69.5684 14.2338 69.7924C14.6818 70.0257 15.2092 70.1424 15.8158 70.1424C16.3945 70.1424 16.9078 70.0024 17.3558 69.7224C17.8132 69.4424 18.1725 69.0551 18.4338 68.5604C18.6952 68.0751 18.8258 67.5291 18.8258 66.9224V64.6964L19.2038 64.1784H19.6658V66.9224C19.6658 67.6784 19.4978 68.3597 19.1618 68.9664C18.8258 69.5731 18.3685 70.0491 17.7898 70.3944C17.2112 70.7491 16.5532 70.9264 15.8158 70.9264ZM15.7598 67.3004C16.3572 67.3004 16.8845 67.1697 17.3418 66.9084C17.8085 66.6377 18.1725 66.2691 18.4338 65.8024C18.6952 65.3264 18.8258 64.7851 18.8258 64.1784C18.8258 63.5624 18.6952 63.0211 18.4338 62.5544C18.1725 62.0784 17.8085 61.7097 17.3418 61.4484C16.8845 61.1777 16.3572 61.0424 15.7598 61.0424C15.1625 61.0424 14.6305 61.1777 14.1638 61.4484C13.6972 61.7097 13.3332 62.0784 13.0718 62.5544C12.8105 63.0211 12.6798 63.5624 12.6798 64.1784C12.6798 64.7851 12.8105 65.3264 13.0718 65.8024C13.3332 66.2691 13.6972 66.6377 14.1638 66.9084C14.6305 67.1697 15.1625 67.3004 15.7598 67.3004Z"
		  fill="white"/>
	<path d="M24.9818 68.0844C24.2351 68.0844 23.5631 67.9164 22.9658 67.5804C22.3778 67.2351 21.9111 66.7684 21.5658 66.1804C21.2298 65.5831 21.0618 64.9157 21.0618 64.1784C21.0618 63.4317 21.2298 62.7644 21.5658 62.1764C21.9111 61.5791 22.3778 61.1124 22.9658 60.7764C23.5631 60.4311 24.2351 60.2584 24.9818 60.2584C25.7285 60.2584 26.3958 60.4311 26.9838 60.7764C27.5718 61.1124 28.0338 61.5791 28.3698 62.1764C28.7151 62.7644 28.8878 63.4317 28.8878 64.1784L28.5378 64.7384C28.5378 65.3731 28.3791 65.9424 28.0618 66.4464C27.7538 66.9504 27.3338 67.3517 26.8018 67.6504C26.2698 67.9397 25.6631 68.0844 24.9818 68.0844ZM24.9818 67.3004C25.5698 67.3004 26.0925 67.1651 26.5498 66.8944C27.0165 66.6144 27.3805 66.2411 27.6418 65.7744C27.9125 65.2984 28.0478 64.7664 28.0478 64.1784C28.0478 63.5811 27.9125 63.0491 27.6418 62.5824C27.3805 62.1064 27.0165 61.7331 26.5498 61.4624C26.0925 61.1824 25.5698 61.0424 24.9818 61.0424C24.4031 61.0424 23.8805 61.1824 23.4138 61.4624C22.9471 61.7331 22.5785 62.1064 22.3078 62.5824C22.0371 63.0491 21.9018 63.5811 21.9018 64.1784C21.9018 64.7664 22.0371 65.2984 22.3078 65.7744C22.5785 66.2411 22.9471 66.6144 23.4138 66.8944C23.8805 67.1651 24.4031 67.3004 24.9818 67.3004ZM28.4678 68.0004C28.3465 68.0004 28.2438 67.9631 28.1598 67.8884C28.0851 67.8044 28.0478 67.7017 28.0478 67.5804V65.0184L28.3138 64.1784H28.8878V67.5804C28.8878 67.7017 28.8505 67.8044 28.7758 67.8884C28.7011 67.9631 28.5985 68.0004 28.4678 68.0004Z"
		  fill="white"/>
	<path d="M32.2437 68.0004C31.8891 68.0004 31.5718 67.9024 31.2917 67.7064C31.0211 67.5104 30.8064 67.2397 30.6478 66.8944C30.4984 66.5491 30.4237 66.1477 30.4237 65.6904V57.4864C30.4237 57.3557 30.4611 57.2531 30.5358 57.1784C30.6198 57.1037 30.7224 57.0664 30.8438 57.0664C30.9744 57.0664 31.0771 57.1037 31.1518 57.1784C31.2264 57.2531 31.2638 57.3557 31.2638 57.4864V65.6904C31.2638 66.1197 31.3524 66.4744 31.5298 66.7544C31.7164 67.0251 31.9544 67.1604 32.2437 67.1604H32.5938C32.6964 67.1604 32.7804 67.1977 32.8458 67.2724C32.9111 67.3471 32.9438 67.4497 32.9438 67.5804C32.9438 67.7017 32.9064 67.8044 32.8318 67.8884C32.7571 67.9631 32.6544 68.0004 32.5238 68.0004H32.2437Z"
		  fill="white"/>
	<path d="M35.7372 68.0004C35.3825 68.0004 35.0652 67.9024 34.7852 67.7064C34.5145 67.5104 34.2999 67.2397 34.1412 66.8944C33.9919 66.5491 33.9172 66.1477 33.9172 65.6904V57.4864C33.9172 57.3557 33.9545 57.2531 34.0292 57.1784C34.1132 57.1037 34.2159 57.0664 34.3372 57.0664C34.4679 57.0664 34.5705 57.1037 34.6452 57.1784C34.7199 57.2531 34.7572 57.3557 34.7572 57.4864V65.6904C34.7572 66.1197 34.8459 66.4744 35.0232 66.7544C35.2099 67.0251 35.4479 67.1604 35.7372 67.1604H36.0872C36.1899 67.1604 36.2739 67.1977 36.3392 67.2724C36.4045 67.3471 36.4372 67.4497 36.4372 67.5804C36.4372 67.7017 36.3999 67.8044 36.3252 67.8884C36.2505 67.9631 36.1479 68.0004 36.0172 68.0004H35.7372Z"
		  fill="white"/>
	<path d="M40.6548 68.0704C39.9175 68.0704 39.2595 67.9071 38.6808 67.5804C38.1115 67.2444 37.6635 66.7824 37.3368 66.1944C37.0101 65.6064 36.8468 64.9344 36.8468 64.1784C36.8468 63.4131 37.0008 62.7411 37.3088 62.1624C37.6168 61.5744 38.0415 61.1124 38.5828 60.7764C39.1241 60.4404 39.7448 60.2724 40.4448 60.2724C41.1355 60.2724 41.7468 60.4357 42.2788 60.7624C42.8108 61.0797 43.2261 61.5231 43.5248 62.0924C43.8235 62.6524 43.9728 63.3011 43.9728 64.0384C43.9728 64.1597 43.9355 64.2577 43.8608 64.3324C43.7861 64.3977 43.6881 64.4304 43.5668 64.4304H37.4068V63.7024H43.7908L43.1748 64.1644C43.1935 63.5577 43.0908 63.0211 42.8668 62.5544C42.6428 62.0877 42.3208 61.7237 41.9008 61.4624C41.4901 61.1917 41.0048 61.0564 40.4448 61.0564C39.9128 61.0564 39.4368 61.1917 39.0168 61.4624C38.6061 61.7237 38.2795 62.0877 38.0368 62.5544C37.8035 63.0211 37.6868 63.5624 37.6868 64.1784C37.6868 64.7851 37.8128 65.3217 38.0648 65.7884C38.3168 66.2551 38.6668 66.6237 39.1148 66.8944C39.5628 67.1557 40.0761 67.2864 40.6548 67.2864C41.0188 67.2864 41.3828 67.2257 41.7468 67.1044C42.1201 66.9737 42.4141 66.8057 42.6288 66.6004C42.7035 66.5257 42.7921 66.4884 42.8948 66.4884C43.0068 66.4791 43.1001 66.5071 43.1748 66.5724C43.2775 66.6564 43.3288 66.7497 43.3288 66.8524C43.3381 66.9551 43.2961 67.0484 43.2028 67.1324C42.9041 67.4031 42.5121 67.6271 42.0268 67.8044C41.5508 67.9817 41.0935 68.0704 40.6548 68.0704Z"
		  fill="white"/>
	<path d="M45.798 63.3244C45.854 62.7271 46.0174 62.1997 46.288 61.7424C46.5587 61.2757 46.9087 60.9117 47.338 60.6504C47.7674 60.3891 48.2434 60.2584 48.766 60.2584C49.1207 60.2584 49.396 60.3004 49.592 60.3844C49.788 60.4684 49.8627 60.6177 49.816 60.8324C49.788 60.9724 49.7227 61.0564 49.62 61.0844C49.5174 61.1124 49.3914 61.1171 49.242 61.0984C49.102 61.0704 48.9434 61.0564 48.766 61.0564C48.2994 61.0564 47.884 61.1544 47.52 61.3504C47.156 61.5464 46.8714 61.8171 46.666 62.1624C46.4607 62.4984 46.358 62.8857 46.358 63.3244H45.798ZM45.938 68.0004C45.8167 68.0004 45.714 67.9631 45.63 67.8884C45.5554 67.8044 45.518 67.7017 45.518 67.5804V60.7624C45.518 60.6317 45.5554 60.5291 45.63 60.4544C45.714 60.3797 45.8167 60.3424 45.938 60.3424C46.0687 60.3424 46.1714 60.3797 46.246 60.4544C46.3207 60.5291 46.358 60.6317 46.358 60.7624V67.5804C46.358 67.7017 46.3207 67.8044 46.246 67.8884C46.1714 67.9631 46.0687 68.0004 45.938 68.0004Z"
		  fill="white"/>
	<path d="M52.6507 71.3184C52.5947 71.3184 52.5294 71.3044 52.4547 71.2764C52.2027 71.1737 52.1327 71.0011 52.2447 70.7584L56.9487 60.5664C57.0607 60.3331 57.2334 60.2631 57.4667 60.3564C57.7187 60.4591 57.7887 60.6317 57.6767 60.8744L52.9727 71.0664C52.8887 71.2344 52.7814 71.3184 52.6507 71.3184ZM54.1347 67.8184C54.0134 67.8744 53.9061 67.8884 53.8127 67.8604C53.7194 67.8324 53.6447 67.7577 53.5887 67.6364L50.5227 60.9164C50.4667 60.7951 50.4527 60.6877 50.4807 60.5944C50.5087 60.5011 50.5834 60.4264 50.7047 60.3704C50.8261 60.3144 50.9334 60.3004 51.0267 60.3284C51.1201 60.3564 51.1947 60.4311 51.2507 60.5524L54.3167 67.2724C54.3727 67.3937 54.3867 67.5011 54.3587 67.5944C54.3307 67.6877 54.2561 67.7624 54.1347 67.8184Z"
		  fill="white"/>
</svg>
