<svg width="80" height="80" viewBox="0 0 80 80" fill="none" xmlns="http://www.w3.org/2000/svg">
	<path d="M0 10C0 4.47715 4.47715 0 10 0H70C75.5228 0 80 4.47715 80 10V70C80 75.5228 75.5228 80 70 80H10C4.47715 80 0 75.5228 0 70V10Z"
		  fill="#EE7B16"/>
	<path fill-rule="evenodd" clip-rule="evenodd"
		  d="M69.1899 17.669C70.1274 17.6112 70.6622 18.8303 70.0393 19.6052L64.4947 26.5031C63.8454 27.3109 62.6353 26.7945 62.6481 25.715L62.681 22.9163C62.6854 22.5496 62.5329 22.2021 62.2695 21.9782L60.2594 20.2699C59.4841 19.611 59.8679 18.244 60.8451 18.1837L69.1899 17.669ZM25.0719 35.7833C25.0719 42.3911 19.6705 47.7457 13.0144 47.7457C11.3465 47.7457 10 46.4014 10 44.7532C10 43.1051 11.3465 41.7683 13.0144 41.7683C16.3425 41.7683 19.0432 39.0872 19.0432 35.7833V26.8133C19.0432 25.1576 20.3897 23.8208 22.0575 23.8208C23.7254 23.8208 25.0719 25.1576 25.0719 26.8133V35.7833ZM57.5722 35.7833C57.5722 39.0872 60.2729 41.7683 63.601 41.7683C65.2689 41.7683 66.6154 43.0975 66.6154 44.7532C66.6154 46.409 65.2689 47.7457 63.601 47.7457C56.9449 47.7457 51.5435 42.3911 51.5435 35.7833V26.8133C51.5435 25.1576 52.89 23.8208 54.5578 23.8208C56.2257 23.8208 57.5722 25.1652 57.5722 26.8133V29.4945H59.9669C61.6348 29.4945 62.9889 30.8388 62.9889 32.4946C62.9889 34.1503 61.6348 35.4947 59.9669 35.4947H57.5722V35.7833ZM49.8145 31.5908C49.8221 31.5832 49.8298 31.5832 49.8298 31.5832C48.8811 29.1072 47.1061 26.9349 44.6273 25.507C38.8739 22.1955 31.5292 24.1551 28.2165 29.8819C24.896 35.6011 26.8699 42.9152 32.6156 46.2192C36.8465 48.6496 41.9419 48.2243 45.6601 45.5508L45.6372 45.5204C46.494 44.9963 47.0602 44.0545 47.0602 42.9836C47.0602 41.3354 45.7137 39.9987 44.0535 39.9987C43.2501 39.9987 42.5157 40.3101 41.9801 40.8266C40.1745 42.0342 37.7722 42.2241 35.7448 41.1152L47.8865 35.5175C48.5903 35.3048 49.2177 34.8339 49.6079 34.1504C50.0822 33.3377 50.1281 32.4035 49.8145 31.5908ZM41.6205 30.6794C41.9801 30.8844 42.3014 31.1199 42.5998 31.3781L32.608 35.9732C32.585 34.9175 32.8451 33.8466 33.4113 32.8668C35.0715 30.011 38.7439 29.0312 41.6205 30.6794Z"
		  fill="white"/>
	<path d="M16.9782 56.3237C17.0342 55.7264 17.1976 55.199 17.4682 54.7417C17.7389 54.275 18.0889 53.911 18.5182 53.6497C18.9476 53.3884 19.4236 53.2577 19.9462 53.2577C20.3009 53.2577 20.5762 53.2997 20.7722 53.3837C20.9682 53.4677 21.0429 53.617 20.9962 53.8317C20.9682 53.9717 20.9029 54.0557 20.8002 54.0837C20.6976 54.1117 20.5716 54.1164 20.4222 54.0977C20.2822 54.0697 20.1236 54.0557 19.9462 54.0557C19.4796 54.0557 19.0642 54.1537 18.7002 54.3497C18.3362 54.5457 18.0516 54.8164 17.8462 55.1617C17.6409 55.4977 17.5382 55.885 17.5382 56.3237H16.9782ZM17.1182 60.9997C16.9969 60.9997 16.8942 60.9624 16.8102 60.8877C16.7356 60.8037 16.6982 60.701 16.6982 60.5797V53.7617C16.6982 53.631 16.7356 53.5284 16.8102 53.4537C16.8942 53.379 16.9969 53.3417 17.1182 53.3417C17.2489 53.3417 17.3516 53.379 17.4262 53.4537C17.5009 53.5284 17.5382 53.631 17.5382 53.7617V60.5797C17.5382 60.701 17.5009 60.8037 17.4262 60.8877C17.3516 60.9624 17.2489 60.9997 17.1182 60.9997Z"
		  fill="white"/>
	<path d="M25.3844 61.0697C24.647 61.0697 23.989 60.9064 23.4104 60.5797C22.841 60.2437 22.393 59.7817 22.0664 59.1937C21.7397 58.6057 21.5764 57.9337 21.5764 57.1777C21.5764 56.4124 21.7304 55.7404 22.0384 55.1617C22.3464 54.5737 22.771 54.1117 23.3124 53.7757C23.8537 53.4397 24.4744 53.2717 25.1744 53.2717C25.865 53.2717 26.4764 53.435 27.0084 53.7617C27.5404 54.079 27.9557 54.5224 28.2544 55.0917C28.553 55.6517 28.7024 56.3004 28.7024 57.0377C28.7024 57.159 28.665 57.257 28.5904 57.3317C28.5157 57.397 28.4177 57.4297 28.2964 57.4297H22.1364V56.7017H28.5204L27.9044 57.1637C27.923 56.557 27.8204 56.0204 27.5964 55.5537C27.3724 55.087 27.0504 54.723 26.6304 54.4617C26.2197 54.191 25.7344 54.0557 25.1744 54.0557C24.6424 54.0557 24.1664 54.191 23.7464 54.4617C23.3357 54.723 23.009 55.087 22.7664 55.5537C22.533 56.0204 22.4164 56.5617 22.4164 57.1777C22.4164 57.7844 22.5424 58.321 22.7944 58.7877C23.0464 59.2544 23.3964 59.623 23.8444 59.8937C24.2924 60.155 24.8057 60.2857 25.3844 60.2857C25.7484 60.2857 26.1124 60.225 26.4764 60.1037C26.8497 59.973 27.1437 59.805 27.3584 59.5997C27.433 59.525 27.5217 59.4877 27.6244 59.4877C27.7364 59.4784 27.8297 59.5064 27.9044 59.5717C28.007 59.6557 28.0584 59.749 28.0584 59.8517C28.0677 59.9544 28.0257 60.0477 27.9324 60.1317C27.6337 60.4024 27.2417 60.6264 26.7564 60.8037C26.2804 60.981 25.823 61.0697 25.3844 61.0697Z"
		  fill="white"/>
	<path d="M32.6062 61.0137C32.4288 61.0137 32.2982 60.9157 32.2142 60.7197L29.0222 53.8877C28.9848 53.785 28.9848 53.687 29.0222 53.5937C29.0595 53.491 29.1295 53.4164 29.2322 53.3697C29.3348 53.323 29.4328 53.3184 29.5262 53.3557C29.6288 53.393 29.7035 53.463 29.7502 53.5657L32.8862 60.3417H32.3682L35.4482 53.5517C35.4948 53.449 35.5695 53.379 35.6722 53.3417C35.7842 53.3044 35.8915 53.309 35.9942 53.3557C36.0968 53.4024 36.1668 53.477 36.2042 53.5797C36.2508 53.673 36.2508 53.771 36.2042 53.8737L33.0542 60.7197C32.9608 60.9157 32.8115 61.0137 32.6062 61.0137Z"
		  fill="white"/>
	<path d="M38.1871 60.9997C38.0658 60.9997 37.9631 60.9624 37.8791 60.8877C37.8045 60.8037 37.7671 60.701 37.7671 60.5797V53.7617C37.7671 53.631 37.8045 53.5284 37.8791 53.4537C37.9631 53.379 38.0658 53.3417 38.1871 53.3417C38.3178 53.3417 38.4205 53.379 38.4951 53.4537C38.5698 53.5284 38.6071 53.631 38.6071 53.7617V60.5797C38.6071 60.701 38.5698 60.8037 38.4951 60.8877C38.4205 60.9624 38.3178 60.9997 38.1871 60.9997ZM38.1731 51.7317C37.9958 51.7317 37.8418 51.671 37.7111 51.5497C37.5898 51.419 37.5291 51.2604 37.5291 51.0737C37.5291 50.859 37.5945 50.7004 37.7251 50.5977C37.8651 50.4857 38.0191 50.4297 38.1871 50.4297C38.3458 50.4297 38.4905 50.4857 38.6211 50.5977C38.7611 50.7004 38.8311 50.859 38.8311 51.0737C38.8311 51.2604 38.7658 51.419 38.6351 51.5497C38.5138 51.671 38.3598 51.7317 38.1731 51.7317Z"
		  fill="white"/>
	<path d="M44.519 61.0697C43.7816 61.0697 43.1236 60.9064 42.545 60.5797C41.9756 60.2437 41.5276 59.7817 41.201 59.1937C40.8743 58.6057 40.711 57.9337 40.711 57.1777C40.711 56.4124 40.865 55.7404 41.173 55.1617C41.481 54.5737 41.9056 54.1117 42.447 53.7757C42.9883 53.4397 43.609 53.2717 44.309 53.2717C44.9996 53.2717 45.611 53.435 46.143 53.7617C46.675 54.079 47.0903 54.5224 47.389 55.0917C47.6876 55.6517 47.837 56.3004 47.837 57.0377C47.837 57.159 47.7996 57.257 47.725 57.3317C47.6503 57.397 47.5523 57.4297 47.431 57.4297H41.271V56.7017H47.655L47.039 57.1637C47.0576 56.557 46.955 56.0204 46.731 55.5537C46.507 55.087 46.185 54.723 45.765 54.4617C45.3543 54.191 44.869 54.0557 44.309 54.0557C43.777 54.0557 43.301 54.191 42.881 54.4617C42.4703 54.723 42.1436 55.087 41.901 55.5537C41.6676 56.0204 41.551 56.5617 41.551 57.1777C41.551 57.7844 41.677 58.321 41.929 58.7877C42.181 59.2544 42.531 59.623 42.979 59.8937C43.427 60.155 43.9403 60.2857 44.519 60.2857C44.883 60.2857 45.247 60.225 45.611 60.1037C45.9843 59.973 46.2783 59.805 46.493 59.5997C46.5676 59.525 46.6563 59.4877 46.759 59.4877C46.871 59.4784 46.9643 59.5064 47.039 59.5717C47.1416 59.6557 47.193 59.749 47.193 59.8517C47.2023 59.9544 47.1603 60.0477 47.067 60.1317C46.7683 60.4024 46.3763 60.6264 45.891 60.8037C45.415 60.981 44.9576 61.0697 44.519 61.0697Z"
		  fill="white"/>
	<path d="M50.8168 60.9997C50.7235 60.9997 50.6395 60.9764 50.5648 60.9297C50.4995 60.883 50.4528 60.8177 50.4248 60.7337L48.1568 53.9437C48.1195 53.7384 48.1288 53.589 48.1848 53.4957C48.2408 53.393 48.3388 53.3417 48.4788 53.3417C48.5535 53.3417 48.6281 53.365 48.7028 53.4117C48.7775 53.449 48.8335 53.5097 48.8708 53.5937L50.9428 59.8377H50.7608L52.6648 53.6777C52.6928 53.575 52.7441 53.4957 52.8188 53.4397C52.8935 53.3744 52.9821 53.3417 53.0848 53.3417C53.1875 53.3417 53.2715 53.3744 53.3368 53.4397C53.4115 53.4957 53.4675 53.575 53.5048 53.6777L55.4648 59.8377H55.2128L57.2848 53.5937C57.3595 53.4257 57.4901 53.3417 57.6768 53.3417C57.8448 53.3417 57.9568 53.407 58.0128 53.5377C58.0781 53.6684 58.0781 53.8037 58.0128 53.9437L55.7588 60.7337C55.7308 60.8177 55.6795 60.883 55.6048 60.9297C55.5395 60.9764 55.4555 60.9997 55.3528 60.9997C55.2595 60.9997 55.1755 60.9764 55.1008 60.9297C55.0261 60.883 54.9795 60.8177 54.9608 60.7337L52.9588 54.5177H53.1408L51.2088 60.7337C51.1715 60.827 51.1155 60.897 51.0408 60.9437C50.9755 60.981 50.9008 60.9997 50.8168 60.9997Z"
		  fill="white"/>
	<path d="M61.9191 61.0837C61.4338 61.0837 60.9251 60.995 60.3931 60.8177C59.8611 60.6404 59.4178 60.3417 59.0631 59.9217C58.9885 59.8284 58.9558 59.7304 58.9651 59.6277C58.9838 59.5157 59.0445 59.4224 59.1471 59.3477C59.2405 59.2824 59.3385 59.259 59.4411 59.2777C59.5531 59.2964 59.6418 59.3477 59.7071 59.4317C59.9778 59.749 60.3045 59.973 60.6871 60.1037C61.0791 60.225 61.5038 60.2857 61.9611 60.2857C62.7451 60.2857 63.3004 60.1457 63.6271 59.8657C63.9538 59.5857 64.1171 59.259 64.1171 58.8857C64.1171 58.5217 63.9398 58.223 63.5851 57.9897C63.2398 57.747 62.7031 57.5744 61.9751 57.4717C61.0418 57.341 60.3511 57.089 59.9031 56.7157C59.4551 56.3424 59.2311 55.9084 59.2311 55.4137C59.2311 54.947 59.3478 54.555 59.5811 54.2377C59.8145 53.911 60.1318 53.6684 60.5331 53.5097C60.9438 53.3417 61.4104 53.2577 61.9331 53.2577C62.5678 53.2577 63.1045 53.3744 63.5431 53.6077C63.9818 53.8317 64.3365 54.135 64.6071 54.5177C64.6818 54.611 64.7051 54.7137 64.6771 54.8257C64.6585 54.9284 64.5885 55.0124 64.4671 55.0777C64.3738 55.1244 64.2758 55.1384 64.1731 55.1197C64.0705 55.101 63.9818 55.045 63.9071 54.9517C63.6738 54.653 63.3891 54.429 63.0531 54.2797C62.7265 54.121 62.3438 54.0417 61.9051 54.0417C61.3171 54.0417 60.8598 54.1677 60.5331 54.4197C60.2065 54.6717 60.0431 54.975 60.0431 55.3297C60.0431 55.5724 60.1085 55.787 60.2391 55.9737C60.3791 56.151 60.6031 56.305 60.9111 56.4357C61.2191 56.557 61.6298 56.655 62.1431 56.7297C62.8431 56.823 63.3938 56.9817 63.7951 57.2057C64.2058 57.4297 64.4951 57.691 64.6631 57.9897C64.8405 58.279 64.9291 58.5917 64.9291 58.9277C64.9291 59.3664 64.7891 59.749 64.5091 60.0757C64.2291 60.4024 63.8605 60.6544 63.4031 60.8317C62.9458 60.9997 62.4511 61.0837 61.9191 61.0837Z"
		  fill="white"/>
</svg>
