<svg width="80" height="80" viewBox="0 0 80 80" fill="none" xmlns="http://www.w3.org/2000/svg">
	<path d="M0 10C0 4.47715 4.47715 0 10 0H70C75.5228 0 80 4.47715 80 10V70C80 75.5228 75.5228 80 70 80H10C4.47715 80 0 75.5228 0 70V10Z"
		  fill="#F94D84"/>
	<path fill-rule="evenodd" clip-rule="evenodd"
		  d="M69.1899 17.669C70.1274 17.6112 70.6622 18.8303 70.0393 19.6052L64.4947 26.5031C63.8454 27.3109 62.6353 26.7945 62.6481 25.715L62.681 22.9163C62.6854 22.5496 62.5329 22.2021 62.2695 21.9782L60.2594 20.2699C59.4841 19.611 59.8679 18.244 60.8451 18.1837L69.1899 17.669ZM25.0719 35.7833C25.0719 42.3911 19.6705 47.7457 13.0144 47.7457C11.3465 47.7457 10 46.4014 10 44.7532C10 43.1051 11.3465 41.7683 13.0144 41.7683C16.3425 41.7683 19.0432 39.0872 19.0432 35.7833V26.8133C19.0432 25.1576 20.3897 23.8208 22.0575 23.8208C23.7254 23.8208 25.0719 25.1576 25.0719 26.8133V35.7833ZM57.5722 35.7833C57.5722 39.0872 60.2729 41.7683 63.601 41.7683C65.2689 41.7683 66.6154 43.0975 66.6154 44.7532C66.6154 46.409 65.2689 47.7457 63.601 47.7457C56.9449 47.7457 51.5435 42.3911 51.5435 35.7833V26.8133C51.5435 25.1576 52.89 23.8208 54.5578 23.8208C56.2257 23.8208 57.5722 25.1652 57.5722 26.8133V29.4945H59.9669C61.6348 29.4945 62.9889 30.8388 62.9889 32.4946C62.9889 34.1503 61.6348 35.4947 59.9669 35.4947H57.5722V35.7833ZM49.8145 31.5908C49.8221 31.5832 49.8298 31.5832 49.8298 31.5832C48.8811 29.1072 47.1061 26.9349 44.6273 25.507C38.8739 22.1955 31.5292 24.1551 28.2165 29.8819C24.896 35.6011 26.8699 42.9152 32.6156 46.2192C36.8465 48.6496 41.9419 48.2243 45.6601 45.5508L45.6372 45.5204C46.494 44.9963 47.0602 44.0545 47.0602 42.9836C47.0602 41.3354 45.7137 39.9987 44.0535 39.9987C43.2501 39.9987 42.5157 40.3101 41.9801 40.8266C40.1745 42.0342 37.7722 42.2241 35.7448 41.1152L47.8865 35.5175C48.5903 35.3048 49.2177 34.8339 49.6079 34.1504C50.0822 33.3377 50.1281 32.4035 49.8145 31.5908ZM41.6205 30.6794C41.9801 30.8844 42.3014 31.1199 42.5998 31.3781L32.608 35.9732C32.585 34.9175 32.8451 33.8466 33.4113 32.8668C35.0715 30.011 38.7439 29.0312 41.6205 30.6794Z"
		  fill="white"/>
	<path d="M20.2827 61.0844C19.7974 61.0844 19.2887 60.9957 18.7567 60.8184C18.2247 60.6411 17.7814 60.3424 17.4267 59.9224C17.352 59.8291 17.3194 59.7311 17.3287 59.6284C17.3474 59.5164 17.408 59.4231 17.5107 59.3484C17.604 59.2831 17.702 59.2597 17.8047 59.2784C17.9167 59.2971 18.0054 59.3484 18.0707 59.4324C18.3414 59.7497 18.668 59.9737 19.0507 60.1044C19.4427 60.2257 19.8674 60.2864 20.3247 60.2864C21.1087 60.2864 21.664 60.1464 21.9907 59.8664C22.3174 59.5864 22.4807 59.2597 22.4807 58.8864C22.4807 58.5224 22.3034 58.2237 21.9487 57.9904C21.6034 57.7477 21.0667 57.5751 20.3387 57.4724C19.4054 57.3417 18.7147 57.0897 18.2667 56.7164C17.8187 56.3431 17.5947 55.9091 17.5947 55.4144C17.5947 54.9477 17.7114 54.5557 17.9447 54.2384C18.178 53.9117 18.4954 53.6691 18.8967 53.5104C19.3074 53.3424 19.774 53.2584 20.2967 53.2584C20.9314 53.2584 21.468 53.3751 21.9067 53.6084C22.3454 53.8324 22.7 54.1357 22.9707 54.5184C23.0454 54.6117 23.0687 54.7144 23.0407 54.8264C23.022 54.9291 22.952 55.0131 22.8307 55.0784C22.7374 55.1251 22.6394 55.1391 22.5367 55.1204C22.434 55.1017 22.3454 55.0457 22.2707 54.9524C22.0374 54.6537 21.7527 54.4297 21.4167 54.2804C21.09 54.1217 20.7074 54.0424 20.2687 54.0424C19.6807 54.0424 19.2234 54.1684 18.8967 54.4204C18.57 54.6724 18.4067 54.9757 18.4067 55.3304C18.4067 55.5731 18.472 55.7877 18.6027 55.9744C18.7427 56.1517 18.9667 56.3057 19.2747 56.4364C19.5827 56.5577 19.9934 56.6557 20.5067 56.7304C21.2067 56.8237 21.7574 56.9824 22.1587 57.2064C22.5694 57.4304 22.8587 57.6917 23.0267 57.9904C23.204 58.2797 23.2927 58.5924 23.2927 58.9284C23.2927 59.3671 23.1527 59.7497 22.8727 60.0764C22.5927 60.4031 22.224 60.6551 21.7667 60.8324C21.3094 61.0004 20.8147 61.0844 20.2827 61.0844Z"
		  fill="white"/>
	<path d="M28.2926 61.0704C27.5552 61.0704 26.8972 60.9071 26.3186 60.5804C25.7492 60.2444 25.3012 59.7824 24.9746 59.1944C24.6479 58.6064 24.4846 57.9344 24.4846 57.1784C24.4846 56.4131 24.6386 55.7411 24.9466 55.1624C25.2546 54.5744 25.6792 54.1124 26.2206 53.7764C26.7619 53.4404 27.3826 53.2724 28.0826 53.2724C28.7732 53.2724 29.3846 53.4357 29.9166 53.7624C30.4486 54.0797 30.8639 54.5231 31.1626 55.0924C31.4612 55.6524 31.6106 56.3011 31.6106 57.0384C31.6106 57.1597 31.5732 57.2577 31.4986 57.3324C31.4239 57.3977 31.3259 57.4304 31.2046 57.4304H25.0446V56.7024H31.4286L30.8126 57.1644C30.8312 56.5577 30.7286 56.0211 30.5046 55.5544C30.2806 55.0877 29.9586 54.7237 29.5386 54.4624C29.1279 54.1917 28.6426 54.0564 28.0826 54.0564C27.5506 54.0564 27.0746 54.1917 26.6546 54.4624C26.2439 54.7237 25.9172 55.0877 25.6746 55.5544C25.4412 56.0211 25.3246 56.5624 25.3246 57.1784C25.3246 57.7851 25.4506 58.3217 25.7026 58.7884C25.9546 59.2551 26.3046 59.6237 26.7526 59.8944C27.2006 60.1557 27.7139 60.2864 28.2926 60.2864C28.6566 60.2864 29.0206 60.2257 29.3846 60.1044C29.7579 59.9737 30.0519 59.8057 30.2666 59.6004C30.3412 59.5257 30.4299 59.4884 30.5326 59.4884C30.6446 59.4791 30.7379 59.5071 30.8126 59.5724C30.9152 59.6564 30.9666 59.7497 30.9666 59.8524C30.9759 59.9551 30.9339 60.0484 30.8406 60.1324C30.5419 60.4031 30.1499 60.6271 29.6646 60.8044C29.1886 60.9817 28.7312 61.0704 28.2926 61.0704Z"
		  fill="white"/>
	<path d="M36.3824 61.0844C35.6357 61.0844 34.9637 60.9164 34.3664 60.5804C33.7784 60.2351 33.3117 59.7684 32.9664 59.1804C32.6304 58.5831 32.4624 57.9157 32.4624 57.1784C32.4624 56.4317 32.6304 55.7644 32.9664 55.1764C33.3117 54.5791 33.7784 54.1124 34.3664 53.7764C34.9637 53.4311 35.6357 53.2584 36.3824 53.2584C37.129 53.2584 37.7964 53.4311 38.3844 53.7764C38.9724 54.1124 39.4344 54.5791 39.7704 55.1764C40.1157 55.7644 40.2884 56.4317 40.2884 57.1784L39.9384 57.7384C39.9384 58.3731 39.7797 58.9424 39.4624 59.4464C39.1544 59.9504 38.7344 60.3517 38.2024 60.6504C37.6704 60.9397 37.0637 61.0844 36.3824 61.0844ZM36.3824 60.3004C36.9704 60.3004 37.493 60.1651 37.9504 59.8944C38.417 59.6144 38.781 59.2411 39.0424 58.7744C39.313 58.2984 39.4484 57.7664 39.4484 57.1784C39.4484 56.5811 39.313 56.0491 39.0424 55.5824C38.781 55.1064 38.417 54.7331 37.9504 54.4624C37.493 54.1824 36.9704 54.0424 36.3824 54.0424C35.8037 54.0424 35.281 54.1824 34.8144 54.4624C34.3477 54.7331 33.979 55.1064 33.7084 55.5824C33.4377 56.0491 33.3024 56.5811 33.3024 57.1784C33.3024 57.7664 33.4377 58.2984 33.7084 58.7744C33.979 59.2411 34.3477 59.6144 34.8144 59.8944C35.281 60.1651 35.8037 60.3004 36.3824 60.3004ZM39.8684 61.0004C39.747 61.0004 39.6444 60.9631 39.5604 60.8884C39.4857 60.8044 39.4484 60.7017 39.4484 60.5804V58.0184L39.7144 57.1784H40.2884V60.5804C40.2884 60.7017 40.251 60.8044 40.1764 60.8884C40.1017 60.9631 39.999 61.0004 39.8684 61.0004Z"
		  fill="white"/>
	<path d="M42.3843 56.3244C42.4403 55.7271 42.6037 55.1997 42.8743 54.7424C43.145 54.2757 43.495 53.9117 43.9243 53.6504C44.3537 53.3891 44.8297 53.2584 45.3523 53.2584C45.707 53.2584 45.9823 53.3004 46.1783 53.3844C46.3743 53.4684 46.449 53.6177 46.4023 53.8324C46.3743 53.9724 46.309 54.0564 46.2063 54.0844C46.1037 54.1124 45.9777 54.1171 45.8283 54.0984C45.6883 54.0704 45.5297 54.0564 45.3523 54.0564C44.8857 54.0564 44.4703 54.1544 44.1063 54.3504C43.7423 54.5464 43.4577 54.8171 43.2523 55.1624C43.047 55.4984 42.9443 55.8857 42.9443 56.3244H42.3843ZM42.5243 61.0004C42.403 61.0004 42.3003 60.9631 42.2163 60.8884C42.1417 60.8044 42.1043 60.7017 42.1043 60.5804V53.7624C42.1043 53.6317 42.1417 53.5291 42.2163 53.4544C42.3003 53.3797 42.403 53.3424 42.5243 53.3424C42.655 53.3424 42.7577 53.3797 42.8323 53.4544C42.907 53.5291 42.9443 53.6317 42.9443 53.7624V60.5804C42.9443 60.7017 42.907 60.8044 42.8323 60.8884C42.7577 60.9631 42.655 61.0004 42.5243 61.0004Z"
		  fill="white"/>
	<path d="M50.7905 61.0844C50.0625 61.0844 49.4091 60.9117 48.8305 60.5664C48.2611 60.2211 47.8085 59.7544 47.4725 59.1664C47.1458 58.5784 46.9825 57.9157 46.9825 57.1784C46.9825 56.4317 47.1365 55.7644 47.4445 55.1764C47.7525 54.5884 48.1771 54.1264 48.7185 53.7904C49.2598 53.4451 49.8805 53.2724 50.5805 53.2724C51.1778 53.2724 51.7238 53.3891 52.2185 53.6224C52.7131 53.8464 53.1425 54.1917 53.5065 54.6584C53.5811 54.7517 53.6091 54.8497 53.5905 54.9524C53.5718 55.0551 53.5111 55.1391 53.4085 55.2044C53.3245 55.2697 53.2311 55.2977 53.1285 55.2884C53.0258 55.2697 52.9371 55.2137 52.8625 55.1204C52.2651 54.4111 51.5045 54.0564 50.5805 54.0564C50.0298 54.0564 49.5445 54.1917 49.1245 54.4624C48.7138 54.7331 48.3918 55.1017 48.1585 55.5684C47.9345 56.0351 47.8225 56.5717 47.8225 57.1784C47.8225 57.7664 47.9485 58.2984 48.2005 58.7744C48.4525 59.2411 48.7978 59.6144 49.2365 59.8944C49.6845 60.1651 50.2025 60.3004 50.7905 60.3004C51.1731 60.3004 51.5325 60.2444 51.8685 60.1324C52.2138 60.0204 52.5125 59.8477 52.7645 59.6144C52.8485 59.5397 52.9418 59.4977 53.0445 59.4884C53.1471 59.4791 53.2358 59.5117 53.3105 59.5864C53.4038 59.6704 53.4505 59.7684 53.4505 59.8804C53.4598 59.9831 53.4225 60.0717 53.3385 60.1464C52.6571 60.7717 51.8078 61.0844 50.7905 61.0844Z"
		  fill="white"/>
	<path d="M55.8413 57.6404C55.7199 57.6404 55.6173 57.6031 55.5333 57.5284C55.4586 57.4444 55.4213 57.3417 55.4213 57.2204V50.4864C55.4213 50.3557 55.4586 50.2531 55.5333 50.1784C55.6173 50.1037 55.7199 50.0664 55.8413 50.0664C55.9719 50.0664 56.0746 50.1037 56.1493 50.1784C56.2239 50.2531 56.2613 50.3557 56.2613 50.4864V57.2204C56.2613 57.3417 56.2239 57.4444 56.1493 57.5284C56.0746 57.6031 55.9719 57.6404 55.8413 57.6404ZM62.0433 61.0004C61.9219 61.0004 61.8193 60.9631 61.7353 60.8884C61.6606 60.8044 61.6233 60.7017 61.6233 60.5804V56.8144C61.6233 56.1984 61.5019 55.6897 61.2593 55.2884C61.0259 54.8871 60.7039 54.5884 60.2933 54.3924C59.8919 54.1871 59.4346 54.0844 58.9213 54.0844C58.4173 54.0844 57.9646 54.1824 57.5633 54.3784C57.1619 54.5651 56.8446 54.8264 56.6113 55.1624C56.3779 55.4984 56.2613 55.8764 56.2613 56.2964H55.5613C55.5986 55.7177 55.7713 55.1997 56.0793 54.7424C56.3873 54.2757 56.7886 53.9117 57.2833 53.6504C57.778 53.3797 58.3239 53.2444 58.9213 53.2444C59.5933 53.2444 60.1953 53.3844 60.7273 53.6644C61.2686 53.9351 61.6933 54.3364 62.0013 54.8684C62.3093 55.3911 62.4633 56.0397 62.4633 56.8144V60.5804C62.4633 60.7017 62.4213 60.8044 62.3373 60.8884C62.2626 60.9631 62.1646 61.0004 62.0433 61.0004ZM55.8413 61.0004C55.7199 61.0004 55.6173 60.9631 55.5333 60.8884C55.4586 60.8044 55.4213 60.7017 55.4213 60.5804V53.7624C55.4213 53.6317 55.4586 53.5291 55.5333 53.4544C55.6173 53.3797 55.7199 53.3424 55.8413 53.3424C55.9719 53.3424 56.0746 53.3797 56.1493 53.4544C56.2239 53.5291 56.2613 53.6317 56.2613 53.7624V60.5804C56.2613 60.7017 56.2239 60.8044 56.1493 60.8884C56.0746 60.9631 55.9719 61.0004 55.8413 61.0004Z"
		  fill="white"/>
</svg>
