<svg width="80" height="80" viewBox="0 0 80 80" fill="none" xmlns="http://www.w3.org/2000/svg">
	<path d="M0 10C0 4.47715 4.47715 0 10 0H70C75.5228 0 80 4.47715 80 10V70C80 75.5228 75.5228 80 70 80H10C4.47715 80 0 75.5228 0 70V10Z"
		  fill="#FA5450"/>
	<path fill-rule="evenodd" clip-rule="evenodd"
		  d="M69.1899 12.669C70.1274 12.6112 70.6622 13.8303 70.0393 14.6052L64.4947 21.5031C63.8454 22.3109 62.6353 21.7945 62.6481 20.715L62.681 17.9163C62.6854 17.5496 62.5329 17.2021 62.2695 16.9782L60.2594 15.2699C59.4841 14.611 59.8679 13.244 60.8451 13.1837L69.1899 12.669ZM25.0719 30.7833C25.0719 37.3911 19.6705 42.7457 13.0144 42.7457C11.3465 42.7457 10 41.4014 10 39.7532C10 38.1051 11.3465 36.7683 13.0144 36.7683C16.3425 36.7683 19.0432 34.0872 19.0432 30.7833V21.8133C19.0432 20.1576 20.3897 18.8208 22.0575 18.8208C23.7254 18.8208 25.0719 20.1576 25.0719 21.8133V30.7833ZM57.5722 30.7833C57.5722 34.0872 60.2729 36.7683 63.601 36.7683C65.2689 36.7683 66.6154 38.0975 66.6154 39.7532C66.6154 41.409 65.2689 42.7457 63.601 42.7457C56.9449 42.7457 51.5435 37.3911 51.5435 30.7833V21.8133C51.5435 20.1576 52.89 18.8208 54.5578 18.8208C56.2257 18.8208 57.5722 20.1652 57.5722 21.8133V24.4945H59.9669C61.6348 24.4945 62.9889 25.8388 62.9889 27.4946C62.9889 29.1503 61.6348 30.4947 59.9669 30.4947H57.5722V30.7833ZM49.8145 26.5908C49.8221 26.5832 49.8298 26.5832 49.8298 26.5832C48.8811 24.1072 47.1061 21.9349 44.6273 20.507C38.8739 17.1955 31.5292 19.1551 28.2165 24.8819C24.896 30.6011 26.8699 37.9152 32.6156 41.2192C36.8465 43.6496 41.9419 43.2243 45.6601 40.5508L45.6372 40.5204C46.494 39.9963 47.0602 39.0545 47.0602 37.9836C47.0602 36.3354 45.7137 34.9987 44.0535 34.9987C43.2501 34.9987 42.5157 35.3101 41.9801 35.8266C40.1745 37.0342 37.7722 37.2241 35.7448 36.1152L47.8865 30.5175C48.5903 30.3048 49.2177 29.8339 49.6079 29.1504C50.0822 28.3377 50.1281 27.4035 49.8145 26.5908ZM41.6205 25.6794C41.9801 25.8844 42.3014 26.1199 42.5998 26.3781L32.608 30.9732C32.585 29.9175 32.8451 28.8466 33.4113 27.8668C35.0715 25.011 38.7439 24.0312 41.6205 25.6794Z"
		  fill="white"/>
	<path d="M22.8638 56.0842C22.3784 56.0842 21.8698 55.9956 21.3378 55.8182C20.8058 55.6409 20.3624 55.3422 20.0078 54.9222C19.9331 54.8289 19.9004 54.7309 19.9098 54.6283C19.9284 54.5162 19.9891 54.4229 20.0918 54.3482C20.1851 54.2829 20.2831 54.2596 20.3858 54.2782C20.4978 54.2969 20.5864 54.3483 20.6518 54.4323C20.9224 54.7496 21.2491 54.9736 21.6318 55.1042C22.0238 55.2256 22.4484 55.2863 22.9058 55.2863C23.6898 55.2863 24.2451 55.1462 24.5718 54.8663C24.8984 54.5863 25.0618 54.2596 25.0618 53.8863C25.0618 53.5223 24.8844 53.2236 24.5298 52.9903C24.1844 52.7476 23.6478 52.5749 22.9198 52.4723C21.9864 52.3416 21.2958 52.0896 20.8478 51.7162C20.3998 51.3429 20.1758 50.9089 20.1758 50.4142C20.1758 49.9476 20.2924 49.5556 20.5258 49.2383C20.7591 48.9116 21.0764 48.6689 21.4778 48.5103C21.8884 48.3423 22.3551 48.2582 22.8778 48.2582C23.5124 48.2582 24.0491 48.3749 24.4878 48.6083C24.9264 48.8323 25.2811 49.1356 25.5518 49.5182C25.6264 49.6116 25.6498 49.7143 25.6218 49.8263C25.6031 49.9289 25.5331 50.0129 25.4118 50.0783C25.3184 50.1249 25.2204 50.1389 25.1178 50.1203C25.0151 50.1016 24.9264 50.0456 24.8518 49.9523C24.6184 49.6536 24.3338 49.4296 23.9978 49.2803C23.6711 49.1216 23.2884 49.0423 22.8498 49.0423C22.2618 49.0423 21.8044 49.1683 21.4778 49.4202C21.1511 49.6723 20.9878 49.9756 20.9878 50.3302C20.9878 50.5729 21.0531 50.7876 21.1838 50.9742C21.3238 51.1516 21.5478 51.3056 21.8558 51.4363C22.1638 51.5576 22.5744 51.6556 23.0878 51.7303C23.7878 51.8236 24.3384 51.9822 24.7398 52.2062C25.1504 52.4302 25.4398 52.6916 25.6078 52.9903C25.7851 53.2796 25.8738 53.5923 25.8738 53.9283C25.8738 54.3669 25.7338 54.7496 25.4538 55.0763C25.1738 55.4029 24.8051 55.6549 24.3478 55.8322C23.8904 56.0002 23.3958 56.0842 22.8638 56.0842Z"
		  fill="white"/>
	<path d="M38.0276 56.0002C37.9063 56.0002 37.8036 55.9629 37.7196 55.8882C37.645 55.8042 37.6076 55.7016 37.6076 55.5802V51.5343C37.6076 50.8156 37.4163 50.2276 37.0336 49.7702C36.6603 49.3129 36.1703 49.0842 35.5636 49.0842C34.9196 49.0842 34.3923 49.2989 33.9816 49.7283C33.5803 50.1483 33.389 50.7176 33.4076 51.4363H32.5676C32.5863 50.7923 32.7263 50.2322 32.9876 49.7562C33.249 49.2802 33.6036 48.9116 34.0516 48.6502C34.4996 48.3796 35.0036 48.2442 35.5636 48.2442C36.133 48.2442 36.6323 48.3842 37.0616 48.6642C37.4909 48.9442 37.827 49.3316 38.0696 49.8263C38.3216 50.3209 38.4476 50.8903 38.4476 51.5343V55.5802C38.4476 55.7016 38.4103 55.8042 38.3356 55.8882C38.261 55.9629 38.1583 56.0002 38.0276 56.0002ZM27.9056 56.0002C27.7843 56.0002 27.6816 55.9629 27.5976 55.8882C27.523 55.8042 27.4856 55.7016 27.4856 55.5802V48.7622C27.4856 48.6316 27.523 48.5289 27.5976 48.4542C27.6816 48.3796 27.7843 48.3422 27.9056 48.3422C28.0363 48.3422 28.139 48.3796 28.2136 48.4542C28.2883 48.5289 28.3256 48.6316 28.3256 48.7622V55.5802C28.3256 55.7016 28.2883 55.8042 28.2136 55.8882C28.139 55.9629 28.0363 56.0002 27.9056 56.0002ZM32.9876 56.0002C32.8663 56.0002 32.7636 55.9629 32.6796 55.8882C32.605 55.8042 32.5676 55.7016 32.5676 55.5802V51.5343C32.5676 50.8156 32.3763 50.2276 31.9936 49.7702C31.6203 49.3129 31.1303 49.0842 30.5236 49.0842C29.8796 49.0842 29.3523 49.2896 28.9416 49.7003C28.531 50.1109 28.3256 50.6429 28.3256 51.2962H27.6256C27.6536 50.6989 27.7936 50.1716 28.0456 49.7142C28.307 49.2569 28.6523 48.8976 29.0816 48.6363C29.511 48.3749 29.9916 48.2442 30.5236 48.2442C31.093 48.2442 31.5923 48.3842 32.0216 48.6642C32.451 48.9442 32.787 49.3316 33.0296 49.8263C33.2816 50.3209 33.4076 50.8903 33.4076 51.5343V55.5802C33.4076 55.7016 33.3703 55.8042 33.2956 55.8882C33.221 55.9629 33.1183 56.0002 32.9876 56.0002Z"
		  fill="white"/>
	<path d="M44.0494 56.0842C43.3027 56.0842 42.6307 55.9163 42.0334 55.5802C41.4454 55.2349 40.9787 54.7683 40.6334 54.1803C40.2974 53.5829 40.1294 52.9156 40.1294 52.1783C40.1294 51.4316 40.2974 50.7642 40.6334 50.1762C40.9787 49.5789 41.4454 49.1123 42.0334 48.7762C42.6307 48.4309 43.3027 48.2582 44.0494 48.2582C44.796 48.2582 45.4634 48.4309 46.0514 48.7762C46.6394 49.1123 47.1014 49.5789 47.4374 50.1762C47.7827 50.7642 47.9554 51.4316 47.9554 52.1783L47.6054 52.7383C47.6054 53.3729 47.4467 53.9423 47.1294 54.4462C46.8214 54.9502 46.4014 55.3516 45.8694 55.6502C45.3374 55.9396 44.7307 56.0842 44.0494 56.0842ZM44.0494 55.3003C44.6374 55.3003 45.16 55.1649 45.6174 54.8942C46.084 54.6143 46.448 54.2409 46.7094 53.7743C46.98 53.2983 47.1154 52.7663 47.1154 52.1783C47.1154 51.5809 46.98 51.0489 46.7094 50.5823C46.448 50.1063 46.084 49.7329 45.6174 49.4623C45.16 49.1823 44.6374 49.0423 44.0494 49.0423C43.4707 49.0423 42.948 49.1823 42.4814 49.4623C42.0147 49.7329 41.646 50.1063 41.3754 50.5823C41.1047 51.0489 40.9694 51.5809 40.9694 52.1783C40.9694 52.7663 41.1047 53.2983 41.3754 53.7743C41.646 54.2409 42.0147 54.6143 42.4814 54.8942C42.948 55.1649 43.4707 55.3003 44.0494 55.3003ZM47.5354 56.0002C47.414 56.0002 47.3114 55.9629 47.2274 55.8882C47.1527 55.8042 47.1154 55.7016 47.1154 55.5802V53.0182L47.3814 52.1783H47.9554V55.5802C47.9554 55.7016 47.918 55.8042 47.8434 55.8882C47.7687 55.9629 47.666 56.0002 47.5354 56.0002Z"
		  fill="white"/>
	<path d="M50.0513 51.3243C50.1073 50.7269 50.2707 50.1996 50.5413 49.7422C50.812 49.2756 51.162 48.9116 51.5913 48.6502C52.0207 48.3889 52.4967 48.2582 53.0193 48.2582C53.374 48.2582 53.6493 48.3002 53.8453 48.3842C54.0413 48.4682 54.116 48.6176 54.0693 48.8323C54.0413 48.9723 53.976 49.0563 53.8733 49.0842C53.7707 49.1122 53.6447 49.1169 53.4953 49.0982C53.3553 49.0703 53.1967 49.0563 53.0193 49.0563C52.5527 49.0563 52.1373 49.1542 51.7733 49.3502C51.4093 49.5462 51.1247 49.8169 50.9193 50.1623C50.714 50.4983 50.6113 50.8856 50.6113 51.3243H50.0513ZM50.1913 56.0002C50.07 56.0002 49.9673 55.9629 49.8833 55.8882C49.8087 55.8042 49.7713 55.7016 49.7713 55.5802V48.7622C49.7713 48.6316 49.8087 48.5289 49.8833 48.4542C49.9673 48.3796 50.07 48.3422 50.1913 48.3422C50.322 48.3422 50.4247 48.3796 50.4993 48.4542C50.574 48.5289 50.6113 48.6316 50.6113 48.7622V55.5802C50.6113 55.7016 50.574 55.8042 50.4993 55.8882C50.4247 55.9629 50.322 56.0002 50.1913 56.0002Z"
		  fill="white"/>
	<path d="M58.766 56.0002C58.2527 55.9909 57.7953 55.8742 57.394 55.6502C56.9927 55.4169 56.68 55.0996 56.456 54.6982C56.232 54.2876 56.12 53.8256 56.12 53.3123V46.3402C56.12 46.2096 56.1573 46.1069 56.232 46.0323C56.316 45.9483 56.4187 45.9062 56.54 45.9062C56.6707 45.9062 56.7733 45.9483 56.848 46.0323C56.932 46.1069 56.974 46.2096 56.974 46.3402V53.3123C56.974 53.8536 57.142 54.2969 57.478 54.6423C57.814 54.9783 58.248 55.1462 58.78 55.1462H59.088C59.2187 55.1462 59.3213 55.1883 59.396 55.2723C59.48 55.3469 59.522 55.4496 59.522 55.5802C59.522 55.7016 59.48 55.8042 59.396 55.8882C59.3213 55.9629 59.2187 56.0002 59.088 56.0002H58.766ZM55.028 49.3783C54.916 49.3783 54.8227 49.3456 54.748 49.2803C54.6827 49.2056 54.65 49.1123 54.65 49.0003C54.65 48.8883 54.6827 48.7996 54.748 48.7342C54.8227 48.6596 54.916 48.6223 55.028 48.6223H58.822C58.934 48.6223 59.0227 48.6596 59.088 48.7342C59.1627 48.7996 59.2 48.8883 59.2 49.0003C59.2 49.1123 59.1627 49.2056 59.088 49.2803C59.0227 49.3456 58.934 49.3783 58.822 49.3783H55.028Z"
		  fill="white"/>
	<path d="M21.3099 68.0004C21.1886 68.0004 21.0859 67.9631 21.0019 67.8884C20.9273 67.8044 20.8899 67.7017 20.8899 67.5804V60.1884C20.8899 59.6191 20.9786 59.1011 21.1559 58.6344C21.3426 58.1584 21.6413 57.7804 22.0519 57.5004C22.4719 57.2111 23.0366 57.0664 23.7459 57.0664C24.0726 57.0664 24.4039 57.0991 24.7399 57.1644C25.0759 57.2297 25.3559 57.3324 25.5799 57.4724C25.8133 57.6124 25.9299 57.7944 25.9299 58.0184C25.9299 58.4104 25.7199 58.6064 25.2999 58.6064C25.1599 58.6064 25.0293 58.5691 24.9079 58.4944C24.7959 58.4104 24.6793 58.3171 24.5579 58.2144C24.4366 58.1117 24.2966 58.0231 24.1379 57.9484C23.9886 57.8644 23.8066 57.8224 23.5919 57.8224C23.1999 57.8224 22.8639 57.9017 22.5839 58.0604C22.3133 58.2191 22.1033 58.4711 21.9539 58.8164C21.8139 59.1617 21.7439 59.6191 21.7439 60.1884V67.5804C21.7439 67.7017 21.7019 67.8044 21.6179 67.8884C21.5339 67.9631 21.4313 68.0004 21.3099 68.0004ZM19.7979 61.3784C19.6859 61.3784 19.5926 61.3457 19.5179 61.2804C19.4526 61.2057 19.4199 61.1124 19.4199 61.0004C19.4199 60.8884 19.4526 60.7997 19.5179 60.7344C19.5926 60.6597 19.6859 60.6224 19.7979 60.6224H23.5919C23.7039 60.6224 23.7926 60.6597 23.8579 60.7344C23.9326 60.7997 23.9699 60.8884 23.9699 61.0004C23.9699 61.1124 23.9326 61.2057 23.8579 61.2804C23.7926 61.3457 23.7039 61.3784 23.5919 61.3784H19.7979ZM25.4119 68.0004C25.2906 68.0004 25.1879 67.9631 25.1039 67.8884C25.0293 67.8044 24.9919 67.7017 24.9919 67.5804V60.7624C24.9919 60.6317 25.0293 60.5291 25.1039 60.4544C25.1879 60.3797 25.2906 60.3424 25.4119 60.3424C25.5426 60.3424 25.6453 60.3797 25.7199 60.4544C25.7946 60.5291 25.8319 60.6317 25.8319 60.7624V67.5804C25.8319 67.7017 25.7946 67.8044 25.7199 67.8884C25.6453 67.9631 25.5426 68.0004 25.4119 68.0004Z"
		  fill="white"/>
	<path d="M29.7641 68.0004C29.4094 68.0004 29.0921 67.9024 28.8121 67.7064C28.5414 67.5104 28.3267 67.2397 28.1681 66.8944C28.0187 66.5491 27.9441 66.1477 27.9441 65.6904V57.4864C27.9441 57.3557 27.9814 57.2531 28.0561 57.1784C28.1401 57.1037 28.2427 57.0664 28.3641 57.0664C28.4947 57.0664 28.5974 57.1037 28.6721 57.1784C28.7467 57.2531 28.7841 57.3557 28.7841 57.4864V65.6904C28.7841 66.1197 28.8727 66.4744 29.0501 66.7544C29.2367 67.0251 29.4747 67.1604 29.7641 67.1604H30.1141C30.2167 67.1604 30.3007 67.1977 30.3661 67.2724C30.4314 67.3471 30.4641 67.4497 30.4641 67.5804C30.4641 67.7017 30.4267 67.8044 30.3521 67.8884C30.2774 67.9631 30.1747 68.0004 30.0441 68.0004H29.7641Z"
		  fill="white"/>
	<path d="M34.8535 68.0004C34.3402 67.9911 33.8828 67.8744 33.4815 67.6504C33.0802 67.4171 32.7675 67.0997 32.5435 66.6984C32.3195 66.2877 32.2075 65.8257 32.2075 65.3124V58.3404C32.2075 58.2097 32.2448 58.1071 32.3195 58.0324C32.4035 57.9484 32.5062 57.9064 32.6275 57.9064C32.7582 57.9064 32.8608 57.9484 32.9355 58.0324C33.0195 58.1071 33.0615 58.2097 33.0615 58.3404V65.3124C33.0615 65.8537 33.2295 66.2971 33.5655 66.6424C33.9015 66.9784 34.3355 67.1464 34.8675 67.1464H35.1755C35.3062 67.1464 35.4088 67.1884 35.4835 67.2724C35.5675 67.3471 35.6095 67.4497 35.6095 67.5804C35.6095 67.7017 35.5675 67.8044 35.4835 67.8884C35.4088 67.9631 35.3062 68.0004 35.1755 68.0004H34.8535ZM31.1155 61.3784C31.0035 61.3784 30.9102 61.3457 30.8355 61.2804C30.7702 61.2057 30.7375 61.1124 30.7375 61.0004C30.7375 60.8884 30.7702 60.7997 30.8355 60.7344C30.9102 60.6597 31.0035 60.6224 31.1155 60.6224H34.9095C35.0215 60.6224 35.1102 60.6597 35.1755 60.7344C35.2502 60.7997 35.2875 60.8884 35.2875 61.0004C35.2875 61.1124 35.2502 61.2057 35.1755 61.2804C35.1102 61.3457 35.0215 61.3784 34.9095 61.3784H31.1155Z"
		  fill="white"/>
	<path d="M40.472 68.0704C39.7347 68.0704 39.0767 67.9071 38.498 67.5804C37.9286 67.2444 37.4806 66.7824 37.154 66.1944C36.8273 65.6064 36.664 64.9344 36.664 64.1784C36.664 63.4131 36.818 62.7411 37.126 62.1624C37.434 61.5744 37.8587 61.1124 38.4 60.7764C38.9413 60.4404 39.562 60.2724 40.262 60.2724C40.9527 60.2724 41.564 60.4357 42.096 60.7624C42.628 61.0797 43.0433 61.5231 43.342 62.0924C43.6406 62.6524 43.79 63.3011 43.79 64.0384C43.79 64.1597 43.7527 64.2577 43.678 64.3324C43.6033 64.3977 43.5053 64.4304 43.384 64.4304H37.224V63.7024H43.608L42.992 64.1644C43.0107 63.5577 42.908 63.0211 42.684 62.5544C42.46 62.0877 42.138 61.7237 41.718 61.4624C41.3073 61.1917 40.822 61.0564 40.262 61.0564C39.73 61.0564 39.254 61.1917 38.834 61.4624C38.4233 61.7237 38.0967 62.0877 37.854 62.5544C37.6207 63.0211 37.504 63.5624 37.504 64.1784C37.504 64.7851 37.63 65.3217 37.882 65.7884C38.134 66.2551 38.484 66.6237 38.932 66.8944C39.38 67.1557 39.8933 67.2864 40.472 67.2864C40.836 67.2864 41.2 67.2257 41.564 67.1044C41.9373 66.9737 42.2313 66.8057 42.446 66.6004C42.5207 66.5257 42.6093 66.4884 42.712 66.4884C42.824 66.4791 42.9173 66.5071 42.992 66.5724C43.0947 66.6564 43.146 66.7497 43.146 66.8524C43.1553 66.9551 43.1133 67.0484 43.02 67.1324C42.7213 67.4031 42.3293 67.6271 41.844 67.8044C41.368 67.9817 40.9107 68.0704 40.472 68.0704Z"
		  fill="white"/>
	<path d="M45.6152 63.3244C45.6712 62.7271 45.8346 62.1997 46.1052 61.7424C46.3759 61.2757 46.7259 60.9117 47.1552 60.6504C47.5846 60.3891 48.0606 60.2584 48.5832 60.2584C48.9379 60.2584 49.2132 60.3004 49.4092 60.3844C49.6052 60.4684 49.6799 60.6177 49.6332 60.8324C49.6052 60.9724 49.5399 61.0564 49.4372 61.0844C49.3346 61.1124 49.2086 61.1171 49.0592 61.0984C48.9192 61.0704 48.7606 61.0564 48.5832 61.0564C48.1166 61.0564 47.7012 61.1544 47.3372 61.3504C46.9732 61.5464 46.6886 61.8171 46.4832 62.1624C46.2779 62.4984 46.1752 62.8857 46.1752 63.3244H45.6152ZM45.7552 68.0004C45.6339 68.0004 45.5312 67.9631 45.4472 67.8884C45.3726 67.8044 45.3352 67.7017 45.3352 67.5804V60.7624C45.3352 60.6317 45.3726 60.5291 45.4472 60.4544C45.5312 60.3797 45.6339 60.3424 45.7552 60.3424C45.8859 60.3424 45.9886 60.3797 46.0632 60.4544C46.1379 60.5291 46.1752 60.6317 46.1752 60.7624V67.5804C46.1752 67.7017 46.1379 67.8044 46.0632 67.8884C45.9886 67.9631 45.8859 68.0004 45.7552 68.0004Z"
		  fill="white"/>
	<path d="M53.7979 68.0844C53.3126 68.0844 52.8039 67.9957 52.2719 67.8184C51.7399 67.6411 51.2966 67.3424 50.9419 66.9224C50.8672 66.8291 50.8346 66.7311 50.8439 66.6284C50.8626 66.5164 50.9232 66.4231 51.0259 66.3484C51.1192 66.2831 51.2172 66.2597 51.3199 66.2784C51.4319 66.2971 51.5206 66.3484 51.5859 66.4324C51.8566 66.7497 52.1832 66.9737 52.5659 67.1044C52.9579 67.2257 53.3826 67.2864 53.8399 67.2864C54.6239 67.2864 55.1792 67.1464 55.5059 66.8664C55.8326 66.5864 55.9959 66.2597 55.9959 65.8864C55.9959 65.5224 55.8186 65.2237 55.4639 64.9904C55.1186 64.7477 54.5819 64.5751 53.8539 64.4724C52.9206 64.3417 52.2299 64.0897 51.7819 63.7164C51.3339 63.3431 51.1099 62.9091 51.1099 62.4144C51.1099 61.9477 51.2266 61.5557 51.4599 61.2384C51.6932 60.9117 52.0106 60.6691 52.4119 60.5104C52.8226 60.3424 53.2892 60.2584 53.8119 60.2584C54.4466 60.2584 54.9832 60.3751 55.4219 60.6084C55.8606 60.8324 56.2152 61.1357 56.4859 61.5184C56.5606 61.6117 56.5839 61.7144 56.5559 61.8264C56.5372 61.9291 56.4672 62.0131 56.3459 62.0784C56.2526 62.1251 56.1546 62.1391 56.0519 62.1204C55.9492 62.1017 55.8606 62.0457 55.7859 61.9524C55.5526 61.6537 55.2679 61.4297 54.9319 61.2804C54.6052 61.1217 54.2226 61.0424 53.7839 61.0424C53.1959 61.0424 52.7386 61.1684 52.4119 61.4204C52.0852 61.6724 51.9219 61.9757 51.9219 62.3304C51.9219 62.5731 51.9872 62.7877 52.1179 62.9744C52.2579 63.1517 52.4819 63.3057 52.7899 63.4364C53.0979 63.5577 53.5086 63.6557 54.0219 63.7304C54.7219 63.8237 55.2726 63.9824 55.6739 64.2064C56.0846 64.4304 56.3739 64.6917 56.5419 64.9904C56.7192 65.2797 56.8079 65.5924 56.8079 65.9284C56.8079 66.3671 56.6679 66.7497 56.3879 67.0764C56.1079 67.4031 55.7392 67.6551 55.2819 67.8324C54.8246 68.0004 54.3299 68.0844 53.7979 68.0844Z"
		  fill="white"/>
</svg>
