<svg width="80" height="80" viewBox="0 0 80 80" fill="none" xmlns="http://www.w3.org/2000/svg">
	<path d="M0 10C0 4.47715 4.47715 0 10 0H70C75.5228 0 80 4.47715 80 10V70C80 75.5228 75.5228 80 70 80H10C4.47715 80 0 75.5228 0 70V10Z"
		  fill="#A2AE08"/>
	<path fill-rule="evenodd" clip-rule="evenodd"
		  d="M69.1899 12.669C70.1274 12.6112 70.6622 13.8303 70.0393 14.6052L64.4947 21.5031C63.8454 22.3109 62.6353 21.7945 62.6481 20.715L62.681 17.9163C62.6854 17.5496 62.5329 17.2021 62.2695 16.9782L60.2594 15.2699C59.4841 14.611 59.8679 13.244 60.8451 13.1837L69.1899 12.669ZM25.0719 30.7833C25.0719 37.3911 19.6705 42.7457 13.0144 42.7457C11.3465 42.7457 10 41.4014 10 39.7532C10 38.1051 11.3465 36.7683 13.0144 36.7683C16.3425 36.7683 19.0432 34.0872 19.0432 30.7833V21.8133C19.0432 20.1576 20.3897 18.8208 22.0575 18.8208C23.7254 18.8208 25.0719 20.1576 25.0719 21.8133V30.7833ZM57.5722 30.7833C57.5722 34.0872 60.2729 36.7683 63.601 36.7683C65.2689 36.7683 66.6154 38.0975 66.6154 39.7532C66.6154 41.409 65.2689 42.7457 63.601 42.7457C56.9449 42.7457 51.5435 37.3911 51.5435 30.7833V21.8133C51.5435 20.1576 52.89 18.8208 54.5578 18.8208C56.2257 18.8208 57.5722 20.1652 57.5722 21.8133V24.4945H59.9669C61.6348 24.4945 62.9889 25.8388 62.9889 27.4946C62.9889 29.1503 61.6348 30.4947 59.9669 30.4947H57.5722V30.7833ZM49.8145 26.5908C49.8221 26.5832 49.8298 26.5832 49.8298 26.5832C48.8811 24.1072 47.1061 21.9349 44.6273 20.507C38.8739 17.1955 31.5292 19.1551 28.2165 24.8819C24.896 30.6011 26.8699 37.9152 32.6156 41.2192C36.8465 43.6496 41.9419 43.2243 45.6601 40.5508L45.6372 40.5204C46.494 39.9963 47.0602 39.0545 47.0602 37.9836C47.0602 36.3354 45.7137 34.9987 44.0535 34.9987C43.2501 34.9987 42.5157 35.3101 41.9801 35.8266C40.1745 37.0342 37.7722 37.2241 35.7448 36.1152L47.8865 30.5175C48.5903 30.3048 49.2177 29.8339 49.6079 29.1504C50.0822 28.3377 50.1281 27.4035 49.8145 26.5908ZM41.6205 25.6794C41.9801 25.8844 42.3014 26.1199 42.5998 26.3781L32.608 30.9732C32.585 29.9175 32.8451 28.8466 33.4113 27.8668C35.0715 25.011 38.7439 24.0312 41.6205 25.6794Z"
		  fill="white"/>
	<path d="M13.8638 56.0844C13.3784 56.0844 12.8698 55.9957 12.3378 55.8184C11.8058 55.6411 11.3624 55.3424 11.0078 54.9224C10.9331 54.8291 10.9004 54.7311 10.9098 54.6284C10.9284 54.5164 10.9891 54.4231 11.0918 54.3484C11.1851 54.2831 11.2831 54.2597 11.3858 54.2784C11.4978 54.2971 11.5864 54.3484 11.6518 54.4324C11.9224 54.7497 12.2491 54.9737 12.6318 55.1044C13.0238 55.2257 13.4484 55.2864 13.9058 55.2864C14.6898 55.2864 15.2451 55.1464 15.5718 54.8664C15.8984 54.5864 16.0618 54.2597 16.0618 53.8864C16.0618 53.5224 15.8844 53.2237 15.5298 52.9904C15.1844 52.7477 14.6478 52.5751 13.9198 52.4724C12.9864 52.3417 12.2958 52.0897 11.8478 51.7164C11.3998 51.3431 11.1758 50.9091 11.1758 50.4144C11.1758 49.9477 11.2924 49.5557 11.5258 49.2384C11.7591 48.9117 12.0764 48.6691 12.4778 48.5104C12.8884 48.3424 13.3551 48.2584 13.8778 48.2584C14.5124 48.2584 15.0491 48.3751 15.4878 48.6084C15.9264 48.8324 16.2811 49.1357 16.5518 49.5184C16.6264 49.6117 16.6498 49.7144 16.6218 49.8264C16.6031 49.9291 16.5331 50.0131 16.4118 50.0784C16.3184 50.1251 16.2204 50.1391 16.1178 50.1204C16.0151 50.1017 15.9264 50.0457 15.8518 49.9524C15.6184 49.6537 15.3338 49.4297 14.9978 49.2804C14.6711 49.1217 14.2884 49.0424 13.8498 49.0424C13.2618 49.0424 12.8044 49.1684 12.4778 49.4204C12.1511 49.6724 11.9878 49.9757 11.9878 50.3304C11.9878 50.5731 12.0531 50.7877 12.1838 50.9744C12.3238 51.1517 12.5478 51.3057 12.8558 51.4364C13.1638 51.5577 13.5744 51.6557 14.0878 51.7304C14.7878 51.8237 15.3384 51.9824 15.7398 52.2064C16.1504 52.4304 16.4398 52.6917 16.6078 52.9904C16.7851 53.2797 16.8738 53.5924 16.8738 53.9284C16.8738 54.3671 16.7338 54.7497 16.4538 55.0764C16.1738 55.4031 15.8051 55.6551 15.3478 55.8324C14.8904 56.0004 14.3958 56.0844 13.8638 56.0844Z"
		  fill="white"/>
	<path d="M21.6216 56.0004C21.1083 55.9911 20.651 55.8744 20.2496 55.6504C19.8483 55.4171 19.5356 55.0997 19.3116 54.6984C19.0876 54.2877 18.9756 53.8257 18.9756 53.3124V46.3404C18.9756 46.2097 19.013 46.1071 19.0876 46.0324C19.1716 45.9484 19.2743 45.9064 19.3956 45.9064C19.5263 45.9064 19.629 45.9484 19.7036 46.0324C19.7876 46.1071 19.8296 46.2097 19.8296 46.3404V53.3124C19.8296 53.8537 19.9976 54.2971 20.3336 54.6424C20.6696 54.9784 21.1036 55.1464 21.6356 55.1464H21.9436C22.0743 55.1464 22.177 55.1884 22.2516 55.2724C22.3356 55.3471 22.3776 55.4497 22.3776 55.5804C22.3776 55.7017 22.3356 55.8044 22.2516 55.8884C22.177 55.9631 22.0743 56.0004 21.9436 56.0004H21.6216ZM17.8836 49.3784C17.7716 49.3784 17.6783 49.3457 17.6036 49.2804C17.5383 49.2057 17.5056 49.1124 17.5056 49.0004C17.5056 48.8884 17.5383 48.7997 17.6036 48.7344C17.6783 48.6597 17.7716 48.6224 17.8836 48.6224H21.6776C21.7896 48.6224 21.8783 48.6597 21.9436 48.7344C22.0183 48.7997 22.0556 48.8884 22.0556 49.0004C22.0556 49.1124 22.0183 49.2057 21.9436 49.2804C21.8783 49.3457 21.7896 49.3784 21.6776 49.3784H17.8836Z"
		  fill="white"/>
	<path d="M25.1261 59.3184C25.0701 59.3184 25.0048 59.3044 24.9301 59.2764C24.6781 59.1737 24.6081 59.0011 24.7201 58.7584L29.4241 48.5664C29.5361 48.3331 29.7088 48.2631 29.9421 48.3564C30.1941 48.4591 30.2641 48.6317 30.1521 48.8744L25.4481 59.0664C25.3641 59.2344 25.2568 59.3184 25.1261 59.3184ZM26.6101 55.8184C26.4888 55.8744 26.3814 55.8884 26.2881 55.8604C26.1948 55.8324 26.1201 55.7577 26.0641 55.6364L22.9981 48.9164C22.9421 48.7951 22.9281 48.6877 22.9561 48.5944C22.9841 48.5011 23.0588 48.4264 23.1801 48.3704C23.3014 48.3144 23.4088 48.3004 23.5021 48.3284C23.5954 48.3564 23.6701 48.4311 23.7261 48.5524L26.7921 55.2724C26.8481 55.3937 26.8621 55.5011 26.8341 55.5944C26.8061 55.6877 26.7314 55.7624 26.6101 55.8184Z"
		  fill="white"/>
	<path d="M32.8641 56.0004C32.5094 56.0004 32.1921 55.9024 31.9121 55.7064C31.6414 55.5104 31.4267 55.2397 31.2681 54.8944C31.1187 54.5491 31.0441 54.1477 31.0441 53.6904V45.4864C31.0441 45.3557 31.0814 45.2531 31.1561 45.1784C31.2401 45.1037 31.3427 45.0664 31.4641 45.0664C31.5947 45.0664 31.6974 45.1037 31.7721 45.1784C31.8467 45.2531 31.8841 45.3557 31.8841 45.4864V53.6904C31.8841 54.1197 31.9727 54.4744 32.1501 54.7544C32.3367 55.0251 32.5747 55.1604 32.8641 55.1604H33.2141C33.3167 55.1604 33.4007 55.1977 33.4661 55.2724C33.5314 55.3471 33.5641 55.4497 33.5641 55.5804C33.5641 55.7017 33.5267 55.8044 33.4521 55.8884C33.3774 55.9631 33.2747 56.0004 33.1441 56.0004H32.8641Z"
		  fill="white"/>
	<path d="M37.7817 56.0704C37.0443 56.0704 36.3863 55.9071 35.8077 55.5804C35.2383 55.2444 34.7903 54.7824 34.4637 54.1944C34.137 53.6064 33.9737 52.9344 33.9737 52.1784C33.9737 51.4131 34.1277 50.7411 34.4357 50.1624C34.7437 49.5744 35.1683 49.1124 35.7097 48.7764C36.251 48.4404 36.8717 48.2724 37.5717 48.2724C38.2623 48.2724 38.8737 48.4357 39.4057 48.7624C39.9377 49.0797 40.353 49.5231 40.6517 50.0924C40.9503 50.6524 41.0997 51.3011 41.0997 52.0384C41.0997 52.1597 41.0623 52.2577 40.9877 52.3324C40.913 52.3977 40.815 52.4304 40.6937 52.4304H34.5337V51.7024H40.9177L40.3017 52.1644C40.3203 51.5577 40.2177 51.0211 39.9937 50.5544C39.7697 50.0877 39.4477 49.7237 39.0277 49.4624C38.617 49.1917 38.1317 49.0564 37.5717 49.0564C37.0397 49.0564 36.5637 49.1917 36.1437 49.4624C35.733 49.7237 35.4063 50.0877 35.1637 50.5544C34.9303 51.0211 34.8137 51.5624 34.8137 52.1784C34.8137 52.7851 34.9397 53.3217 35.1917 53.7884C35.4437 54.2551 35.7937 54.6237 36.2417 54.8944C36.6897 55.1557 37.203 55.2864 37.7817 55.2864C38.1457 55.2864 38.5097 55.2257 38.8737 55.1044C39.247 54.9737 39.541 54.8057 39.7557 54.6004C39.8303 54.5257 39.919 54.4884 40.0217 54.4884C40.1337 54.4791 40.227 54.5071 40.3017 54.5724C40.4043 54.6564 40.4557 54.7497 40.4557 54.8524C40.465 54.9551 40.423 55.0484 40.3297 55.1324C40.031 55.4031 39.639 55.6271 39.1537 55.8044C38.6777 55.9817 38.2203 56.0704 37.7817 56.0704Z"
		  fill="white"/>
	<path d="M21.8018 68.0001C21.6804 68.0001 21.5778 67.9628 21.4938 67.8881C21.4191 67.8041 21.3818 67.7015 21.3818 67.5801V63.5341C21.3818 62.8155 21.1904 62.2275 20.8078 61.7701C20.4344 61.3128 19.9444 61.0841 19.3378 61.0841C18.6938 61.0841 18.1664 61.2988 17.7558 61.7281C17.3544 62.1481 17.1631 62.7175 17.1818 63.4361H16.3418C16.3604 62.7921 16.5004 62.2321 16.7618 61.7561C17.0231 61.2801 17.3778 60.9115 17.8258 60.6501C18.2738 60.3795 18.7778 60.2441 19.3378 60.2441C19.9071 60.2441 20.4064 60.3841 20.8358 60.6641C21.2651 60.9441 21.6011 61.3315 21.8438 61.8261C22.0958 62.3208 22.2218 62.8901 22.2218 63.5341V67.5801C22.2218 67.7015 22.1844 67.8041 22.1098 67.8881C22.0351 67.9628 21.9324 68.0001 21.8018 68.0001ZM11.6798 68.0001C11.5584 68.0001 11.4558 67.9628 11.3718 67.8881C11.2971 67.8041 11.2598 67.7015 11.2598 67.5801V60.7621C11.2598 60.6315 11.2971 60.5288 11.3718 60.4541C11.4558 60.3795 11.5584 60.3421 11.6798 60.3421C11.8104 60.3421 11.9131 60.3795 11.9878 60.4541C12.0624 60.5288 12.0998 60.6315 12.0998 60.7621V67.5801C12.0998 67.7015 12.0624 67.8041 11.9878 67.8881C11.9131 67.9628 11.8104 68.0001 11.6798 68.0001ZM16.7618 68.0001C16.6404 68.0001 16.5378 67.9628 16.4538 67.8881C16.3791 67.8041 16.3418 67.7015 16.3418 67.5801V63.5341C16.3418 62.8155 16.1504 62.2275 15.7678 61.7701C15.3944 61.3128 14.9044 61.0841 14.2978 61.0841C13.6538 61.0841 13.1264 61.2895 12.7158 61.7001C12.3051 62.1108 12.0998 62.6428 12.0998 63.2961H11.3998C11.4278 62.6988 11.5678 62.1715 11.8198 61.7141C12.0811 61.2568 12.4264 60.8975 12.8558 60.6361C13.2851 60.3748 13.7658 60.2441 14.2978 60.2441C14.8671 60.2441 15.3664 60.3841 15.7958 60.6641C16.2251 60.9441 16.5611 61.3315 16.8038 61.8261C17.0558 62.3208 17.1818 62.8901 17.1818 63.5341V67.5801C17.1818 67.7015 17.1444 67.8041 17.0698 67.8881C16.9951 67.9628 16.8924 68.0001 16.7618 68.0001Z"
		  fill="white"/>
	<path d="M27.4035 68.0841C26.6568 68.0841 25.9848 67.9161 25.3875 67.5801C24.7995 67.2348 24.3328 66.7681 23.9875 66.1801C23.6515 65.5828 23.4835 64.9155 23.4835 64.1781C23.4835 63.4315 23.6515 62.7641 23.9875 62.1761C24.3328 61.5788 24.7995 61.1121 25.3875 60.7761C25.9848 60.4308 26.6568 60.2581 27.4035 60.2581C28.1502 60.2581 28.8175 60.4308 29.4055 60.7761C29.9935 61.1121 30.4555 61.5788 30.7915 62.1761C31.1368 62.7641 31.3095 63.4315 31.3095 64.1781L30.9595 64.7381C30.9595 65.3728 30.8008 65.9421 30.4835 66.4461C30.1755 66.9501 29.7555 67.3515 29.2235 67.6501C28.6915 67.9395 28.0848 68.0841 27.4035 68.0841ZM27.4035 67.3001C27.9915 67.3001 28.5142 67.1648 28.9715 66.8941C29.4382 66.6141 29.8022 66.2408 30.0635 65.7741C30.3342 65.2981 30.4695 64.7661 30.4695 64.1781C30.4695 63.5808 30.3342 63.0488 30.0635 62.5821C29.8022 62.1061 29.4382 61.7328 28.9715 61.4621C28.5142 61.1821 27.9915 61.0421 27.4035 61.0421C26.8248 61.0421 26.3022 61.1821 25.8355 61.4621C25.3688 61.7328 25.0002 62.1061 24.7295 62.5821C24.4588 63.0488 24.3235 63.5808 24.3235 64.1781C24.3235 64.7661 24.4588 65.2981 24.7295 65.7741C25.0002 66.2408 25.3688 66.6141 25.8355 66.8941C26.3022 67.1648 26.8248 67.3001 27.4035 67.3001ZM30.8895 68.0001C30.7682 68.0001 30.6655 67.9628 30.5815 67.8881C30.5068 67.8041 30.4695 67.7015 30.4695 67.5801V65.0181L30.7355 64.1781H31.3095V67.5801C31.3095 67.7015 31.2722 67.8041 31.1975 67.8881C31.1228 67.9628 31.0202 68.0001 30.8895 68.0001Z"
		  fill="white"/>
	<path d="M39.3275 68.0001C39.2061 68.0001 39.1035 67.9628 39.0195 67.8881C38.9448 67.8041 38.9075 67.7015 38.9075 67.5801V63.8141C38.9075 63.1981 38.7861 62.6895 38.5435 62.2881C38.3101 61.8868 37.9881 61.5881 37.5775 61.3921C37.1761 61.1868 36.7188 61.0841 36.2055 61.0841C35.7015 61.0841 35.2488 61.1821 34.8475 61.3781C34.4461 61.5648 34.1288 61.8261 33.8955 62.1621C33.6621 62.4981 33.5455 62.8761 33.5455 63.2961H32.8455C32.8828 62.7175 33.0555 62.1995 33.3635 61.7421C33.6715 61.2755 34.0728 60.9115 34.5675 60.6501C35.0621 60.3795 35.6081 60.2441 36.2055 60.2441C36.8775 60.2441 37.4795 60.3841 38.0115 60.6641C38.5528 60.9348 38.9775 61.3361 39.2855 61.8681C39.5935 62.3908 39.7475 63.0395 39.7475 63.8141V67.5801C39.7475 67.7015 39.7055 67.8041 39.6215 67.8881C39.5468 67.9628 39.4488 68.0001 39.3275 68.0001ZM33.1255 68.0001C33.0041 68.0001 32.9015 67.9628 32.8175 67.8881C32.7428 67.8041 32.7055 67.7015 32.7055 67.5801V60.7621C32.7055 60.6315 32.7428 60.5288 32.8175 60.4541C32.9015 60.3795 33.0041 60.3421 33.1255 60.3421C33.2561 60.3421 33.3588 60.3795 33.4335 60.4541C33.5081 60.5288 33.5455 60.6315 33.5455 60.7621V67.5801C33.5455 67.7015 33.5081 67.8041 33.4335 67.8881C33.3588 67.9628 33.2561 68.0001 33.1255 68.0001Z"
		  fill="white"/>
	<path d="M44.9254 68.0841C44.1787 68.0841 43.5067 67.9161 42.9094 67.5801C42.3214 67.2348 41.8547 66.7681 41.5094 66.1801C41.1734 65.5828 41.0054 64.9155 41.0054 64.1781C41.0054 63.4315 41.1734 62.7641 41.5094 62.1761C41.8547 61.5788 42.3214 61.1121 42.9094 60.7761C43.5067 60.4308 44.1787 60.2581 44.9254 60.2581C45.6721 60.2581 46.3394 60.4308 46.9274 60.7761C47.5154 61.1121 47.9774 61.5788 48.3134 62.1761C48.6587 62.7641 48.8314 63.4315 48.8314 64.1781L48.4814 64.7381C48.4814 65.3728 48.3227 65.9421 48.0054 66.4461C47.6974 66.9501 47.2774 67.3515 46.7454 67.6501C46.2134 67.9395 45.6067 68.0841 44.9254 68.0841ZM44.9254 67.3001C45.5134 67.3001 46.0361 67.1648 46.4934 66.8941C46.9601 66.6141 47.3241 66.2408 47.5854 65.7741C47.8561 65.2981 47.9914 64.7661 47.9914 64.1781C47.9914 63.5808 47.8561 63.0488 47.5854 62.5821C47.3241 62.1061 46.9601 61.7328 46.4934 61.4621C46.0361 61.1821 45.5134 61.0421 44.9254 61.0421C44.3467 61.0421 43.8241 61.1821 43.3574 61.4621C42.8907 61.7328 42.5221 62.1061 42.2514 62.5821C41.9807 63.0488 41.8454 63.5808 41.8454 64.1781C41.8454 64.7661 41.9807 65.2981 42.2514 65.7741C42.5221 66.2408 42.8907 66.6141 43.3574 66.8941C43.8241 67.1648 44.3467 67.3001 44.9254 67.3001ZM48.4114 68.0001C48.2901 68.0001 48.1874 67.9628 48.1034 67.8881C48.0287 67.8041 47.9914 67.7015 47.9914 67.5801V65.0181L48.2574 64.1781H48.8314V67.5801C48.8314 67.7015 48.7941 67.8041 48.7194 67.8881C48.6447 67.9628 48.5421 68.0001 48.4114 68.0001Z"
		  fill="white"/>
	<path d="M53.7273 68.0841C52.962 68.0841 52.2853 67.9161 51.6973 67.5801C51.1093 67.2441 50.6473 66.7821 50.3113 66.1941C49.9753 65.6061 49.8073 64.9341 49.8073 64.1781C49.8073 63.4128 49.98 62.7361 50.3253 62.1481C50.6707 61.5601 51.1373 61.0981 51.7253 60.7621C52.3227 60.4261 52.99 60.2581 53.7273 60.2581C54.4927 60.2581 55.1647 60.4261 55.7433 60.7621C56.3313 61.0981 56.7933 61.5601 57.1293 62.1481C57.4653 62.7361 57.6333 63.4128 57.6333 64.1781L57.1433 64.7381C57.1433 65.3915 56.9987 65.9701 56.7093 66.4741C56.42 66.9781 56.0187 67.3748 55.5053 67.6641C54.992 67.9441 54.3993 68.0841 53.7273 68.0841ZM53.7833 70.9261C53.0087 70.9261 52.346 70.7815 51.7953 70.4921C51.254 70.2028 50.806 69.8341 50.4513 69.3861C50.3767 69.2928 50.3393 69.1948 50.3393 69.0921C50.3393 68.9895 50.386 68.9055 50.4793 68.8401C50.5727 68.7655 50.68 68.7375 50.8013 68.7561C50.932 68.7748 51.03 68.8355 51.0953 68.9381C51.3847 69.2835 51.7533 69.5681 52.2013 69.7921C52.6493 70.0255 53.1767 70.1421 53.7833 70.1421C54.362 70.1421 54.8753 70.0021 55.3233 69.7221C55.7807 69.4421 56.14 69.0548 56.4013 68.5601C56.6627 68.0748 56.7933 67.5288 56.7933 66.9221V64.6961L57.1713 64.1781H57.6333V66.9221C57.6333 67.6781 57.4653 68.3595 57.1293 68.9661C56.7933 69.5728 56.336 70.0488 55.7573 70.3941C55.1787 70.7488 54.5207 70.9261 53.7833 70.9261ZM53.7273 67.3001C54.3247 67.3001 54.852 67.1695 55.3093 66.9081C55.776 66.6375 56.14 66.2688 56.4013 65.8021C56.6627 65.3261 56.7933 64.7848 56.7933 64.1781C56.7933 63.5621 56.6627 63.0208 56.4013 62.5541C56.14 62.0781 55.776 61.7095 55.3093 61.4481C54.852 61.1775 54.3247 61.0421 53.7273 61.0421C53.13 61.0421 52.598 61.1775 52.1313 61.4481C51.6647 61.7095 51.3007 62.0781 51.0393 62.5541C50.778 63.0208 50.6473 63.5621 50.6473 64.1781C50.6473 64.7848 50.778 65.3261 51.0393 65.8021C51.3007 66.2688 51.6647 66.6375 52.1313 66.9081C52.598 67.1695 53.13 67.3001 53.7273 67.3001Z"
		  fill="white"/>
	<path d="M62.4173 68.0701C61.68 68.0701 61.022 67.9068 60.4433 67.5801C59.874 67.2441 59.426 66.7821 59.0993 66.1941C58.7726 65.6061 58.6093 64.9341 58.6093 64.1781C58.6093 63.4128 58.7633 62.7408 59.0713 62.1621C59.3793 61.5741 59.804 61.1121 60.3453 60.7761C60.8866 60.4401 61.5073 60.2721 62.2073 60.2721C62.898 60.2721 63.5093 60.4355 64.0413 60.7621C64.5733 61.0795 64.9886 61.5228 65.2873 62.0921C65.586 62.6521 65.7353 63.3008 65.7353 64.0381C65.7353 64.1595 65.698 64.2575 65.6233 64.3321C65.5486 64.3975 65.4506 64.4301 65.3293 64.4301H59.1693V63.7021H65.5533L64.9373 64.1641C64.956 63.5575 64.8533 63.0208 64.6293 62.5541C64.4053 62.0875 64.0833 61.7235 63.6633 61.4621C63.2526 61.1915 62.7673 61.0561 62.2073 61.0561C61.6753 61.0561 61.1993 61.1915 60.7793 61.4621C60.3686 61.7235 60.042 62.0875 59.7993 62.5541C59.566 63.0208 59.4493 63.5621 59.4493 64.1781C59.4493 64.7848 59.5753 65.3215 59.8273 65.7881C60.0793 66.2548 60.4293 66.6235 60.8773 66.8941C61.3253 67.1555 61.8386 67.2861 62.4173 67.2861C62.7813 67.2861 63.1453 67.2255 63.5093 67.1041C63.8826 66.9735 64.1766 66.8055 64.3913 66.6001C64.466 66.5255 64.5546 66.4881 64.6573 66.4881C64.7693 66.4788 64.8626 66.5068 64.9373 66.5721C65.04 66.6561 65.0913 66.7495 65.0913 66.8521C65.1006 66.9548 65.0586 67.0481 64.9653 67.1321C64.6666 67.4028 64.2746 67.6268 63.7893 67.8041C63.3133 67.9815 62.856 68.0701 62.4173 68.0701Z"
		  fill="white"/>
	<path d="M67.1405 63.3241C67.1965 62.7268 67.3599 62.1995 67.6305 61.7421C67.9012 61.2755 68.2512 60.9115 68.6805 60.6501C69.1099 60.3888 69.5859 60.2581 70.1085 60.2581C70.4632 60.2581 70.7385 60.3001 70.9345 60.3841C71.1305 60.4681 71.2052 60.6175 71.1585 60.8321C71.1305 60.9721 71.0652 61.0561 70.9625 61.0841C70.8599 61.1121 70.7339 61.1168 70.5845 61.0981C70.4445 61.0701 70.2859 61.0561 70.1085 61.0561C69.6419 61.0561 69.2265 61.1541 68.8625 61.3501C68.4986 61.5461 68.2139 61.8168 68.0085 62.1621C67.8032 62.4981 67.7005 62.8855 67.7005 63.3241H67.1405ZM67.2805 68.0001C67.1592 68.0001 67.0565 67.9628 66.9725 67.8881C66.8979 67.8041 66.8605 67.7015 66.8605 67.5801V60.7621C66.8605 60.6315 66.8979 60.5288 66.9725 60.4541C67.0565 60.3795 67.1592 60.3421 67.2805 60.3421C67.4112 60.3421 67.5139 60.3795 67.5885 60.4541C67.6632 60.5288 67.7005 60.6315 67.7005 60.7621V67.5801C67.7005 67.7015 67.6632 67.8041 67.5885 67.8881C67.5139 67.9628 67.4112 68.0001 67.2805 68.0001Z"
		  fill="white"/>
</svg>
