<svg width="80" height="80" viewBox="0 0 80 80" fill="none" xmlns="http://www.w3.org/2000/svg">
	<path d="M0 10C0 4.47715 4.47715 0 10 0H70C75.5228 0 80 4.47715 80 10V70C80 75.5228 75.5228 80 70 80H10C4.47715 80 0 75.5228 0 70V10Z"
		  fill="#159EE4"/>
	<path fill-rule="evenodd" clip-rule="evenodd"
		  d="M69.1899 17.669C70.1274 17.6112 70.6622 18.8303 70.0393 19.6052L64.4947 26.5031C63.8454 27.3109 62.6353 26.7945 62.6481 25.715L62.681 22.9163C62.6854 22.5496 62.5329 22.2021 62.2695 21.9782L60.2594 20.2699C59.4841 19.611 59.8679 18.244 60.8451 18.1837L69.1899 17.669ZM25.0719 35.7833C25.0719 42.3911 19.6705 47.7457 13.0144 47.7457C11.3465 47.7457 10 46.4014 10 44.7532C10 43.1051 11.3465 41.7683 13.0144 41.7683C16.3425 41.7683 19.0432 39.0872 19.0432 35.7833V26.8133C19.0432 25.1576 20.3897 23.8208 22.0575 23.8208C23.7254 23.8208 25.0719 25.1576 25.0719 26.8133V35.7833ZM57.5722 35.7833C57.5722 39.0872 60.2729 41.7683 63.601 41.7683C65.2689 41.7683 66.6154 43.0975 66.6154 44.7532C66.6154 46.409 65.2689 47.7457 63.601 47.7457C56.9449 47.7457 51.5435 42.3911 51.5435 35.7833V26.8133C51.5435 25.1576 52.89 23.8208 54.5578 23.8208C56.2257 23.8208 57.5722 25.1652 57.5722 26.8133V29.4945H59.9669C61.6348 29.4945 62.9889 30.8388 62.9889 32.4946C62.9889 34.1503 61.6348 35.4947 59.9669 35.4947H57.5722V35.7833ZM49.8145 31.5908C49.8221 31.5832 49.8298 31.5832 49.8298 31.5832C48.8811 29.1072 47.1061 26.9349 44.6273 25.507C38.8739 22.1955 31.5292 24.1551 28.2165 29.8819C24.896 35.6011 26.8699 42.9152 32.6156 46.2192C36.8465 48.6496 41.9419 48.2243 45.6601 45.5508L45.6372 45.5204C46.494 44.9963 47.0602 44.0545 47.0602 42.9836C47.0602 41.3354 45.7137 39.9987 44.0535 39.9987C43.2501 39.9987 42.5157 40.3101 41.9801 40.8266C40.1745 42.0342 37.7722 42.2241 35.7448 41.1152L47.8865 35.5175C48.5903 35.3048 49.2177 34.8339 49.6079 34.1504C50.0822 33.3377 50.1281 32.4035 49.8145 31.5908ZM41.6205 30.6794C41.9801 30.8844 42.3014 31.1199 42.5998 31.3781L32.608 35.9732C32.585 34.9175 32.8451 33.8466 33.4113 32.8668C35.0715 30.011 38.7439 29.0312 41.6205 30.6794Z"
		  fill="white"/>
	<path d="M28.5262 61.0004C28.0128 60.9911 27.5555 60.8744 27.1542 60.6504C26.7528 60.4171 26.4402 60.0997 26.2162 59.6984C25.9922 59.2877 25.8802 58.8257 25.8802 58.3124V51.3404C25.8802 51.2097 25.9175 51.1071 25.9922 51.0324C26.0762 50.9484 26.1788 50.9064 26.3002 50.9064C26.4308 50.9064 26.5335 50.9484 26.6082 51.0324C26.6922 51.1071 26.7342 51.2097 26.7342 51.3404V58.3124C26.7342 58.8537 26.9022 59.2971 27.2382 59.6424C27.5742 59.9784 28.0082 60.1464 28.5402 60.1464H28.8482C28.9788 60.1464 29.0815 60.1884 29.1562 60.2724C29.2402 60.3471 29.2822 60.4497 29.2822 60.5804C29.2822 60.7017 29.2402 60.8044 29.1562 60.8884C29.0815 60.9631 28.9788 61.0004 28.8482 61.0004H28.5262ZM24.7882 54.3784C24.6762 54.3784 24.5828 54.3457 24.5082 54.2804C24.4428 54.2057 24.4102 54.1124 24.4102 54.0004C24.4102 53.8884 24.4428 53.7997 24.5082 53.7344C24.5828 53.6597 24.6762 53.6224 24.7882 53.6224H28.5822C28.6942 53.6224 28.7828 53.6597 28.8482 53.7344C28.9228 53.7997 28.9602 53.8884 28.9602 54.0004C28.9602 54.1124 28.9228 54.2057 28.8482 54.2804C28.7828 54.3457 28.6942 54.3784 28.5822 54.3784H24.7882Z"
		  fill="white"/>
	<path d="M34.2566 61.0844C33.51 61.0844 32.838 60.9164 32.2406 60.5804C31.6526 60.2351 31.186 59.7684 30.8406 59.1804C30.5046 58.5831 30.3366 57.9157 30.3366 57.1784C30.3366 56.4317 30.5046 55.7644 30.8406 55.1764C31.186 54.5791 31.6526 54.1124 32.2406 53.7764C32.838 53.4311 33.51 53.2584 34.2566 53.2584C35.0033 53.2584 35.6706 53.4311 36.2586 53.7764C36.8466 54.1124 37.3086 54.5791 37.6446 55.1764C37.99 55.7644 38.1626 56.4317 38.1626 57.1784L37.8126 57.7384C37.8126 58.3731 37.654 58.9424 37.3366 59.4464C37.0286 59.9504 36.6086 60.3517 36.0766 60.6504C35.5446 60.9397 34.938 61.0844 34.2566 61.0844ZM34.2566 60.3004C34.8446 60.3004 35.3673 60.1651 35.8246 59.8944C36.2913 59.6144 36.6553 59.2411 36.9166 58.7744C37.1873 58.2984 37.3226 57.7664 37.3226 57.1784C37.3226 56.5811 37.1873 56.0491 36.9166 55.5824C36.6553 55.1064 36.2913 54.7331 35.8246 54.4624C35.3673 54.1824 34.8446 54.0424 34.2566 54.0424C33.678 54.0424 33.1553 54.1824 32.6886 54.4624C32.222 54.7331 31.8533 55.1064 31.5826 55.5824C31.312 56.0491 31.1766 56.5811 31.1766 57.1784C31.1766 57.7664 31.312 58.2984 31.5826 58.7744C31.8533 59.2411 32.222 59.6144 32.6886 59.8944C33.1553 60.1651 33.678 60.3004 34.2566 60.3004ZM37.7426 61.0004C37.6213 61.0004 37.5186 60.9631 37.4346 60.8884C37.36 60.8044 37.3226 60.7017 37.3226 60.5804V58.0184L37.5886 57.1784H38.1626V60.5804C38.1626 60.7017 38.1253 60.8044 38.0506 60.8884C37.976 60.9631 37.8733 61.0004 37.7426 61.0004Z"
		  fill="white"/>
	<path d="M43.8846 61.0844C43.1566 61.0844 42.4986 60.9164 41.9106 60.5804C41.3226 60.2444 40.8559 59.7871 40.5106 59.2084C40.1746 58.6297 39.9973 57.9764 39.9786 57.2484V50.4864C39.9786 50.3557 40.0159 50.2531 40.0906 50.1784C40.1746 50.1037 40.2773 50.0664 40.3986 50.0664C40.5293 50.0664 40.6319 50.1037 40.7066 50.1784C40.7813 50.2531 40.8186 50.3557 40.8186 50.4864V54.8544C41.1173 54.3691 41.5326 53.9817 42.0646 53.6924C42.6059 53.4031 43.2126 53.2584 43.8846 53.2584C44.6313 53.2584 45.2986 53.4311 45.8866 53.7764C46.4839 54.1124 46.9506 54.5744 47.2866 55.1624C47.6319 55.7504 47.8046 56.4177 47.8046 57.1644C47.8046 57.9111 47.6319 58.5831 47.2866 59.1804C46.9506 59.7684 46.4839 60.2351 45.8866 60.5804C45.2986 60.9164 44.6313 61.0844 43.8846 61.0844ZM43.8846 60.3004C44.4726 60.3004 44.9953 60.1651 45.4526 59.8944C45.9193 59.6144 46.2879 59.2411 46.5586 58.7744C46.8293 58.2984 46.9646 57.7617 46.9646 57.1644C46.9646 56.5671 46.8293 56.0351 46.5586 55.5684C46.2879 55.1017 45.9193 54.7331 45.4526 54.4624C44.9953 54.1824 44.4726 54.0424 43.8846 54.0424C43.3059 54.0424 42.7833 54.1824 42.3166 54.4624C41.8499 54.7331 41.4813 55.1017 41.2106 55.5684C40.9493 56.0351 40.8186 56.5671 40.8186 57.1644C40.8186 57.7617 40.9493 58.2984 41.2106 58.7744C41.4813 59.2411 41.8499 59.6144 42.3166 59.8944C42.7833 60.1651 43.3059 60.3004 43.8846 60.3004Z"
		  fill="white"/>
	<path d="M52.2284 61.0844C51.743 61.0844 51.2344 60.9957 50.7024 60.8184C50.1704 60.6411 49.727 60.3424 49.3724 59.9224C49.2977 59.8291 49.265 59.7311 49.2744 59.6284C49.293 59.5164 49.3537 59.4231 49.4564 59.3484C49.5497 59.2831 49.6477 59.2597 49.7504 59.2784C49.8624 59.2971 49.951 59.3484 50.0164 59.4324C50.287 59.7497 50.6137 59.9737 50.9964 60.1044C51.3884 60.2257 51.813 60.2864 52.2704 60.2864C53.0544 60.2864 53.6097 60.1464 53.9364 59.8664C54.263 59.5864 54.4264 59.2597 54.4264 58.8864C54.4264 58.5224 54.249 58.2237 53.8944 57.9904C53.549 57.7477 53.0124 57.5751 52.2844 57.4724C51.351 57.3417 50.6604 57.0897 50.2124 56.7164C49.7644 56.3431 49.5404 55.9091 49.5404 55.4144C49.5404 54.9477 49.657 54.5557 49.8904 54.2384C50.1237 53.9117 50.441 53.6691 50.8424 53.5104C51.253 53.3424 51.7197 53.2584 52.2424 53.2584C52.877 53.2584 53.4137 53.3751 53.8524 53.6084C54.291 53.8324 54.6457 54.1357 54.9164 54.5184C54.991 54.6117 55.0144 54.7144 54.9864 54.8264C54.9677 54.9291 54.8977 55.0131 54.7764 55.0784C54.683 55.1251 54.585 55.1391 54.4824 55.1204C54.3797 55.1017 54.291 55.0457 54.2164 54.9524C53.983 54.6537 53.6984 54.4297 53.3624 54.2804C53.0357 54.1217 52.653 54.0424 52.2144 54.0424C51.6264 54.0424 51.169 54.1684 50.8424 54.4204C50.5157 54.6724 50.3524 54.9757 50.3524 55.3304C50.3524 55.5731 50.4177 55.7877 50.5484 55.9744C50.6884 56.1517 50.9124 56.3057 51.2204 56.4364C51.5284 56.5577 51.939 56.6557 52.4524 56.7304C53.1524 56.8237 53.703 56.9824 54.1044 57.2064C54.515 57.4304 54.8044 57.6917 54.9724 57.9904C55.1497 58.2797 55.2384 58.5924 55.2384 58.9284C55.2384 59.3671 55.0984 59.7497 54.8184 60.0764C54.5384 60.4031 54.1697 60.6551 53.7124 60.8324C53.255 61.0004 52.7604 61.0844 52.2284 61.0844Z"
		  fill="white"/>
</svg>
