<svg width="80" height="80" viewBox="0 0 80 80" fill="none" xmlns="http://www.w3.org/2000/svg">
	<path d="M0 10C0 4.47715 4.47715 0 10 0H70C75.5228 0 80 4.47715 80 10V70C80 75.5228 75.5228 80 70 80H10C4.47715 80 0 75.5228 0 70V10Z"
		  fill="#0EAEC9"/>
	<path fill-rule="evenodd" clip-rule="evenodd"
		  d="M69.1899 17.669C70.1274 17.6112 70.6622 18.8303 70.0393 19.6052L64.4947 26.5031C63.8454 27.3109 62.6353 26.7945 62.6481 25.715L62.681 22.9163C62.6854 22.5496 62.5329 22.2021 62.2695 21.9782L60.2594 20.2699C59.4841 19.611 59.8679 18.244 60.8451 18.1837L69.1899 17.669ZM25.0719 35.7833C25.0719 42.3911 19.6705 47.7457 13.0144 47.7457C11.3465 47.7457 10 46.4014 10 44.7532C10 43.1051 11.3465 41.7683 13.0144 41.7683C16.3425 41.7683 19.0432 39.0872 19.0432 35.7833V26.8133C19.0432 25.1576 20.3897 23.8208 22.0575 23.8208C23.7254 23.8208 25.0719 25.1576 25.0719 26.8133V35.7833ZM57.5722 35.7833C57.5722 39.0872 60.2729 41.7683 63.601 41.7683C65.2689 41.7683 66.6154 43.0975 66.6154 44.7532C66.6154 46.409 65.2689 47.7457 63.601 47.7457C56.9449 47.7457 51.5435 42.3911 51.5435 35.7833V26.8133C51.5435 25.1576 52.89 23.8208 54.5578 23.8208C56.2257 23.8208 57.5722 25.1652 57.5722 26.8133V29.4945H59.9669C61.6348 29.4945 62.9889 30.8388 62.9889 32.4946C62.9889 34.1503 61.6348 35.4947 59.9669 35.4947H57.5722V35.7833ZM49.8145 31.5908C49.8221 31.5832 49.8298 31.5832 49.8298 31.5832C48.8811 29.1072 47.1061 26.9349 44.6273 25.507C38.8739 22.1955 31.5292 24.1551 28.2165 29.8819C24.896 35.6011 26.8699 42.9152 32.6156 46.2192C36.8465 48.6496 41.9419 48.2243 45.6601 45.5508L45.6372 45.5204C46.494 44.9963 47.0602 44.0545 47.0602 42.9836C47.0602 41.3354 45.7137 39.9987 44.0535 39.9987C43.2501 39.9987 42.5157 40.3101 41.9801 40.8266C40.1745 42.0342 37.7722 42.2241 35.7448 41.1152L47.8865 35.5175C48.5903 35.3048 49.2177 34.8339 49.6079 34.1504C50.0822 33.3377 50.1281 32.4035 49.8145 31.5908ZM41.6205 30.6794C41.9801 30.8844 42.3014 31.1199 42.5998 31.3781L32.608 35.9732C32.585 34.9175 32.8451 33.8466 33.4113 32.8668C35.0715 30.011 38.7439 29.0312 41.6205 30.6794Z"
		  fill="white"/>
	<path d="M25.8201 61.0004C25.3068 60.9911 24.8494 60.8744 24.4481 60.6504C24.0468 60.4171 23.7341 60.0997 23.5101 59.6984C23.2861 59.2877 23.1741 58.8257 23.1741 58.3124V51.3404C23.1741 51.2097 23.2114 51.1071 23.2861 51.0324C23.3701 50.9484 23.4728 50.9064 23.5941 50.9064C23.7248 50.9064 23.8274 50.9484 23.9021 51.0324C23.9861 51.1071 24.0281 51.2097 24.0281 51.3404V58.3124C24.0281 58.8537 24.1961 59.2971 24.5321 59.6424C24.8681 59.9784 25.3021 60.1464 25.8341 60.1464H26.1421C26.2728 60.1464 26.3754 60.1884 26.4501 60.2724C26.5341 60.3471 26.5761 60.4497 26.5761 60.5804C26.5761 60.7017 26.5341 60.8044 26.4501 60.8884C26.3754 60.9631 26.2728 61.0004 26.1421 61.0004H25.8201ZM22.0821 54.3784C21.9701 54.3784 21.8768 54.3457 21.8021 54.2804C21.7368 54.2057 21.7041 54.1124 21.7041 54.0004C21.7041 53.8884 21.7368 53.7997 21.8021 53.7344C21.8768 53.6597 21.9701 53.6224 22.0821 53.6224H25.8761C25.9881 53.6224 26.0768 53.6597 26.1421 53.7344C26.2168 53.7997 26.2541 53.8884 26.2541 54.0004C26.2541 54.1124 26.2168 54.2057 26.1421 54.2804C26.0768 54.3457 25.9881 54.3784 25.8761 54.3784H22.0821Z"
		  fill="white"/>
	<path d="M28.3306 56.3244C28.3866 55.7271 28.5499 55.1997 28.8206 54.7424C29.0913 54.2757 29.4413 53.9117 29.8706 53.6504C30.2999 53.3891 30.7759 53.2584 31.2986 53.2584C31.6533 53.2584 31.9286 53.3004 32.1246 53.3844C32.3206 53.4684 32.3953 53.6177 32.3486 53.8324C32.3206 53.9724 32.2553 54.0564 32.1526 54.0844C32.0499 54.1124 31.9239 54.1171 31.7746 54.0984C31.6346 54.0704 31.4759 54.0564 31.2986 54.0564C30.8319 54.0564 30.4166 54.1544 30.0526 54.3504C29.6886 54.5464 29.4039 54.8171 29.1986 55.1624C28.9933 55.4984 28.8906 55.8857 28.8906 56.3244H28.3306ZM28.4706 61.0004C28.3493 61.0004 28.2466 60.9631 28.1626 60.8884C28.0879 60.8044 28.0506 60.7017 28.0506 60.5804V53.7624C28.0506 53.6317 28.0879 53.5291 28.1626 53.4544C28.2466 53.3797 28.3493 53.3424 28.4706 53.3424C28.6013 53.3424 28.7039 53.3797 28.7786 53.4544C28.8533 53.5291 28.8906 53.6317 28.8906 53.7624V60.5804C28.8906 60.7017 28.8533 60.8044 28.7786 60.8884C28.7039 60.9631 28.6013 61.0004 28.4706 61.0004Z"
		  fill="white"/>
	<path d="M34.6093 61.0004C34.4879 61.0004 34.3853 60.9631 34.3013 60.8884C34.2266 60.8044 34.1893 60.7017 34.1893 60.5804V53.7624C34.1893 53.6317 34.2266 53.5291 34.3013 53.4544C34.3853 53.3797 34.4879 53.3424 34.6093 53.3424C34.7399 53.3424 34.8426 53.3797 34.9173 53.4544C34.9919 53.5291 35.0293 53.6317 35.0293 53.7624V60.5804C35.0293 60.7017 34.9919 60.8044 34.9173 60.8884C34.8426 60.9631 34.7399 61.0004 34.6093 61.0004ZM34.5953 51.7324C34.4179 51.7324 34.2639 51.6717 34.1333 51.5504C34.0119 51.4197 33.9513 51.2611 33.9513 51.0744C33.9513 50.8597 34.0166 50.7011 34.1473 50.5984C34.2873 50.4864 34.4413 50.4304 34.6093 50.4304C34.7679 50.4304 34.9126 50.4864 35.0433 50.5984C35.1833 50.7011 35.2533 50.8597 35.2533 51.0744C35.2533 51.2611 35.1879 51.4197 35.0573 51.5504C34.9359 51.6717 34.7819 51.7324 34.5953 51.7324Z"
		  fill="white"/>
	<path d="M40.9411 61.0844C40.2131 61.0844 39.5598 60.9117 38.9811 60.5664C38.4118 60.2211 37.9591 59.7544 37.6231 59.1664C37.2964 58.5784 37.1331 57.9157 37.1331 57.1784C37.1331 56.4317 37.2871 55.7644 37.5951 55.1764C37.9031 54.5884 38.3278 54.1264 38.8691 53.7904C39.4104 53.4451 40.0311 53.2724 40.7311 53.2724C41.3284 53.2724 41.8744 53.3891 42.3691 53.6224C42.8638 53.8464 43.2931 54.1917 43.6571 54.6584C43.7318 54.7517 43.7598 54.8497 43.7411 54.9524C43.7224 55.0551 43.6618 55.1391 43.5591 55.2044C43.4751 55.2697 43.3818 55.2977 43.2791 55.2884C43.1764 55.2697 43.0878 55.2137 43.0131 55.1204C42.4158 54.4111 41.6551 54.0564 40.7311 54.0564C40.1804 54.0564 39.6951 54.1917 39.2751 54.4624C38.8644 54.7331 38.5424 55.1017 38.3091 55.5684C38.0851 56.0351 37.9731 56.5717 37.9731 57.1784C37.9731 57.7664 38.0991 58.2984 38.3511 58.7744C38.6031 59.2411 38.9484 59.6144 39.3871 59.8944C39.8351 60.1651 40.3531 60.3004 40.9411 60.3004C41.3238 60.3004 41.6831 60.2444 42.0191 60.1324C42.3644 60.0204 42.6631 59.8477 42.9151 59.6144C42.9991 59.5397 43.0924 59.4977 43.1951 59.4884C43.2978 59.4791 43.3864 59.5117 43.4611 59.5864C43.5544 59.6704 43.6011 59.7684 43.6011 59.8804C43.6104 59.9831 43.5731 60.0717 43.4891 60.1464C42.8078 60.7717 41.9584 61.0844 40.9411 61.0844Z"
		  fill="white"/>
	<path d="M46.1319 58.6064L45.6279 58.0464L50.7519 53.3844C50.8452 53.3097 50.9339 53.2724 51.0179 53.2724C51.1112 53.2724 51.1999 53.3191 51.2839 53.4124C51.3679 53.5057 51.4099 53.5991 51.4099 53.6924C51.4099 53.7857 51.3632 53.8697 51.2699 53.9444L46.1319 58.6064ZM45.9919 61.0004C45.8706 61.0004 45.7679 60.9631 45.6839 60.8884C45.6092 60.8044 45.5719 60.7017 45.5719 60.5804V50.4864C45.5719 50.3557 45.6092 50.2531 45.6839 50.1784C45.7679 50.1037 45.8706 50.0664 45.9919 50.0664C46.1226 50.0664 46.2252 50.1037 46.2999 50.1784C46.3746 50.2531 46.4119 50.3557 46.4119 50.4864V60.5804C46.4119 60.7017 46.3746 60.8044 46.2999 60.8884C46.2252 60.9631 46.1226 61.0004 45.9919 61.0004ZM51.2979 60.9304C51.2046 61.0144 51.1066 61.0471 51.0039 61.0284C50.9106 61.0191 50.8266 60.9677 50.7519 60.8744L47.4339 56.8144L48.0359 56.3244L51.3539 60.3844C51.4286 60.4777 51.4612 60.5711 51.4519 60.6644C51.4519 60.7577 51.4006 60.8464 51.2979 60.9304Z"
		  fill="white"/>
	<path d="M55.935 61.0844C55.4496 61.0844 54.941 60.9957 54.409 60.8184C53.877 60.6411 53.4336 60.3424 53.079 59.9224C53.0043 59.8291 52.9716 59.7311 52.981 59.6284C52.9996 59.5164 53.0603 59.4231 53.163 59.3484C53.2563 59.2831 53.3543 59.2597 53.457 59.2784C53.569 59.2971 53.6576 59.3484 53.723 59.4324C53.9936 59.7497 54.3203 59.9737 54.703 60.1044C55.095 60.2257 55.5196 60.2864 55.977 60.2864C56.761 60.2864 57.3163 60.1464 57.643 59.8664C57.9696 59.5864 58.133 59.2597 58.133 58.8864C58.133 58.5224 57.9556 58.2237 57.601 57.9904C57.2556 57.7477 56.719 57.5751 55.991 57.4724C55.0576 57.3417 54.367 57.0897 53.919 56.7164C53.471 56.3431 53.247 55.9091 53.247 55.4144C53.247 54.9477 53.3636 54.5557 53.597 54.2384C53.8303 53.9117 54.1476 53.6691 54.549 53.5104C54.9596 53.3424 55.4263 53.2584 55.949 53.2584C56.5836 53.2584 57.1203 53.3751 57.559 53.6084C57.9976 53.8324 58.3523 54.1357 58.623 54.5184C58.6976 54.6117 58.721 54.7144 58.693 54.8264C58.6743 54.9291 58.6043 55.0131 58.483 55.0784C58.3896 55.1251 58.2916 55.1391 58.189 55.1204C58.0863 55.1017 57.9976 55.0457 57.923 54.9524C57.6896 54.6537 57.405 54.4297 57.069 54.2804C56.7423 54.1217 56.3596 54.0424 55.921 54.0424C55.333 54.0424 54.8756 54.1684 54.549 54.4204C54.2223 54.6724 54.059 54.9757 54.059 55.3304C54.059 55.5731 54.1243 55.7877 54.255 55.9744C54.395 56.1517 54.619 56.3057 54.927 56.4364C55.235 56.5577 55.6456 56.6557 56.159 56.7304C56.859 56.8237 57.4096 56.9824 57.811 57.2064C58.2216 57.4304 58.511 57.6917 58.679 57.9904C58.8563 58.2797 58.945 58.5924 58.945 58.9284C58.945 59.3671 58.805 59.7497 58.525 60.0764C58.245 60.4031 57.8763 60.6551 57.419 60.8324C56.9616 61.0004 56.467 61.0844 55.935 61.0844Z"
		  fill="white"/>
</svg>
