<svg width="80" height="80" viewBox="0 0 80 80" fill="none" xmlns="http://www.w3.org/2000/svg">
	<path d="M0 10C0 4.47715 4.47715 0 10 0H70C75.5228 0 80 4.47715 80 10V70C80 75.5228 75.5228 80 70 80H10C4.47715 80 0 75.5228 0 70V10Z"
		  fill="#F2D23C"/>
	<path fill-rule="evenodd" clip-rule="evenodd"
		  d="M69.1899 12.669C70.1274 12.6112 70.6622 13.8303 70.0393 14.6052L64.4947 21.5031C63.8454 22.3109 62.6353 21.7945 62.6481 20.715L62.681 17.9163C62.6854 17.5496 62.5329 17.2021 62.2695 16.9782L60.2594 15.2699C59.4841 14.611 59.8679 13.244 60.8451 13.1837L69.1899 12.669ZM25.0719 30.7833C25.0719 37.3911 19.6705 42.7457 13.0144 42.7457C11.3465 42.7457 10 41.4014 10 39.7532C10 38.1051 11.3465 36.7683 13.0144 36.7683C16.3425 36.7683 19.0432 34.0872 19.0432 30.7833V21.8133C19.0432 20.1576 20.3897 18.8208 22.0575 18.8208C23.7254 18.8208 25.0719 20.1576 25.0719 21.8133V30.7833ZM57.5722 30.7833C57.5722 34.0872 60.2729 36.7683 63.601 36.7683C65.2689 36.7683 66.6154 38.0975 66.6154 39.7532C66.6154 41.409 65.2689 42.7457 63.601 42.7457C56.9449 42.7457 51.5435 37.3911 51.5435 30.7833V21.8133C51.5435 20.1576 52.89 18.8208 54.5578 18.8208C56.2257 18.8208 57.5722 20.1652 57.5722 21.8133V24.4945H59.9669C61.6348 24.4945 62.9889 25.8388 62.9889 27.4946C62.9889 29.1503 61.6348 30.4947 59.9669 30.4947H57.5722V30.7833ZM49.8145 26.5908C49.8221 26.5832 49.8298 26.5832 49.8298 26.5832C48.8811 24.1072 47.1061 21.9349 44.6273 20.507C38.8739 17.1955 31.5292 19.1551 28.2165 24.8819C24.896 30.6011 26.8699 37.9152 32.6156 41.2192C36.8465 43.6496 41.9419 43.2243 45.6601 40.5508L45.6372 40.5204C46.494 39.9963 47.0602 39.0545 47.0602 37.9836C47.0602 36.3354 45.7137 34.9987 44.0535 34.9987C43.2501 34.9987 42.5157 35.3101 41.9801 35.8266C40.1745 37.0342 37.7722 37.2241 35.7448 36.1152L47.8865 30.5175C48.5903 30.3048 49.2177 29.8339 49.6079 29.1504C50.0822 28.3377 50.1281 27.4035 49.8145 26.5908ZM41.6205 25.6794C41.9801 25.8844 42.3014 26.1199 42.5998 26.3781L32.608 30.9732C32.585 29.9175 32.8451 28.8466 33.4113 27.8668C35.0715 25.011 38.7439 24.0312 41.6205 25.6794Z"
		  fill="#0F172A"/>
	<path d="M23.3963 56.0004C22.8829 55.9911 22.4256 55.8744 22.0243 55.6504C21.6229 55.4171 21.3103 55.0997 21.0863 54.6984C20.8623 54.2877 20.7503 53.8257 20.7503 53.3124V46.3404C20.7503 46.2097 20.7876 46.1071 20.8623 46.0324C20.9463 45.9484 21.0489 45.9064 21.1703 45.9064C21.3009 45.9064 21.4036 45.9484 21.4783 46.0324C21.5623 46.1071 21.6043 46.2097 21.6043 46.3404V53.3124C21.6043 53.8537 21.7723 54.2971 22.1083 54.6424C22.4443 54.9784 22.8783 55.1464 23.4103 55.1464H23.7183C23.8489 55.1464 23.9516 55.1884 24.0263 55.2724C24.1103 55.3471 24.1523 55.4497 24.1523 55.5804C24.1523 55.7017 24.1103 55.8044 24.0263 55.8884C23.9516 55.9631 23.8489 56.0004 23.7183 56.0004H23.3963ZM19.6583 49.3784C19.5463 49.3784 19.4529 49.3457 19.3783 49.2804C19.3129 49.2057 19.2803 49.1124 19.2803 49.0004C19.2803 48.8884 19.3129 48.7997 19.3783 48.7344C19.4529 48.6597 19.5463 48.6224 19.6583 48.6224H23.4523C23.5643 48.6224 23.6529 48.6597 23.7183 48.7344C23.7929 48.7997 23.8303 48.8884 23.8303 49.0004C23.8303 49.1124 23.7929 49.2057 23.7183 49.2804C23.6529 49.3457 23.5643 49.3784 23.4523 49.3784H19.6583Z"
		  fill="#0F172A"/>
	<path d="M26.0468 52.6404C25.9254 52.6404 25.8228 52.6031 25.7388 52.5284C25.6641 52.4444 25.6268 52.3417 25.6268 52.2204V45.4864C25.6268 45.3557 25.6641 45.2531 25.7388 45.1784C25.8228 45.1037 25.9254 45.0664 26.0468 45.0664C26.1774 45.0664 26.2801 45.1037 26.3548 45.1784C26.4294 45.2531 26.4668 45.3557 26.4668 45.4864V52.2204C26.4668 52.3417 26.4294 52.4444 26.3548 52.5284C26.2801 52.6031 26.1774 52.6404 26.0468 52.6404ZM32.2488 56.0004C32.1274 56.0004 32.0248 55.9631 31.9408 55.8884C31.8661 55.8044 31.8288 55.7017 31.8288 55.5804V51.8144C31.8288 51.1984 31.7074 50.6897 31.4648 50.2884C31.2314 49.8871 30.9094 49.5884 30.4988 49.3924C30.0974 49.1871 29.6401 49.0844 29.1268 49.0844C28.6228 49.0844 28.1701 49.1824 27.7688 49.3784C27.3674 49.5651 27.0501 49.8264 26.8168 50.1624C26.5834 50.4984 26.4668 50.8764 26.4668 51.2964H25.7668C25.8041 50.7177 25.9768 50.1997 26.2848 49.7424C26.5928 49.2757 26.9941 48.9117 27.4888 48.6504C27.9834 48.3797 28.5294 48.2444 29.1268 48.2444C29.7988 48.2444 30.4008 48.3844 30.9328 48.6644C31.4741 48.9351 31.8988 49.3364 32.2068 49.8684C32.5148 50.3911 32.6688 51.0397 32.6688 51.8144V55.5804C32.6688 55.7017 32.6268 55.8044 32.5428 55.8884C32.4681 55.9631 32.3701 56.0004 32.2488 56.0004ZM26.0468 56.0004C25.9254 56.0004 25.8228 55.9631 25.7388 55.8884C25.6641 55.8044 25.6268 55.7017 25.6268 55.5804V48.7624C25.6268 48.6317 25.6641 48.5291 25.7388 48.4544C25.8228 48.3797 25.9254 48.3424 26.0468 48.3424C26.1774 48.3424 26.2801 48.3797 26.3548 48.4544C26.4294 48.5291 26.4668 48.6317 26.4668 48.7624V55.5804C26.4668 55.7017 26.4294 55.8044 26.3548 55.8884C26.2801 55.9631 26.1774 56.0004 26.0468 56.0004Z"
		  fill="#0F172A"/>
	<path d="M38.1547 56.0704C37.4173 56.0704 36.7593 55.9071 36.1807 55.5804C35.6113 55.2444 35.1633 54.7824 34.8367 54.1944C34.51 53.6064 34.3467 52.9344 34.3467 52.1784C34.3467 51.4131 34.5007 50.7411 34.8087 50.1624C35.1167 49.5744 35.5413 49.1124 36.0827 48.7764C36.624 48.4404 37.2447 48.2724 37.9447 48.2724C38.6353 48.2724 39.2467 48.4357 39.7787 48.7624C40.3107 49.0797 40.726 49.5231 41.0247 50.0924C41.3233 50.6524 41.4727 51.3011 41.4727 52.0384C41.4727 52.1597 41.4353 52.2577 41.3607 52.3324C41.286 52.3977 41.188 52.4304 41.0667 52.4304H34.9067V51.7024H41.2907L40.6747 52.1644C40.6933 51.5577 40.5907 51.0211 40.3667 50.5544C40.1427 50.0877 39.8207 49.7237 39.4007 49.4624C38.99 49.1917 38.5047 49.0564 37.9447 49.0564C37.4127 49.0564 36.9367 49.1917 36.5167 49.4624C36.106 49.7237 35.7793 50.0877 35.5367 50.5544C35.3033 51.0211 35.1867 51.5624 35.1867 52.1784C35.1867 52.7851 35.3127 53.3217 35.5647 53.7884C35.8167 54.2551 36.1667 54.6237 36.6147 54.8944C37.0627 55.1557 37.576 55.2864 38.1547 55.2864C38.5187 55.2864 38.8827 55.2257 39.2467 55.1044C39.62 54.9737 39.914 54.8057 40.1287 54.6004C40.2033 54.5257 40.292 54.4884 40.3947 54.4884C40.5067 54.4791 40.6 54.5071 40.6747 54.5724C40.7773 54.6564 40.8287 54.7497 40.8287 54.8524C40.838 54.9551 40.796 55.0484 40.7027 55.1324C40.404 55.4031 40.012 55.6271 39.5267 55.8044C39.0507 55.9817 38.5933 56.0704 38.1547 56.0704Z"
		  fill="#0F172A"/>
	<path d="M53.5599 56.0004C53.4386 56.0004 53.3359 55.9631 53.2519 55.8884C53.1773 55.8044 53.1399 55.7017 53.1399 55.5804V51.5344C53.1399 50.8157 52.9486 50.2277 52.5659 49.7704C52.1926 49.3131 51.7026 49.0844 51.0959 49.0844C50.4519 49.0844 49.9246 49.2991 49.5139 49.7284C49.1126 50.1484 48.9213 50.7177 48.9399 51.4364H48.0999C48.1186 50.7924 48.2586 50.2324 48.5199 49.7564C48.7813 49.2804 49.1359 48.9117 49.5839 48.6504C50.0319 48.3797 50.5359 48.2444 51.0959 48.2444C51.6653 48.2444 52.1646 48.3844 52.5939 48.6644C53.0233 48.9444 53.3593 49.3317 53.6019 49.8264C53.8539 50.3211 53.9799 50.8904 53.9799 51.5344V55.5804C53.9799 55.7017 53.9426 55.8044 53.8679 55.8884C53.7933 55.9631 53.6906 56.0004 53.5599 56.0004ZM43.4379 56.0004C43.3166 56.0004 43.2139 55.9631 43.1299 55.8884C43.0553 55.8044 43.0179 55.7017 43.0179 55.5804V48.7624C43.0179 48.6317 43.0553 48.5291 43.1299 48.4544C43.2139 48.3797 43.3166 48.3424 43.4379 48.3424C43.5686 48.3424 43.6713 48.3797 43.7459 48.4544C43.8206 48.5291 43.8579 48.6317 43.8579 48.7624V55.5804C43.8579 55.7017 43.8206 55.8044 43.7459 55.8884C43.6713 55.9631 43.5686 56.0004 43.4379 56.0004ZM48.5199 56.0004C48.3986 56.0004 48.2959 55.9631 48.2119 55.8884C48.1373 55.8044 48.0999 55.7017 48.0999 55.5804V51.5344C48.0999 50.8157 47.9086 50.2277 47.5259 49.7704C47.1526 49.3131 46.6626 49.0844 46.0559 49.0844C45.4119 49.0844 44.8846 49.2897 44.4739 49.7004C44.0633 50.1111 43.8579 50.6431 43.8579 51.2964H43.1579C43.1859 50.6991 43.3259 50.1717 43.5779 49.7144C43.8393 49.2571 44.1846 48.8977 44.6139 48.6364C45.0433 48.3751 45.5239 48.2444 46.0559 48.2444C46.6253 48.2444 47.1246 48.3844 47.5539 48.6644C47.9833 48.9444 48.3193 49.3317 48.5619 49.8264C48.8139 50.3211 48.9399 50.8904 48.9399 51.5344V55.5804C48.9399 55.7017 48.9026 55.8044 48.8279 55.8884C48.7533 55.9631 48.6506 56.0004 48.5199 56.0004Z"
		  fill="#0F172A"/>
	<path d="M59.4697 56.0704C58.7323 56.0704 58.0743 55.9071 57.4957 55.5804C56.9263 55.2444 56.4784 54.7824 56.1517 54.1944C55.825 53.6064 55.6617 52.9344 55.6617 52.1784C55.6617 51.4131 55.8157 50.7411 56.1237 50.1624C56.4317 49.5744 56.8563 49.1124 57.3977 48.7764C57.939 48.4404 58.5597 48.2724 59.2597 48.2724C59.9503 48.2724 60.5617 48.4357 61.0937 48.7624C61.6257 49.0797 62.041 49.5231 62.3397 50.0924C62.6384 50.6524 62.7877 51.3011 62.7877 52.0384C62.7877 52.1597 62.7503 52.2577 62.6757 52.3324C62.601 52.3977 62.503 52.4304 62.3817 52.4304H56.2217V51.7024H62.6057L61.9897 52.1644C62.0083 51.5577 61.9057 51.0211 61.6817 50.5544C61.4577 50.0877 61.1357 49.7237 60.7157 49.4624C60.305 49.1917 59.8197 49.0564 59.2597 49.0564C58.7277 49.0564 58.2517 49.1917 57.8317 49.4624C57.421 49.7237 57.0943 50.0877 56.8517 50.5544C56.6183 51.0211 56.5017 51.5624 56.5017 52.1784C56.5017 52.7851 56.6277 53.3217 56.8797 53.7884C57.1317 54.2551 57.4817 54.6237 57.9297 54.8944C58.3777 55.1557 58.891 55.2864 59.4697 55.2864C59.8337 55.2864 60.1977 55.2257 60.5617 55.1044C60.935 54.9737 61.229 54.8057 61.4437 54.6004C61.5183 54.5257 61.607 54.4884 61.7097 54.4884C61.8217 54.4791 61.915 54.5071 61.9897 54.5724C62.0923 54.6564 62.1437 54.7497 62.1437 54.8524C62.153 54.9551 62.111 55.0484 62.0177 55.1324C61.719 55.4031 61.327 55.6271 60.8417 55.8044C60.3657 55.9817 59.9083 56.0704 59.4697 56.0704Z"
		  fill="#0F172A"/>
	<path d="M23.6478 68.0838C22.9198 68.0838 22.2665 67.9111 21.6878 67.5658C21.1185 67.2205 20.6658 66.7538 20.3298 66.1658C20.0032 65.5778 19.8398 64.9151 19.8398 64.1778C19.8398 63.4311 19.9938 62.7638 20.3018 62.1758C20.6098 61.5878 21.0345 61.1258 21.5758 60.7898C22.1172 60.4445 22.7378 60.2718 23.4378 60.2718C24.0352 60.2718 24.5812 60.3885 25.0758 60.6218C25.5705 60.8458 25.9998 61.1911 26.3638 61.6578C26.4385 61.7511 26.4665 61.8491 26.4478 61.9518C26.4292 62.0545 26.3685 62.1385 26.2658 62.2038C26.1818 62.2691 26.0885 62.2971 25.9858 62.2878C25.8832 62.2691 25.7945 62.2131 25.7198 62.1198C25.1225 61.4105 24.3618 61.0558 23.4378 61.0558C22.8872 61.0558 22.4018 61.1911 21.9818 61.4618C21.5712 61.7325 21.2492 62.1011 21.0158 62.5678C20.7918 63.0345 20.6798 63.5711 20.6798 64.1778C20.6798 64.7658 20.8058 65.2978 21.0578 65.7738C21.3098 66.2405 21.6552 66.6138 22.0938 66.8938C22.5418 67.1645 23.0598 67.2998 23.6478 67.2998C24.0305 67.2998 24.3898 67.2438 24.7258 67.1318C25.0712 67.0198 25.3698 66.8471 25.6218 66.6138C25.7058 66.5391 25.7992 66.4971 25.9018 66.4878C26.0045 66.4785 26.0932 66.5111 26.1678 66.5858C26.2612 66.6698 26.3078 66.7678 26.3078 66.8798C26.3172 66.9825 26.2798 67.0711 26.1958 67.1458C25.5145 67.7711 24.6652 68.0838 23.6478 68.0838Z"
		  fill="#0F172A"/>
	<path d="M31.7787 68.0838C31.032 68.0838 30.36 67.9158 29.7627 67.5798C29.1747 67.2345 28.708 66.7678 28.3627 66.1798C28.0267 65.5825 27.8587 64.9151 27.8587 64.1778C27.8587 63.4311 28.0267 62.7638 28.3627 62.1758C28.708 61.5785 29.1747 61.1118 29.7627 60.7758C30.36 60.4305 31.032 60.2578 31.7787 60.2578C32.5253 60.2578 33.1927 60.4305 33.7807 60.7758C34.3687 61.1118 34.8307 61.5785 35.1667 62.1758C35.512 62.7638 35.6847 63.4311 35.6847 64.1778C35.6847 64.9151 35.512 65.5825 35.1667 66.1798C34.8307 66.7678 34.3687 67.2345 33.7807 67.5798C33.1927 67.9158 32.5253 68.0838 31.7787 68.0838ZM31.7787 67.2998C32.3667 67.2998 32.8893 67.1645 33.3467 66.8938C33.8133 66.6138 34.1773 66.2405 34.4387 65.7738C34.7093 65.2978 34.8447 64.7611 34.8447 64.1638C34.8447 63.5758 34.7093 63.0485 34.4387 62.5818C34.1773 62.1058 33.8133 61.7325 33.3467 61.4618C32.8893 61.1818 32.3667 61.0418 31.7787 61.0418C31.2 61.0418 30.6773 61.1818 30.2107 61.4618C29.744 61.7325 29.3753 62.1058 29.1047 62.5818C28.834 63.0485 28.6987 63.5805 28.6987 64.1778C28.6987 64.7658 28.834 65.2978 29.1047 65.7738C29.3753 66.2405 29.744 66.6138 30.2107 66.8938C30.6773 67.1645 31.2 67.2998 31.7787 67.2998Z"
		  fill="#0F172A"/>
	<path d="M37.7806 63.3238C37.8366 62.7265 38 62.1991 38.2706 61.7418C38.5413 61.2751 38.8913 60.9111 39.3206 60.6498C39.75 60.3885 40.226 60.2578 40.7486 60.2578C41.1033 60.2578 41.3786 60.2998 41.5746 60.3838C41.7706 60.4678 41.8453 60.6171 41.7986 60.8318C41.7706 60.9718 41.7053 61.0558 41.6026 61.0838C41.5 61.1118 41.374 61.1165 41.2246 61.0978C41.0846 61.0698 40.926 61.0558 40.7486 61.0558C40.282 61.0558 39.8666 61.1538 39.5026 61.3498C39.1386 61.5458 38.854 61.8165 38.6486 62.1618C38.4433 62.4978 38.3406 62.8851 38.3406 63.3238H37.7806ZM37.9206 67.9998C37.7993 67.9998 37.6966 67.9625 37.6126 67.8878C37.538 67.8038 37.5006 67.7011 37.5006 67.5798V60.7618C37.5006 60.6311 37.538 60.5285 37.6126 60.4538C37.6966 60.3791 37.7993 60.3418 37.9206 60.3418C38.0513 60.3418 38.154 60.3791 38.2286 60.4538C38.3033 60.5285 38.3406 60.6311 38.3406 60.7618V67.5798C38.3406 67.7011 38.3033 67.8038 38.2286 67.8878C38.154 67.9625 38.0513 67.9998 37.9206 67.9998Z"
		  fill="#0F172A"/>
	<path d="M46.1868 68.0698C45.4494 68.0698 44.7914 67.9065 44.2127 67.5798C43.6434 67.2438 43.1954 66.7818 42.8687 66.1938C42.5421 65.6058 42.3787 64.9338 42.3787 64.1778C42.3787 63.4125 42.5327 62.7405 42.8407 62.1618C43.1488 61.5738 43.5734 61.1118 44.1147 60.7758C44.6561 60.4398 45.2767 60.2718 45.9767 60.2718C46.6674 60.2718 47.2787 60.4351 47.8107 60.7618C48.3427 61.0791 48.7581 61.5225 49.0567 62.0918C49.3554 62.6518 49.5047 63.3005 49.5047 64.0378C49.5047 64.1591 49.4674 64.2571 49.3927 64.3318C49.3181 64.3971 49.2201 64.4298 49.0987 64.4298H42.9387V63.7018H49.3228L48.7068 64.1638C48.7254 63.5571 48.6227 63.0205 48.3988 62.5538C48.1748 62.0871 47.8528 61.7231 47.4328 61.4618C47.0221 61.1911 46.5367 61.0558 45.9767 61.0558C45.4447 61.0558 44.9688 61.1911 44.5487 61.4618C44.1381 61.7231 43.8114 62.0871 43.5688 62.5538C43.3354 63.0205 43.2188 63.5618 43.2188 64.1778C43.2188 64.7845 43.3447 65.3211 43.5968 65.7878C43.8488 66.2545 44.1987 66.6231 44.6467 66.8938C45.0947 67.1551 45.6081 67.2858 46.1868 67.2858C46.5508 67.2858 46.9147 67.2251 47.2787 67.1038C47.6521 66.9731 47.9461 66.8051 48.1607 66.5998C48.2354 66.5251 48.3241 66.4878 48.4268 66.4878C48.5387 66.4785 48.6321 66.5065 48.7068 66.5718C48.8094 66.6558 48.8608 66.7491 48.8608 66.8518C48.8701 66.9545 48.8281 67.0478 48.7347 67.1318C48.4361 67.4025 48.0441 67.6265 47.5588 67.8038C47.0828 67.9811 46.6254 68.0698 46.1868 68.0698Z"
		  fill="#0F172A"/>
</svg>
