<svg width="80" height="80" viewBox="0 0 80 80" fill="none" xmlns="http://www.w3.org/2000/svg">
	<path d="M0 10C0 4.47715 4.47715 0 10 0H70C75.5228 0 80 4.47715 80 10V70C80 75.5228 75.5228 80 70 80H10C4.47715 80 0 75.5228 0 70V10Z"
		  fill="#D652EB"/>
	<path fill-rule="evenodd" clip-rule="evenodd"
		  d="M69.1899 17.669C70.1274 17.6112 70.6622 18.8303 70.0393 19.6052L64.4947 26.5031C63.8454 27.3109 62.6353 26.7945 62.6481 25.715L62.681 22.9163C62.6854 22.5496 62.5329 22.2021 62.2695 21.9782L60.2594 20.2699C59.4841 19.611 59.8679 18.244 60.8451 18.1837L69.1899 17.669ZM25.0719 35.7833C25.0719 42.3911 19.6705 47.7457 13.0144 47.7457C11.3465 47.7457 10 46.4014 10 44.7532C10 43.1051 11.3465 41.7683 13.0144 41.7683C16.3425 41.7683 19.0432 39.0872 19.0432 35.7833V26.8133C19.0432 25.1576 20.3897 23.8208 22.0575 23.8208C23.7254 23.8208 25.0719 25.1576 25.0719 26.8133V35.7833ZM57.5722 35.7833C57.5722 39.0872 60.2729 41.7683 63.601 41.7683C65.2689 41.7683 66.6154 43.0975 66.6154 44.7532C66.6154 46.409 65.2689 47.7457 63.601 47.7457C56.9449 47.7457 51.5435 42.3911 51.5435 35.7833V26.8133C51.5435 25.1576 52.89 23.8208 54.5578 23.8208C56.2257 23.8208 57.5722 25.1652 57.5722 26.8133V29.4945H59.9669C61.6348 29.4945 62.9889 30.8388 62.9889 32.4946C62.9889 34.1503 61.6348 35.4947 59.9669 35.4947H57.5722V35.7833ZM49.8145 31.5908C49.8221 31.5832 49.8298 31.5832 49.8298 31.5832C48.8811 29.1072 47.1061 26.9349 44.6273 25.507C38.8739 22.1955 31.5292 24.1551 28.2165 29.8819C24.896 35.6011 26.8699 42.9152 32.6156 46.2192C36.8465 48.6496 41.9419 48.2243 45.6601 45.5508L45.6372 45.5204C46.494 44.9963 47.0602 44.0545 47.0602 42.9836C47.0602 41.3354 45.7137 39.9987 44.0535 39.9987C43.2501 39.9987 42.5157 40.3101 41.9801 40.8266C40.1745 42.0342 37.7722 42.2241 35.7448 41.1152L47.8865 35.5175C48.5903 35.3048 49.2177 34.8339 49.6079 34.1504C50.0822 33.3377 50.1281 32.4035 49.8145 31.5908ZM41.6205 30.6794C41.9801 30.8844 42.3014 31.1199 42.5998 31.3781L32.608 35.9732C32.585 34.9175 32.8451 33.8466 33.4113 32.8668C35.0715 30.011 38.7439 29.0312 41.6205 30.6794Z"
		  fill="white"/>
	<path d="M8.25252 60.9997C8.16585 60.9997 8.08785 60.978 8.01852 60.9347C7.95785 60.8913 7.91452 60.8307 7.88852 60.7527L5.78252 54.4477C5.74785 54.257 5.75652 54.1183 5.80852 54.0317C5.86052 53.9363 5.95152 53.8887 6.08152 53.8887C6.15085 53.8887 6.22019 53.9103 6.28952 53.9537C6.35885 53.9883 6.41085 54.0447 6.44552 54.1227L8.36952 59.9207H8.20052L9.96852 54.2007C9.99452 54.1053 10.0422 54.0317 10.1115 53.9797C10.1809 53.919 10.2632 53.8887 10.3585 53.8887C10.4539 53.8887 10.5319 53.919 10.5925 53.9797C10.6619 54.0317 10.7139 54.1053 10.7485 54.2007L12.5685 59.9207H12.3345L14.2585 54.1227C14.3279 53.9667 14.4492 53.8887 14.6225 53.8887C14.7785 53.8887 14.8825 53.9493 14.9345 54.0707C14.9952 54.192 14.9952 54.3177 14.9345 54.4477L12.8415 60.7527C12.8155 60.8307 12.7679 60.8913 12.6985 60.9347C12.6379 60.978 12.5599 60.9997 12.4645 60.9997C12.3779 60.9997 12.2999 60.978 12.2305 60.9347C12.1612 60.8913 12.1179 60.8307 12.1005 60.7527L10.2415 54.9807H10.4105L8.61652 60.7527C8.58185 60.8393 8.52985 60.9043 8.46052 60.9477C8.39985 60.9823 8.33052 60.9997 8.25252 60.9997Z"
		  fill="white"/>
	<path d="M18.8799 61.0777C18.1866 61.0777 17.5626 60.9217 17.0079 60.6097C16.4619 60.289 16.0286 59.8557 15.7079 59.3097C15.3959 58.755 15.2399 58.1353 15.2399 57.4507C15.2399 56.7573 15.3959 56.1377 15.7079 55.5917C16.0286 55.037 16.4619 54.6037 17.0079 54.2917C17.5626 53.971 18.1866 53.8107 18.8799 53.8107C19.5733 53.8107 20.1929 53.971 20.7389 54.2917C21.2849 54.6037 21.7139 55.037 22.0259 55.5917C22.3466 56.1377 22.5069 56.7573 22.5069 57.4507C22.5069 58.1353 22.3466 58.755 22.0259 59.3097C21.7139 59.8557 21.2849 60.289 20.7389 60.6097C20.1929 60.9217 19.5733 61.0777 18.8799 61.0777ZM18.8799 60.3497C19.4259 60.3497 19.9113 60.224 20.3359 59.9727C20.7693 59.7127 21.1073 59.366 21.3499 58.9327C21.6013 58.4907 21.7269 57.9923 21.7269 57.4377C21.7269 56.8917 21.6013 56.402 21.3499 55.9687C21.1073 55.5267 20.7693 55.18 20.3359 54.9287C19.9113 54.6687 19.4259 54.5387 18.8799 54.5387C18.3426 54.5387 17.8573 54.6687 17.4239 54.9287C16.9906 55.18 16.6483 55.5267 16.3969 55.9687C16.1456 56.402 16.0199 56.896 16.0199 57.4507C16.0199 57.9967 16.1456 58.4907 16.3969 58.9327C16.6483 59.366 16.9906 59.7127 17.4239 59.9727C17.8573 60.224 18.3426 60.3497 18.8799 60.3497Z"
		  fill="white"/>
	<path d="M27.1832 61.0777C26.4898 61.0777 25.8658 60.9217 25.3112 60.6097C24.7652 60.289 24.3318 59.8557 24.0112 59.3097C23.6992 58.755 23.5432 58.1353 23.5432 57.4507C23.5432 56.7573 23.6992 56.1377 24.0112 55.5917C24.3318 55.037 24.7652 54.6037 25.3112 54.2917C25.8658 53.971 26.4898 53.8107 27.1832 53.8107C27.8765 53.8107 28.4962 53.971 29.0422 54.2917C29.5882 54.6037 30.0172 55.037 30.3292 55.5917C30.6498 56.1377 30.8102 56.7573 30.8102 57.4507C30.8102 58.1353 30.6498 58.755 30.3292 59.3097C30.0172 59.8557 29.5882 60.289 29.0422 60.6097C28.4962 60.9217 27.8765 61.0777 27.1832 61.0777ZM27.1832 60.3497C27.7292 60.3497 28.2145 60.224 28.6392 59.9727C29.0725 59.7127 29.4105 59.366 29.6532 58.9327C29.9045 58.4907 30.0302 57.9923 30.0302 57.4377C30.0302 56.8917 29.9045 56.402 29.6532 55.9687C29.4105 55.5267 29.0725 55.18 28.6392 54.9287C28.2145 54.6687 27.7292 54.5387 27.1832 54.5387C26.6458 54.5387 26.1605 54.6687 25.7272 54.9287C25.2938 55.18 24.9515 55.5267 24.7002 55.9687C24.4488 56.402 24.3232 56.896 24.3232 57.4507C24.3232 57.9967 24.4488 58.4907 24.7002 58.9327C24.9515 59.366 25.2938 59.7127 25.7272 59.9727C26.1605 60.224 26.6458 60.3497 27.1832 60.3497Z"
		  fill="white"/>
	<path d="M35.8634 61.0777C35.1874 61.0777 34.5764 60.9217 34.0304 60.6097C33.4844 60.2977 33.0511 59.873 32.7304 59.3357C32.4184 58.7983 32.2537 58.1917 32.2364 57.5157V51.2367C32.2364 51.1153 32.2711 51.02 32.3404 50.9507C32.4184 50.8813 32.5137 50.8467 32.6264 50.8467C32.7477 50.8467 32.8431 50.8813 32.9124 50.9507C32.9817 51.02 33.0164 51.1153 33.0164 51.2367V55.2927C33.2937 54.842 33.6794 54.4823 34.1734 54.2137C34.6761 53.945 35.2394 53.8107 35.8634 53.8107C36.5567 53.8107 37.1764 53.971 37.7224 54.2917C38.2771 54.6037 38.7104 55.0327 39.0224 55.5787C39.3431 56.1247 39.5034 56.7443 39.5034 57.4377C39.5034 58.131 39.3431 58.755 39.0224 59.3097C38.7104 59.8557 38.2771 60.289 37.7224 60.6097C37.1764 60.9217 36.5567 61.0777 35.8634 61.0777ZM35.8634 60.3497C36.4094 60.3497 36.8947 60.224 37.3194 59.9727C37.7527 59.7127 38.0951 59.366 38.3464 58.9327C38.5977 58.4907 38.7234 57.9923 38.7234 57.4377C38.7234 56.883 38.5977 56.389 38.3464 55.9557C38.0951 55.5223 37.7527 55.18 37.3194 54.9287C36.8947 54.6687 36.4094 54.5387 35.8634 54.5387C35.3261 54.5387 34.8407 54.6687 34.4074 54.9287C33.9741 55.18 33.6317 55.5223 33.3804 55.9557C33.1377 56.389 33.0164 56.883 33.0164 57.4377C33.0164 57.9923 33.1377 58.4907 33.3804 58.9327C33.6317 59.366 33.9741 59.7127 34.4074 59.9727C34.8407 60.224 35.3261 60.3497 35.8634 60.3497Z"
		  fill="white"/>
	<path d="M44.0922 61.0907C43.4682 61.0907 42.9092 60.965 42.4152 60.7137C41.9212 60.4537 41.5269 60.0767 41.2322 59.5827C40.9462 59.0887 40.8032 58.4863 40.8032 57.7757V54.2787C40.8032 54.166 40.8379 54.075 40.9072 54.0057C40.9852 53.9277 41.0805 53.8887 41.1932 53.8887C41.3059 53.8887 41.3969 53.9277 41.4662 54.0057C41.5442 54.075 41.5832 54.166 41.5832 54.2787V57.7757C41.5832 58.339 41.6915 58.8113 41.9082 59.1927C42.1335 59.5653 42.4325 59.847 42.8052 60.0377C43.1865 60.2197 43.6155 60.3107 44.0922 60.3107C44.5602 60.3107 44.9805 60.2197 45.3532 60.0377C45.7259 59.8557 46.0205 59.613 46.2372 59.3097C46.4539 58.9977 46.5622 58.6467 46.5622 58.2567H47.2122C47.1775 58.794 47.0172 59.2793 46.7312 59.7127C46.4452 60.1373 46.0725 60.4753 45.6132 60.7267C45.1625 60.9693 44.6555 61.0907 44.0922 61.0907ZM46.9522 60.9997C46.8395 60.9997 46.7442 60.965 46.6662 60.8957C46.5969 60.8177 46.5622 60.7223 46.5622 60.6097V54.2787C46.5622 54.1573 46.5969 54.062 46.6662 53.9927C46.7442 53.9233 46.8395 53.8887 46.9522 53.8887C47.0735 53.8887 47.1689 53.9233 47.2382 53.9927C47.3075 54.062 47.3422 54.1573 47.3422 54.2787V60.6097C47.3422 60.7223 47.3075 60.8177 47.2382 60.8957C47.1689 60.965 47.0735 60.9997 46.9522 60.9997Z"
		  fill="white"/>
	<path d="M49.8103 60.9997C49.6976 60.9997 49.6023 60.965 49.5243 60.8957C49.4549 60.8177 49.4203 60.7223 49.4203 60.6097V54.2787C49.4203 54.1573 49.4549 54.062 49.5243 53.9927C49.6023 53.9233 49.6976 53.8887 49.8103 53.8887C49.9316 53.8887 50.0269 53.9233 50.0963 53.9927C50.1656 54.062 50.2003 54.1573 50.2003 54.2787V60.6097C50.2003 60.7223 50.1656 60.8177 50.0963 60.8957C50.0269 60.965 49.9316 60.9997 49.8103 60.9997ZM49.7973 52.3937C49.6326 52.3937 49.4896 52.3373 49.3683 52.2247C49.2556 52.1033 49.1993 51.956 49.1993 51.7827C49.1993 51.5833 49.2599 51.436 49.3813 51.3407C49.5113 51.2367 49.6543 51.1847 49.8103 51.1847C49.9576 51.1847 50.0919 51.2367 50.2133 51.3407C50.3433 51.436 50.4083 51.5833 50.4083 51.7827C50.4083 51.956 50.3476 52.1033 50.2263 52.2247C50.1136 52.3373 49.9706 52.3937 49.7973 52.3937Z"
		  fill="white"/>
	<path d="M53.7138 60.9997C53.3845 60.9997 53.0898 60.9087 52.8298 60.7267C52.5785 60.5447 52.3792 60.2933 52.2318 59.9727C52.0932 59.652 52.0238 59.2793 52.0238 58.8547V51.2367C52.0238 51.1153 52.0585 51.02 52.1278 50.9507C52.2058 50.8813 52.3012 50.8467 52.4138 50.8467C52.5352 50.8467 52.6305 50.8813 52.6998 50.9507C52.7692 51.02 52.8038 51.1153 52.8038 51.2367V58.8547C52.8038 59.2533 52.8862 59.5827 53.0508 59.8427C53.2242 60.094 53.4452 60.2197 53.7138 60.2197H54.0388C54.1342 60.2197 54.2122 60.2543 54.2728 60.3237C54.3335 60.393 54.3638 60.4883 54.3638 60.6097C54.3638 60.7223 54.3292 60.8177 54.2598 60.8957C54.1905 60.965 54.0952 60.9997 53.9738 60.9997H53.7138Z"
		  fill="white"/>
	<path d="M58.1242 61.0777C57.4308 61.0777 56.8068 60.9217 56.2522 60.6097C55.7062 60.289 55.2728 59.8557 54.9522 59.3097C54.6402 58.755 54.4842 58.131 54.4842 57.4377C54.4842 56.7443 54.6402 56.1247 54.9522 55.5787C55.2728 55.0327 55.7062 54.6037 56.2522 54.2917C56.8068 53.971 57.4308 53.8107 58.1242 53.8107C58.7482 53.8107 59.3072 53.945 59.8012 54.2137C60.3038 54.4823 60.6938 54.842 60.9712 55.2927V51.2367C60.9712 51.1153 61.0058 51.02 61.0752 50.9507C61.1532 50.8813 61.2485 50.8467 61.3612 50.8467C61.4825 50.8467 61.5778 50.8813 61.6472 50.9507C61.7165 51.02 61.7512 51.1153 61.7512 51.2367V57.5157C61.7425 58.1917 61.5778 58.7983 61.2572 59.3357C60.9365 59.873 60.5032 60.2977 59.9572 60.6097C59.4198 60.9217 58.8088 61.0777 58.1242 61.0777ZM58.1242 60.3497C58.6702 60.3497 59.1555 60.224 59.5802 59.9727C60.0135 59.7127 60.3515 59.366 60.5942 58.9327C60.8455 58.4907 60.9712 57.9923 60.9712 57.4377C60.9712 56.883 60.8455 56.389 60.5942 55.9557C60.3515 55.5223 60.0135 55.18 59.5802 54.9287C59.1555 54.6687 58.6702 54.5387 58.1242 54.5387C57.5868 54.5387 57.1015 54.6687 56.6682 54.9287C56.2348 55.18 55.8925 55.5223 55.6412 55.9557C55.3898 56.389 55.2642 56.883 55.2642 57.4377C55.2642 57.9923 55.3898 58.4907 55.6412 58.9327C55.8925 59.366 56.2348 59.7127 56.6682 59.9727C57.1015 60.224 57.5868 60.3497 58.1242 60.3497Z"
		  fill="white"/>
	<path d="M66.717 61.0647C66.0323 61.0647 65.4213 60.913 64.884 60.6097C64.3553 60.2977 63.9393 59.8687 63.636 59.3227C63.3326 58.7767 63.181 58.1527 63.181 57.4507C63.181 56.74 63.324 56.116 63.61 55.5787C63.896 55.0327 64.2903 54.6037 64.793 54.2917C65.2956 53.9797 65.872 53.8237 66.522 53.8237C67.1633 53.8237 67.731 53.9753 68.225 54.2787C68.719 54.5733 69.1046 54.985 69.382 55.5137C69.6593 56.0337 69.798 56.636 69.798 57.3207C69.798 57.4333 69.7633 57.5243 69.694 57.5937C69.6246 57.6543 69.5336 57.6847 69.421 57.6847H63.701V57.0087H69.629L69.057 57.4377C69.0743 56.8743 68.979 56.376 68.771 55.9427C68.563 55.5093 68.264 55.1713 67.874 54.9287C67.4926 54.6773 67.042 54.5517 66.522 54.5517C66.028 54.5517 65.586 54.6773 65.196 54.9287C64.8146 55.1713 64.5113 55.5093 64.286 55.9427C64.0693 56.376 63.961 56.8787 63.961 57.4507C63.961 58.014 64.078 58.5123 64.312 58.9457C64.546 59.379 64.871 59.7213 65.287 59.9727C65.703 60.2153 66.1796 60.3367 66.717 60.3367C67.055 60.3367 67.393 60.2803 67.731 60.1677C68.0776 60.0463 68.3506 59.8903 68.55 59.6997C68.6193 59.6303 68.7016 59.5957 68.797 59.5957C68.901 59.587 68.9876 59.613 69.057 59.6737C69.1523 59.7517 69.2 59.8383 69.2 59.9337C69.2086 60.029 69.1696 60.1157 69.083 60.1937C68.8056 60.445 68.4416 60.653 67.991 60.8177C67.549 60.9823 67.1243 61.0647 66.717 61.0647Z"
		  fill="white"/>
	<path d="M71.2328 56.6577C71.2849 56.103 71.4365 55.6133 71.6879 55.1887C71.9392 54.7553 72.2642 54.4173 72.6628 54.1747C73.0615 53.932 73.5035 53.8107 73.9888 53.8107C74.3182 53.8107 74.5739 53.8497 74.7559 53.9277C74.9379 54.0057 75.0072 54.1443 74.9639 54.3437C74.9379 54.4737 74.8772 54.5517 74.7819 54.5777C74.6865 54.6037 74.5695 54.608 74.4308 54.5907C74.3008 54.5647 74.1535 54.5517 73.9888 54.5517C73.5555 54.5517 73.1698 54.6427 72.8318 54.8247C72.4939 55.0067 72.2295 55.258 72.0388 55.5787C71.8482 55.8907 71.7528 56.2503 71.7528 56.6577H71.2328ZM71.3628 60.9997C71.2502 60.9997 71.1549 60.965 71.0769 60.8957C71.0075 60.8177 70.9728 60.7223 70.9728 60.6097V54.2787C70.9728 54.1573 71.0075 54.062 71.0769 53.9927C71.1549 53.9233 71.2502 53.8887 71.3628 53.8887C71.4842 53.8887 71.5795 53.9233 71.6488 53.9927C71.7182 54.062 71.7528 54.1573 71.7528 54.2787V60.6097C71.7528 60.7223 71.7182 60.8177 71.6488 60.8957C71.5795 60.965 71.4842 60.9997 71.3628 60.9997Z"
		  fill="white"/>
</svg>
