<svg xmlns="http://www.w3.org/2000/svg" data-name="Layer 1" viewBox="0 0 50 50">
	<title>SiteGround Logo</title>
	<g fill-rule="evenodd">
		<path fill="#96cb4c"
			  d="M18.019 39.047C12.15 37.13 7.965 31.428 6.939 25.455 4.106 8.968 21.653-5.908 39.177 2.353c.207 3.703-1.513 8.972-6.232 10.556 23.424 14.788 3.398 45.081-21.15 35.12-4.478-2.284-2.088-6.459 2.7-4.04 5.348 1.843 12.296 1.843 16.674-.574a19.807 19.807 0 0 0 7.126-6.35 20.593 20.593 0 0 0 1.69-3.125c.372-.874 1.568-4.478.64-4.872-.233-.097-.355.178-.42.437a15.29 15.29 0 0 1-3.358 6.334 16.944 16.944 0 0 1-7.234 4.951c-3.5 1.276-7.557 1.437-13.136.216.369-.398 1.108-1.508 1.536-1.959zm16.17-35.213a11.463 11.463 0 0 1 .16 1.632 7.755 7.755 0 0 1-2.59 6.431c-.393.395-.84.804-1.339 1.23 6.616 4.113 10.07 13.108 6.23 19.394-5.182 8.47-15.452 6.545-21.062.745-5.874-6.071-5.095-13.927-.876-19.749A24.47 24.47 0 0 1 34.19 3.834z"/>
		<path fill="#fff"
			  d="M14.252 22.43C15.51 9.855 29.975 7.366 35.35 24.122c4.337 17.224-23.096 13.475-21.1-1.694zm11.798 8.266c11.422.417 5.949-11.265-1.55-13.846-7.433-2.559-11.566 13.846 1.55 13.846z"/>
	</g>
</svg>
