<svg
		clip-rule="evenodd"
		fill-rule="evenodd"
		height="156"
		image-rendering="optimizeQuality"
		shape-rendering="geometricPrecision"
		text-rendering="geometricPrecision"
		viewBox="0 0 2074.0606 647.1069"
		width="500"
		version="1.1"
		id="svg4"
		xmlns="http://www.w3.org/2000/svg"
>
	<defs
			id="defs4"/>
	<path
			d="M 0,0 H 5668 V 2126 H 0 Z"
			fill="none"
			id="path1"/>
	<g
			fill-rule="nonzero"
			id="g4"
			transform="matrix(0.42241682,0,0,0.42241682,-160.09796,-125.39558)">
		<path
				d="m 1347,1660 c 17,40 15,100 41,132 2,2 5,3 7,5 154,-9 162,-184 87,-265 -34,-32 -82,-45 -140,-20 -305,131 -596,47 -772,-133 -97,-96 -160,-219 -176,-353 -51,-426 299,-694 539,-724 216,-26 416,48 553,188 148,147 226,368 179,621 -22,117 -91,262 -246,262 -64,0 -125,-27 -168,-73 -40,-38 -68,-90 -71,-150 -15,-230 281,-293 261,-524 -3,-41 -21,-77 -50,-107 -90,-86 -270,-119 -434,-86 -203,42 -398,226 -432,447 -27,180 36,384 169,522 119,116 290,181 501,133 68,-16 119,-80 231,-62 40,6 72,25 95,50 89,83 75,257 -41,297 -60,21 -168,4 -216,-48 l -2,-2 c -6,-3 -11,-8 -16,-13 -19,-16 -31,-46 -29,-79 4,-48 34,-85 68,-82 14,1 26,8 36,19 12,10 21,26 26,45 z"
				fill="#524f54"
				id="path2"/>
		<path
				d="m 2892,735 c -9,1 -19,3 -31,7 -12,4 -23,9 -34,15 -13,8 -23,17 -31,27 -8,11 -14,25 -21,44 -25,84 -56,183 -90,296 -34,113 -71,233 -111,360 h -51 l -196,-598 -204,598 h -49 c -35,-128 -73,-260 -112,-398 -38,-138 -64,-230 -77,-276 -4,-12 -9,-22 -15,-31 -6,-9 -15,-16 -26,-24 -9,-6 -20,-11 -32,-14 -12,-3 -24,-5 -33,-6 v -38 h 317 v 38 c -28,2 -51,5 -71,9 -20,4 -29,11 -29,20 0,4 0,8 1,14 1,6 2,12 3,15 9,32 24,85 45,159 21,74 53,185 95,333 l 194,-578 h 54 l 195,590 c 27,-90 49,-170 68,-238 19,-67 35,-125 47,-173 9,-34 15,-58 17,-70 2,-13 3,-24 3,-32 0,-13 -8,-23 -25,-32 -17,-8 -45,-14 -83,-17 v -38 h 282 z m 633,154 c 0,40 -8,76 -24,107 -16,31 -38,57 -66,78 -28,20 -58,35 -91,45 -34,9 -69,14 -106,14 h -87 v 236 c 0,12 2,24 6,33 4,10 13,17 26,22 7,3 18,5 35,7 16,3 32,4 46,4 v 39 h -334 v -39 c 8,0 21,-2 38,-4 17,-1 28,-4 35,-7 11,-4 19,-11 24,-20 4,-10 7,-21 7,-35 V 807 c 0,-13 -2,-24 -6,-34 -3,-10 -12,-18 -25,-23 -14,-5 -28,-8 -42,-11 -13,-2 -25,-3 -35,-4 v -38 h 355 c 72,0 131,17 176,52 45,35 68,81 68,140 z m -167,132 c 13,-18 21,-36 25,-55 4,-18 6,-35 6,-50 0,-21 -3,-42 -7,-64 -5,-21 -14,-40 -26,-56 -13,-17 -29,-31 -50,-40 -21,-10 -47,-14 -78,-14 h -77 v 343 h 56 c 39,0 71,-6 96,-18 24,-12 43,-28 55,-46 z"
				fill="#33879e"
				id="path3"/>
		<path
				d="m 4550,1474 h -343 v -39 c 12,0 28,-1 48,-4 19,-2 33,-5 40,-9 11,-7 20,-15 25,-24 5,-9 8,-20 8,-33 V 799 h -8 l -266,663 h -27 L 3774,785 h -7 v 465 c 0,45 3,79 9,102 5,23 14,40 26,50 8,8 24,16 50,22 25,7 41,11 49,11 v 39 h -314 v -39 c 16,-1 34,-4 52,-8 18,-4 32,-10 41,-18 13,-10 22,-26 27,-47 5,-21 7,-57 7,-106 V 858 c 0,-23 -3,-42 -8,-57 -6,-14 -14,-26 -24,-35 -11,-10 -25,-18 -41,-23 -17,-4 -33,-7 -49,-8 v -38 h 265 l 222,583 191,-488 c 7,-18 13,-37 18,-56 4,-20 7,-33 7,-39 h 254 v 38 c -10,1 -23,2 -39,5 -16,3 -27,6 -35,9 -12,4 -21,11 -25,21 -4,11 -7,22 -7,34 v 561 c 0,13 3,23 7,32 4,9 13,16 25,23 7,4 18,7 35,10 17,3 30,5 40,5 z m 729,-231 -16,231 h -608 v -39 c 9,0 21,-2 38,-4 17,-1 28,-4 35,-7 11,-4 19,-11 24,-20 5,-10 7,-21 7,-35 V 812 c 0,-13 -2,-24 -6,-33 -4,-10 -13,-17 -25,-23 -9,-5 -20,-9 -35,-13 -16,-4 -28,-7 -38,-8 v -38 h 328 v 38 c -10,1 -23,3 -39,6 -17,3 -28,6 -36,9 -12,4 -21,12 -25,22 -5,11 -7,22 -7,34 v 523 c 0,23 1,42 3,56 3,13 8,23 17,31 8,6 21,11 38,12 16,3 40,4 69,4 14,0 28,-1 43,-2 14,0 28,-2 41,-4 13,-2 25,-5 36,-9 11,-4 19,-9 24,-15 15,-16 32,-42 52,-76 20,-34 34,-62 41,-83 z"
				fill="#c9471f"
				id="path4"/>
	</g>
</svg>
